<svg width="277" height="220" viewBox="0 0 277 220" fill="none" xmlns="http://www.w3.org/2000/svg">
<g clip-path="url(#clip0_1_480)">
<path d="M206.632 217.357C202.797 214.119 200.469 209.004 201.079 204.024C201.69 199.044 205.473 194.465 210.38 193.408C215.287 192.35 220.88 195.278 222.371 200.069C223.191 190.832 224.136 181.208 229.049 173.342C233.498 166.219 241.203 161.123 249.554 160.211C257.905 159.299 266.698 162.743 271.906 169.331C277.114 175.919 278.39 185.497 274.742 193.061C272.055 198.633 267.104 202.78 261.917 206.153C245.156 216.963 225.053 221.359 205.307 218.532" fill="#F2F2F2"/>
<path d="M263.648 162.934C256.757 168.544 250.436 174.818 244.775 181.665C235.916 192.345 228.747 204.32 223.518 217.171C223.136 218.109 224.659 218.517 225.037 217.59C233.593 196.704 247.251 178.295 264.762 164.047C265.548 163.407 264.428 162.299 263.648 162.934Z" fill="white"/>
<path d="M67.7231 219.574H45.9784C45.2437 219.573 44.5392 219.281 44.0197 218.762C43.5001 218.242 43.2079 217.538 43.207 216.804V171.63C43.2079 170.896 43.5001 170.192 44.0197 169.672C44.5392 169.153 45.2437 168.861 45.9784 168.86H67.7231C68.4579 168.861 69.1623 169.153 69.6819 169.672C70.2014 170.192 70.4937 170.896 70.4945 171.63V216.804C70.4937 217.538 70.2014 218.242 69.6819 218.762C69.1623 219.281 68.4579 219.573 67.7231 219.574Z" fill="#C24278"/>
<path d="M119.314 220H97.5688C96.721 219.999 95.9082 219.662 95.3087 219.063C94.7092 218.464 94.372 217.651 94.3711 216.804V129.014C94.372 128.166 94.7092 127.354 95.3087 126.755C95.9082 126.155 96.721 125.818 97.5688 125.818H119.314C120.161 125.818 120.974 126.155 121.574 126.755C122.173 127.354 122.51 128.166 122.511 129.014V216.804C122.51 217.651 122.173 218.464 121.574 219.063C120.974 219.662 120.161 219.999 119.314 220ZM97.5688 126.67C96.9471 126.671 96.3511 126.918 95.9114 127.357C95.4718 127.797 95.2245 128.392 95.2238 129.014V216.804C95.2245 217.425 95.4718 218.021 95.9114 218.46C96.3511 218.9 96.9471 219.147 97.5688 219.148H119.314C119.935 219.147 120.531 218.9 120.971 218.46C121.411 218.021 121.658 217.425 121.659 216.804V129.014C121.658 128.392 121.411 127.797 120.971 127.357C120.531 126.918 119.935 126.671 119.314 126.67H97.5688Z" fill="#3F3D56"/>
<path d="M170.904 220H149.159C148.311 219.999 147.499 219.662 146.899 219.063C146.3 218.464 145.962 217.651 145.961 216.804V73.186C145.962 72.3386 146.3 71.5262 146.899 70.927C147.499 70.3278 148.311 69.9908 149.159 69.9898H170.904C171.752 69.9908 172.565 70.3278 173.164 70.927C173.764 71.5262 174.101 72.3386 174.102 73.186V216.804C174.101 217.651 173.764 218.464 173.164 219.063C172.565 219.662 171.752 219.999 170.904 220ZM149.159 70.8421C148.537 70.8428 147.941 71.09 147.502 71.5294C147.062 71.9688 146.815 72.5646 146.814 73.186V216.804C146.815 217.425 147.062 218.021 147.502 218.46C147.941 218.9 148.537 219.147 149.159 219.148H170.904C171.526 219.147 172.122 218.9 172.561 218.46C173.001 218.021 173.248 217.425 173.249 216.804V73.186C173.248 72.5646 173.001 71.9688 172.561 71.5294C172.122 71.09 171.526 70.8428 170.904 70.8421H149.159Z" fill="#3F3D56"/>
<path d="M222.976 219.787H201.231C200.496 219.786 199.792 219.494 199.272 218.975C198.753 218.455 198.461 217.751 198.46 217.017V14.5883C198.461 13.8539 198.753 13.1498 199.272 12.6305C199.792 12.1112 200.496 11.8191 201.231 11.8182H222.976C223.711 11.8191 224.415 12.1112 224.935 12.6305C225.454 13.1498 225.746 13.8539 225.747 14.5883V217.017C225.746 217.751 225.454 218.455 224.935 218.975C224.415 219.494 223.711 219.786 222.976 219.787Z" fill="#C24278"/>
<path d="M87.7376 94.7614C87.8165 94.1399 87.7581 93.5086 87.5665 92.9121C87.3749 92.3156 87.0548 91.7683 86.6287 91.3089C86.2026 90.8494 85.6809 90.4889 85.1003 90.2527C84.5198 90.0166 83.8945 89.9105 83.2685 89.942L75.6891 76.0452L73.9836 82.0115L79.1763 94.7477C79.299 95.7954 79.8019 96.7616 80.5898 97.4634C81.3776 98.1652 82.3956 98.5537 83.4509 98.5554C84.5062 98.5571 85.5254 98.1718 86.3155 97.4725C87.1056 96.7733 87.6116 95.8086 87.7376 94.7614Z" fill="#A0616A"/>
<path d="M29.3408 149.632L33.5623 152.713L47.4597 137.902L41.2288 133.356L29.3408 149.632Z" fill="#A0616A"/>
<path d="M38.8425 162.573L25.574 152.89L29.3166 147.766L37.4587 153.708C38.8183 154.7 39.7279 156.191 39.9874 157.854C40.247 159.516 39.8351 161.214 38.8425 162.573Z" fill="#2F2E41"/>
<path d="M51.6761 165.939L56.9034 165.939L59.39 145.786L51.6753 145.786L51.6761 165.939Z" fill="#A0616A"/>
<path d="M66.9846 170.79L50.5564 170.79L50.5561 164.446L60.6371 164.446C62.3205 164.446 63.9349 165.114 65.1253 166.304C66.3157 167.493 66.9845 169.107 66.9846 170.79Z" fill="#2F2E41"/>
<path d="M67.3749 87.3385C67.3749 87.3385 69.9331 112.056 63.5376 129.103L58.8475 161.491H50.7466L51.5993 123.136L48.6147 89.0432C48.6147 89.0432 54.5839 73.7012 67.3749 87.3385Z" fill="#2F2E41"/>
<path d="M39.661 89.043L48.1884 118.448L31.5601 144.871L39.8742 151.902L58.8475 122.284L53.3048 86.0598L39.661 89.043Z" fill="#2F2E41"/>
<path d="M61.4073 23.1042C67.1908 23.1042 71.8793 18.4179 71.8793 12.6371C71.8793 6.85631 67.1908 2.17004 61.4073 2.17004C55.6238 2.17004 50.9353 6.85631 50.9353 12.6371C50.9353 18.4179 55.6238 23.1042 61.4073 23.1042Z" fill="#A0616A"/>
<path d="M52.6651 27.0361C52.6651 27.0361 59.0606 22.7745 66.3089 32.1501L68.2275 91.174C68.2275 91.174 62.6847 83.503 51.1728 90.7478C39.6609 97.9926 37.1027 89.8955 37.1027 89.8955C37.1027 89.8955 29.0018 28.9539 52.6651 27.0361Z" fill="#CCCCCC"/>
<path d="M65.7931 32.0013C67.6325 32.1007 69.3701 32.8764 70.6717 34.1793C71.9734 35.4821 72.747 37.22 72.8438 39.0587L74.1967 64.7517L83.1504 89.0432L78.034 93.3048L61.4057 64.3256L58.0013 40.5059C57.8452 39.4141 57.9333 38.3014 58.2591 37.2477C58.585 36.194 59.1405 35.2257 59.8856 34.4124C60.6308 33.599 61.5471 32.961 62.5686 32.544C63.5901 32.1271 64.6913 31.9418 65.7931 32.0013Z" fill="#CCCCCC"/>
<path d="M53.7129 20.4885C55.4248 22.3113 58.6042 21.3328 58.8273 18.8426C58.8448 18.6493 58.8435 18.4547 58.8235 18.2616C58.7083 17.1586 58.0708 16.1572 58.2235 14.9925C58.258 14.7027 58.3661 14.4264 58.5374 14.19C59.9016 12.3641 63.104 15.0067 64.3915 13.3537C65.181 12.3402 64.253 10.7444 64.8588 9.61152C65.6584 8.11636 68.0268 8.85392 69.512 8.0351C71.1645 7.12406 71.0656 4.58987 69.9779 3.04846C68.6513 1.16864 66.3253 0.165553 64.0284 0.0209763C61.7314 -0.1236 59.4503 0.497041 57.3059 1.33235C54.8694 2.28142 52.4532 3.59308 50.9538 5.73448C49.1304 8.33865 48.955 11.8397 49.8669 14.8848C50.4216 16.7372 52.3148 19 53.7129 20.4885Z" fill="#2F2E41"/>
<path d="M276.492 219.819H0.507658C0.373271 219.819 0.244518 219.765 0.149629 219.67C0.0547402 219.575 0.00146484 219.446 0.00146484 219.312C0.00146484 219.177 0.0547402 219.049 0.149629 218.953C0.244518 218.858 0.373271 218.805 0.507658 218.804H276.492C276.627 218.805 276.755 218.858 276.85 218.953C276.945 219.049 276.999 219.177 276.999 219.312C276.999 219.446 276.945 219.575 276.85 219.67C276.755 219.765 276.627 219.819 276.492 219.819Z" fill="#3F3D56"/>
</g>
<defs>
<clipPath id="clip0_1_480">
<rect width="277" height="220" fill="white"/>
</clipPath>
</defs>
</svg>
