<svg width="327" height="254" viewBox="0 0 327 254" fill="none" xmlns="http://www.w3.org/2000/svg">
<g clip-path="url(#clip0_1_383)">
<path d="M67.8849 167.072C53.1007 152.546 46.8566 137.392 50.3022 124.401C54.7241 107.731 74.3683 96.2044 104.198 92.7779L104.308 93.7341C74.8937 97.1128 55.5492 108.38 51.2344 124.648C47.8811 137.29 54.0346 152.113 68.5615 166.387L67.8849 167.072Z" fill="#2F1A60"/>
<path d="M210.528 218.635C192.076 218.635 172.025 215.898 152.109 210.636C127.48 204.128 104.898 194.305 86.8035 182.229L87.3393 181.43C105.346 193.447 127.828 203.225 152.356 209.705C174.521 215.562 196.852 218.276 216.927 217.56L216.962 218.521C214.841 218.597 212.697 218.635 210.528 218.635Z" fill="#F0F0F0"/>
<path d="M252.858 212.583L252.549 211.672C269.052 206.103 279.374 197.132 282.399 185.728C286.244 171.231 277.89 154.409 258.876 138.359C239.765 122.228 212.207 108.843 181.277 100.671L181.524 99.7403C212.589 107.949 240.281 121.403 259.499 137.624C278.813 153.927 287.277 171.098 283.331 185.974C280.219 197.705 269.682 206.906 252.858 212.583Z" fill="#F0F0F0"/>
<path d="M101.327 219.037C65.0708 202.988 37.1325 182.166 22.6593 160.407L23.4625 159.875C37.8357 181.483 65.6273 202.182 101.718 218.158L101.327 219.037Z" fill="#2F1A60"/>
<path d="M228.801 246.841C225.062 246.841 221.258 246.758 217.391 246.591L217.432 245.63C246.294 246.877 271.758 243.43 291.079 235.659L291.439 236.552C274.586 243.33 253.104 246.841 228.801 246.841Z" fill="#2F1A60"/>
<path d="M207.765 93.6409C201.773 91.6935 195.609 89.8804 189.445 88.2517C153.974 78.8795 119.106 75.5518 88.6087 78.6304L88.5117 77.6727C119.123 74.584 154.11 77.9197 189.692 87.3213C195.873 88.9547 202.054 90.773 208.064 92.7259L207.765 93.6409Z" fill="#F0F0F0"/>
<path d="M45.2258 168.516C30.4415 153.99 24.1974 138.836 27.643 125.845C32.0649 109.174 51.7091 97.648 81.5386 94.2214L81.6488 95.1777C52.2345 98.5563 32.89 109.824 28.5753 126.091C25.2219 138.734 31.3754 153.557 45.9023 167.83L45.2258 168.516Z" fill="#F0F0F0"/>
<path d="M187.869 220.079C169.417 220.079 149.366 217.342 129.45 212.079C104.821 205.572 82.2383 195.749 64.1443 183.673L64.6801 182.873C82.687 194.891 105.169 204.668 129.696 211.149C151.861 217.006 174.193 219.72 194.268 219.003L194.302 219.965C192.182 220.041 190.038 220.079 187.869 220.079Z" fill="#2F1A60"/>
<path d="M230.199 214.027L229.89 213.115C246.392 207.546 256.714 198.575 259.739 187.172C263.584 172.675 255.231 155.852 236.217 139.803C217.106 123.671 189.548 110.287 158.618 102.114L158.865 101.184C189.93 109.392 217.622 122.846 236.839 139.068C256.153 155.371 264.617 172.542 260.671 187.418C257.56 199.149 247.022 208.35 230.199 214.027Z" fill="#F0F0F0"/>
<path d="M78.6679 220.481C42.4115 204.432 14.4732 183.61 0 161.851L0.803212 161.318C15.1764 182.927 42.968 203.625 79.0586 219.601L78.6679 220.481Z" fill="#2F1A60"/>
<path d="M206.142 248.285C202.403 248.285 198.599 248.201 194.732 248.035L194.773 247.073C223.634 248.32 249.099 244.873 268.42 237.102L268.78 237.995C251.926 244.773 230.445 248.285 206.142 248.285Z" fill="#2F1A60"/>
<path d="M185.106 95.0845C179.113 93.1372 172.949 91.324 166.786 89.6953C131.315 80.3231 96.4466 76.9954 65.9493 80.074L65.8523 79.1163C96.4634 76.0276 131.451 79.3633 167.032 88.7649C173.214 90.3983 179.395 92.2166 185.404 94.1695L185.106 95.0845Z" fill="#F0F0F0"/>
<path d="M16.4347 142.739C23.3637 134.986 34.4167 130.26 44.4332 133.089C35.1926 139.615 28.5628 149.194 25.717 160.13C24.6348 164.351 23.8715 169.159 20.3539 171.74C18.1653 173.346 15.2652 173.73 12.5736 173.364C9.8818 172.998 7.33668 171.954 4.8259 170.918L4.15027 170.977C6.09275 160.769 9.5056 150.493 16.4347 142.739Z" fill="#2F1A60"/>
<path d="M44.4027 133.305C36.0282 135.328 28.5055 139.934 22.9031 146.468C21.6721 147.853 20.6674 149.424 19.9263 151.121C19.2578 152.798 19.0514 154.623 19.3286 156.406C19.5536 158.074 19.9772 159.754 19.792 161.448C19.6843 162.313 19.3945 163.146 18.9417 163.892C18.4888 164.638 17.8831 165.28 17.1642 165.776C15.4053 167.058 13.2897 167.632 11.2013 168.123C8.88254 168.667 6.46542 169.196 4.57524 170.734C4.34622 170.92 4.0699 170.554 4.29858 170.368C7.58715 167.692 12.1575 168.036 15.796 166.092C17.4938 165.185 18.9281 163.762 19.2768 161.81C19.5817 160.102 19.1463 158.369 18.9039 156.682C18.608 154.946 18.7424 153.165 19.2954 151.493C19.9476 149.763 20.8899 148.157 22.0821 146.743C24.7151 143.516 27.84 140.723 31.3423 138.466C35.3251 135.867 39.724 133.968 44.3485 132.85C44.6348 132.781 44.6871 133.236 44.4027 133.305Z" fill="white"/>
<path d="M24.5829 144.258C23.6122 143.171 23.0601 141.775 23.0254 140.32C22.9907 138.864 23.4756 137.443 24.3934 136.311C24.5799 136.083 24.9443 136.362 24.7575 136.59C23.9008 137.643 23.4493 138.966 23.4844 140.321C23.5195 141.677 24.0389 142.975 24.9489 143.982C25.1464 144.201 24.7793 144.476 24.5829 144.258Z" fill="white"/>
<path d="M19.1029 155.575C22.0787 155.773 25.0196 154.843 27.3393 152.972C27.5689 152.787 27.8453 153.152 27.6159 153.338C25.1984 155.28 22.1359 156.241 19.0397 156.029C18.7446 156.009 18.8094 155.555 19.1029 155.575Z" fill="white"/>
<path d="M35.4283 136.466C35.7161 136.964 36.1235 137.384 36.6139 137.687C37.1043 137.989 37.6623 138.166 38.2379 138.2C38.5331 138.217 38.468 138.67 38.1747 138.653C37.539 138.613 36.9229 138.417 36.3804 138.084C35.8378 137.751 35.3853 137.29 35.0623 136.742C35.0275 136.693 35.0128 136.632 35.0211 136.573C35.0294 136.513 35.0601 136.459 35.1069 136.421C35.1556 136.385 35.2166 136.369 35.2768 136.377C35.337 136.386 35.3914 136.417 35.4283 136.466Z" fill="white"/>
<path d="M58.6518 165.277C58.4672 165.272 58.2826 165.267 58.0956 165.265C55.613 165.208 53.1299 165.353 50.6707 165.697C50.4802 165.721 50.2874 165.748 50.0979 165.777C44.1822 166.67 38.484 168.651 33.293 171.621C31.2285 172.804 29.2572 174.143 27.3962 175.625C24.8261 177.671 22.2027 180.095 19.1938 181.144C18.8811 181.257 18.5617 181.35 18.2374 181.424L4.2741 171.795C4.25337 171.757 4.23029 171.722 4.2094 171.685L3.63428 171.326C3.72491 171.242 3.8207 171.158 3.91133 171.075C3.96371 171.027 4.01921 170.98 4.07156 170.932C4.10747 170.9 4.14354 170.869 4.17413 170.838C4.18604 170.828 4.1981 170.817 4.20782 170.81C4.23841 170.779 4.27007 170.754 4.29846 170.727C4.8326 170.254 5.371 169.785 5.91366 169.318C5.91587 169.315 5.91587 169.315 5.92119 169.314C10.0651 165.769 14.5419 162.538 19.3678 160.087C19.513 160.014 19.6603 159.937 19.8119 159.868C21.9933 158.775 24.2605 157.863 26.5908 157.139C27.8682 156.747 29.1645 156.419 30.475 156.158C33.8624 155.489 37.3341 155.357 40.7629 155.765C47.5979 156.579 54.0959 159.566 58.3322 164.869C58.4404 165.005 58.5458 165.138 58.6518 165.277Z" fill="#2F1A60"/>
<path d="M58.498 165.432C50.5906 162.016 41.8057 161.173 33.3911 163.024C31.5725 163.39 29.8232 164.04 28.2075 164.95C26.6622 165.887 25.3966 167.22 24.5421 168.81C23.7156 170.277 23.0403 171.874 21.8708 173.114C21.2628 173.741 20.5289 174.232 19.7174 174.555C18.9059 174.878 18.0351 175.027 17.162 174.991C14.9843 174.958 12.9485 174.145 10.9853 173.282C8.8055 172.323 6.55662 171.293 4.11964 171.385C3.82436 171.396 3.82426 170.938 4.11909 170.927C8.35902 170.766 11.801 173.787 15.8786 174.422C17.7813 174.718 19.7849 174.443 21.2413 173.094C22.5148 171.913 23.2126 170.268 24.0366 168.776C24.8474 167.212 26.0295 165.87 27.4796 164.867C29.0437 163.878 30.7651 163.162 32.5699 162.749C36.6184 161.756 40.7983 161.403 44.9565 161.705C49.7041 162.024 54.3621 163.151 58.7291 165.037C58.9993 165.154 58.7664 165.549 58.498 165.432Z" fill="white"/>
<path d="M36.0656 162.269C35.9462 160.817 36.3475 159.371 37.1979 158.188C38.0483 157.005 39.2924 156.162 40.708 155.81C40.9947 155.739 41.1176 156.181 40.8305 156.251C39.5117 156.577 38.3529 157.362 37.5632 158.465C36.7736 159.569 36.4051 160.917 36.5244 162.268C36.5499 162.562 36.091 162.56 36.0656 162.269Z" fill="white"/>
<path d="M24.8632 168.012C27.1201 169.957 30.0289 170.982 33.0096 170.883C33.3049 170.872 33.3051 171.33 33.0101 171.341C29.9082 171.439 26.8833 170.366 24.5391 168.336C24.3158 168.142 24.6411 167.819 24.8632 168.012Z" fill="white"/>
<path d="M49.4255 162.564C49.3545 163.135 49.4266 163.714 49.6356 164.251C49.8446 164.787 50.1837 165.263 50.6226 165.637C50.8483 165.827 50.5228 166.15 50.2986 165.961C49.8156 165.546 49.4417 165.02 49.2095 164.428C48.9773 163.836 48.8939 163.196 48.9667 162.564C48.9685 162.504 48.9932 162.447 49.0358 162.404C49.0784 162.362 49.1356 162.337 49.1958 162.335C49.2565 162.335 49.3147 162.359 49.3577 162.402C49.4008 162.445 49.4251 162.503 49.4255 162.564Z" fill="white"/>
<path d="M287.94 206.302C284.025 196.675 275.206 188.516 264.82 187.82C271.325 197.067 274.343 208.313 273.341 219.567C272.939 223.906 272.038 228.69 274.482 232.301C276.003 234.548 278.605 235.882 281.263 236.44C283.921 236.999 286.67 236.869 289.384 236.736L290 237.017C291.608 226.752 291.854 215.929 287.94 206.302Z" fill="#2F1A60"/>
<path d="M264.776 188.034C271.981 192.749 277.515 199.611 280.592 207.644C281.285 209.362 281.702 211.177 281.828 213.025C281.893 214.828 281.473 216.616 280.612 218.203C279.838 219.698 278.873 221.139 278.477 222.796C278.287 223.647 278.28 224.529 278.455 225.383C278.63 226.238 278.985 227.045 279.495 227.753C280.72 229.551 282.519 230.802 284.321 231.964C286.321 233.255 288.42 234.563 289.682 236.646C289.835 236.898 290.218 236.647 290.066 236.395C287.869 232.771 283.449 231.562 280.677 228.511C279.383 227.087 278.512 225.265 278.841 223.309C279.129 221.599 280.122 220.113 280.919 218.605C281.782 217.07 282.255 215.347 282.297 213.586C282.266 211.739 281.919 209.91 281.272 208.178C279.879 204.256 277.877 200.577 275.338 197.276C272.462 193.493 268.959 190.228 264.98 187.624C264.733 187.463 264.531 187.874 264.776 188.034Z" fill="white"/>
<path d="M279.754 204.999C281.034 204.301 282.024 203.171 282.547 201.812C283.07 200.453 283.092 198.952 282.608 197.578C282.51 197.301 282.073 197.441 282.172 197.719C282.624 198.997 282.604 200.395 282.114 201.66C281.625 202.925 280.698 203.973 279.502 204.616C279.242 204.756 279.496 205.138 279.754 204.999Z" fill="white"/>
<path d="M281.104 217.496C278.235 216.684 275.778 214.822 274.223 212.282C274.069 212.03 273.686 212.281 273.84 212.533C275.462 215.173 278.023 217.106 281.011 217.945C281.295 218.024 281.387 217.575 281.104 217.496Z" fill="white"/>
<path d="M272.164 194.022C271.725 194.395 271.2 194.653 270.636 194.774C270.072 194.894 269.487 194.873 268.933 194.713C268.65 194.629 268.558 195.078 268.84 195.161C269.453 195.336 270.099 195.358 270.722 195.226C271.345 195.095 271.927 194.812 272.415 194.405C272.465 194.37 272.499 194.318 272.511 194.259C272.523 194.2 272.513 194.139 272.481 194.088C272.448 194.037 272.395 194.002 272.336 193.989C272.277 193.977 272.215 193.989 272.164 194.022Z" fill="white"/>
<path d="M240.589 213.367C240.764 213.424 240.94 213.481 241.117 213.542C243.474 214.321 245.764 215.29 247.964 216.439C248.136 216.526 248.308 216.616 248.477 216.706C253.748 219.532 258.447 223.31 262.336 227.848C263.882 229.655 265.288 231.577 266.542 233.597C268.273 236.387 269.928 239.549 272.408 241.547C272.665 241.758 272.934 241.953 273.215 242.131L289.608 237.746C289.64 237.718 289.674 237.693 289.706 237.664L290.369 237.519C290.311 237.41 290.25 237.299 290.192 237.19C290.159 237.127 290.123 237.065 290.09 237.001C290.066 236.96 290.043 236.918 290.025 236.879C290.017 236.865 290.009 236.851 290.002 236.841C289.984 236.802 289.963 236.767 289.945 236.732C289.601 236.108 289.252 235.485 288.898 234.863C288.897 234.86 288.897 234.86 288.893 234.857C286.184 230.128 283.055 225.583 279.335 221.657C279.223 221.539 279.11 221.417 278.991 221.301C277.304 219.54 275.476 217.92 273.525 216.457C272.454 215.659 271.343 214.916 270.197 214.23C267.232 212.464 264.007 211.174 260.64 210.408C253.929 208.883 246.803 209.516 241.027 213.089C240.88 213.181 240.735 213.271 240.589 213.367Z" fill="#2F1A60"/>
<path d="M240.681 213.565C249.279 212.999 257.837 215.152 265.139 219.718C266.728 220.673 268.157 221.872 269.372 223.271C270.512 224.672 271.255 226.352 271.524 228.137C271.809 229.796 271.907 231.525 272.591 233.086C272.953 233.88 273.478 234.589 274.134 235.166C274.789 235.742 275.559 236.174 276.394 236.433C278.456 237.132 280.647 237.05 282.787 236.895C285.163 236.724 287.628 236.508 289.892 237.412C290.166 237.522 290.32 237.09 290.047 236.981C286.107 235.408 281.848 237.098 277.794 236.328C275.903 235.968 274.108 235.038 273.191 233.278C272.389 231.739 272.286 229.956 272.012 228.273C271.775 226.529 271.114 224.868 270.085 223.438C268.945 221.981 267.565 220.729 266.005 219.735C262.526 217.441 258.708 215.707 254.69 214.597C250.111 213.304 245.345 212.803 240.597 213.114C240.303 213.134 240.389 213.584 240.681 213.565Z" fill="white"/>
<path d="M262.874 218.11C263.475 216.783 263.584 215.286 263.182 213.887C262.779 212.487 261.892 211.276 260.677 210.469C260.431 210.307 260.166 210.681 260.413 210.844C261.545 211.593 262.372 212.721 262.744 214.025C263.117 215.329 263.009 216.723 262.442 217.955C262.319 218.223 262.752 218.376 262.874 218.11Z" fill="white"/>
<path d="M271.491 227.277C268.71 228.352 265.625 228.342 262.852 227.248C262.577 227.139 262.422 227.571 262.697 227.679C265.585 228.812 268.795 228.816 271.687 227.691C271.962 227.583 271.765 227.17 271.491 227.277Z" fill="white"/>
<path d="M250.192 213.906C250.067 214.468 249.803 214.99 249.426 215.425C249.048 215.86 248.569 216.194 248.03 216.399C247.753 216.503 247.951 216.916 248.226 216.813C248.82 216.584 249.35 216.214 249.768 215.734C250.186 215.254 250.48 214.68 250.624 214.06C250.642 214.003 250.638 213.941 250.613 213.887C250.587 213.832 250.541 213.79 250.485 213.768C250.428 213.747 250.365 213.751 250.31 213.777C250.255 213.802 250.213 213.849 250.192 213.906Z" fill="white"/>
<path d="M211.988 239.084C214.119 239.084 215.845 237.36 215.845 235.234C215.845 233.108 214.119 231.385 211.988 231.385C209.858 231.385 208.132 233.108 208.132 235.234C208.132 237.36 209.858 239.084 211.988 239.084Z" fill="#C24278"/>
<path d="M225.65 173.519C227.78 173.519 229.507 171.795 229.507 169.669C229.507 167.543 227.78 165.82 225.65 165.82C223.52 165.82 221.793 167.543 221.793 169.669C221.793 171.795 223.52 173.519 225.65 173.519Z" fill="#2F1A60"/>
<path d="M153.883 66.7417C156.013 66.7417 157.739 65.0182 157.739 62.8922C157.739 60.7662 156.013 59.0427 153.883 59.0427C151.752 59.0427 150.026 60.7662 150.026 62.8922C150.026 65.0182 151.752 66.7417 153.883 66.7417Z" fill="#E6E6E6"/>
<path d="M73.0594 210.557C73.0594 211.537 73.0917 212.517 73.1604 213.489C73.2331 214.65 73.3584 215.804 73.528 216.949C74.0983 220.805 75.1883 224.567 76.7684 228.131C76.8492 228.309 76.93 228.486 77.0108 228.664L77.132 228.93C77.1724 229.018 77.2169 229.107 77.2573 229.192C77.3138 229.309 77.3663 229.422 77.4229 229.535C77.4916 229.676 77.5603 229.817 77.633 229.958C77.6411 229.974 77.6492 229.994 77.6613 230.014C77.7219 230.135 77.7785 230.252 77.8431 230.373C77.855 230.4 77.8685 230.425 77.8835 230.45C77.9522 230.587 78.0249 230.728 78.0976 230.865C78.1785 231.011 78.2552 231.16 78.336 231.305C78.53 231.664 78.732 232.019 78.938 232.374C78.9986 232.478 79.0592 232.583 79.1239 232.688C79.1804 232.785 79.237 232.882 79.2976 232.978C79.338 233.043 79.3784 233.111 79.4188 233.176C79.4835 233.285 79.5481 233.39 79.6168 233.499C79.7663 233.737 79.9198 233.974 80.0693 234.212H80.0734C80.142 234.321 80.2148 234.43 80.2875 234.535V234.539C80.5016 234.862 80.7239 235.184 80.9461 235.503L80.9476 235.503L80.949 235.504L80.9498 235.505L80.9501 235.507C81.1279 235.765 81.3137 236.015 81.4955 236.265V236.269C81.6168 236.426 81.7339 236.587 81.8551 236.745C81.9521 236.874 82.0531 237.007 82.1541 237.136C82.1743 237.164 82.1986 237.188 82.2188 237.217V237.221C82.247 237.257 82.2753 237.289 82.3036 237.325C82.7319 237.874 83.1736 238.41 83.6288 238.934L83.7016 239.019C83.7258 239.047 83.7541 239.076 83.7783 239.108C83.8187 239.152 83.8551 239.197 83.8955 239.241C83.9319 239.285 83.9723 239.33 84.0127 239.374C86.3856 242.042 89.0762 244.41 92.0246 246.427C92.4165 246.697 92.8165 246.959 93.2165 247.213C93.3175 247.278 93.4185 247.342 93.5195 247.403C93.5478 247.423 93.5801 247.443 93.6084 247.463C93.665 247.496 93.7175 247.528 93.7741 247.564C93.8266 247.596 93.8791 247.629 93.9357 247.661C94.1498 247.794 94.368 247.923 94.5862 248.052C94.6387 248.084 94.6953 248.117 94.7518 248.149C94.8044 248.177 94.8609 248.209 94.9175 248.242C94.9175 248.246 94.9175 248.246 94.9215 248.246H94.9256V248.25H94.9296C95.2003 248.407 95.4751 248.56 95.7538 248.709C95.9033 248.79 96.0569 248.875 96.2104 248.951C96.5579 249.141 96.9094 249.322 97.2609 249.496C97.3861 249.556 97.5154 249.617 97.6407 249.681C97.7457 249.73 97.8508 249.782 97.9558 249.83C97.9881 249.846 98.0164 249.859 98.0447 249.875C98.1336 249.915 98.2184 249.955 98.3073 249.996C98.4043 250.04 98.5013 250.084 98.5942 250.129C98.7033 250.177 98.8083 250.226 98.9174 250.27C99.3214 250.451 99.7295 250.625 100.138 250.79C101.6 251.388 103.095 251.905 104.614 252.339C104.683 252.359 104.756 252.379 104.828 252.399C105.479 252.581 106.133 252.746 106.792 252.895C107.944 253.161 109.106 253.379 110.279 253.548H110.287C110.428 253.569 110.566 253.589 110.707 253.609C110.719 253.609 110.731 253.613 110.747 253.613C110.747 253.617 110.747 253.617 110.752 253.613C110.905 253.633 111.063 253.653 111.216 253.673C111.227 253.676 111.238 253.678 111.248 253.677C111.394 253.698 111.543 253.714 111.689 253.73C111.846 253.746 112.004 253.762 112.162 253.778C112.283 253.79 112.404 253.802 112.525 253.815C112.536 253.818 112.547 253.819 112.558 253.819C112.667 253.827 112.776 253.839 112.885 253.847H112.901C112.994 253.855 113.091 253.863 113.184 253.871C114.311 253.96 115.442 254 116.59 254C117.83 254 119.062 253.952 120.279 253.847H120.291C120.553 253.823 120.812 253.798 121.071 253.774C121.139 253.766 121.204 253.762 121.273 253.754C121.285 253.754 121.301 253.75 121.313 253.75C121.333 253.746 121.353 253.746 121.378 253.742C121.388 253.742 121.399 253.741 121.41 253.738C121.499 253.73 121.588 253.718 121.681 253.71L121.984 253.673C122.085 253.661 122.186 253.645 122.287 253.633C122.311 253.629 122.331 253.629 122.355 253.625C122.428 253.617 122.501 253.605 122.574 253.593C122.61 253.589 122.646 253.585 122.679 253.581C122.751 253.569 122.82 253.56 122.893 253.548H122.897C125.114 253.23 127.302 252.738 129.442 252.077C129.555 252.04 129.668 252.008 129.781 251.972C129.785 251.972 129.79 251.968 129.794 251.968C129.826 251.956 129.862 251.947 129.895 251.935C130.198 251.839 130.497 251.738 130.796 251.633C131.208 251.496 131.616 251.347 132.024 251.193C132.133 251.149 132.242 251.109 132.351 251.064C132.573 250.98 132.791 250.891 133.01 250.802C133.381 250.653 133.753 250.496 134.121 250.334C134.464 250.181 134.804 250.028 135.143 249.867C135.151 249.863 135.163 249.863 135.171 249.855C135.248 249.818 135.325 249.782 135.397 249.746H135.402C137.262 248.854 139.057 247.832 140.771 246.685C141.321 246.318 141.862 245.939 142.395 245.548C142.824 245.229 143.244 244.907 143.664 244.576C145.737 242.93 147.656 241.1 149.397 239.108V239.104C149.522 238.967 149.64 238.826 149.761 238.684C149.781 238.664 149.797 238.644 149.813 238.628C149.89 238.535 149.963 238.447 150.04 238.358V238.354C150.141 238.237 150.242 238.116 150.339 237.995C150.363 237.967 150.383 237.942 150.403 237.918V237.914C150.484 237.817 150.561 237.721 150.642 237.62C150.682 237.571 150.718 237.523 150.759 237.475V237.471C150.997 237.172 151.227 236.874 151.458 236.567C151.518 236.487 151.579 236.402 151.644 236.317C151.935 235.926 152.217 235.527 152.492 235.128V235.124C152.597 234.974 152.698 234.821 152.803 234.672C152.904 234.519 153.005 234.366 153.106 234.212C153.207 234.051 153.312 233.894 153.413 233.732L153.425 233.708C153.526 233.555 153.627 233.394 153.724 233.236C153.801 233.107 153.878 232.982 153.955 232.857C154.003 232.773 154.056 232.688 154.104 232.599C154.123 232.572 154.141 232.544 154.157 232.515C154.27 232.317 154.383 232.12 154.496 231.922C154.629 231.692 154.759 231.458 154.888 231.224C154.936 231.128 154.989 231.031 155.042 230.934C155.062 230.902 155.078 230.869 155.094 230.837C155.155 230.724 155.215 230.607 155.272 230.49C155.332 230.377 155.393 230.261 155.454 230.144C155.51 230.031 155.571 229.914 155.627 229.797C155.672 229.708 155.712 229.619 155.757 229.531C155.76 229.523 155.764 229.517 155.769 229.51C155.789 229.466 155.809 229.426 155.825 229.385C155.83 229.379 155.834 229.373 155.837 229.365C155.882 229.277 155.922 229.184 155.967 229.095C156.023 228.978 156.076 228.857 156.132 228.74C156.169 228.66 156.209 228.575 156.246 228.49C156.298 228.373 156.355 228.256 156.403 228.135C156.46 228.014 156.512 227.893 156.565 227.768C156.58 227.738 156.593 227.707 156.605 227.676C156.633 227.619 156.654 227.563 156.678 227.506C156.743 227.357 156.807 227.204 156.868 227.055C156.94 226.885 157.009 226.712 157.074 226.542C157.138 226.385 157.199 226.224 157.26 226.063L157.284 226.006C158.225 223.531 158.939 220.976 159.417 218.373V218.369C159.687 216.882 159.88 215.383 159.995 213.876C159.999 213.792 160.007 213.711 160.011 213.63C160.084 212.61 160.116 211.586 160.116 210.558C160.116 210.102 160.108 209.65 160.096 209.199C159.814 199.753 156.439 190.659 150.488 183.31C150.359 183.148 150.229 182.987 150.096 182.826C149.963 182.664 149.825 182.507 149.692 182.35C145.263 177.173 139.677 173.107 133.385 170.48C127.092 167.853 120.27 166.739 113.466 167.227C106.663 167.714 100.07 169.791 94.2187 173.288C88.3671 176.786 83.4207 181.607 79.7784 187.362C79.5805 187.677 79.3825 187.995 79.1926 188.314C78.9987 188.637 78.8128 188.959 78.6269 189.286C74.9667 195.78 73.0489 203.107 73.0594 210.557Z" fill="#2F1A60"/>
<path d="M114.86 182.142C122.017 183.975 129.352 185.031 136.737 185.293C137.854 185.354 138.973 185.346 140.089 185.27C142.541 185.065 144.642 184.295 146.981 183.875C148.105 183.673 149.358 183.526 150.49 183.308C150.229 182.984 149.962 182.664 149.691 182.348C147.25 182.554 144.771 183.228 142.3 183.541C138.101 184.074 133.395 183.48 130.211 182.013C128.667 181.301 127.484 180.412 125.944 179.697C125.735 179.59 125.508 179.521 125.275 179.493C124.831 179.479 124.393 179.593 124.011 179.82C121.429 181.121 117.68 182.178 114.2 181.597C113.94 181.799 114.433 182.03 114.86 182.142Z" fill="white"/>
<path d="M99.4599 186.721C99.4282 186.715 99.3963 186.71 99.3645 186.705C99.4982 186.622 99.6241 186.527 99.7406 186.422L99.4599 186.721Z" fill="white"/>
<path d="M78.6277 189.288C80.0811 189.403 81.5422 189.49 83.0108 189.546C84.1275 189.607 85.2469 189.599 86.3627 189.524C88.8148 189.317 90.9152 188.549 93.2544 188.128C95.3982 187.744 98.0033 187.558 99.3645 186.705C95.8465 186.097 92.2015 187.334 88.5738 187.795C85.6395 188.155 82.665 188.008 79.7804 187.361C79.3788 187.992 78.9946 188.634 78.6277 189.288Z" fill="white"/>
<path d="M96.2102 248.951C96.5577 249.141 96.9092 249.322 97.2607 249.496C97.3859 249.556 97.5152 249.617 97.6405 249.681C97.7455 249.73 97.8506 249.782 97.9556 249.83C97.9879 249.846 98.0162 249.859 98.0445 249.875C98.1334 249.915 98.2182 249.955 98.3071 249.996C98.4041 250.04 98.5011 250.084 98.594 250.129C98.7031 250.177 98.8081 250.226 98.9172 250.27C99.3213 250.451 99.7293 250.625 100.137 250.79C101.6 251.388 103.094 251.905 104.614 252.339C104.683 252.359 104.755 252.379 104.828 252.399C105.479 252.581 106.133 252.746 106.792 252.895C107.943 253.161 109.106 253.379 110.279 253.548H110.287C110.428 253.569 110.565 253.589 110.707 253.609C110.719 253.609 110.731 253.613 110.747 253.613C110.747 253.617 110.747 253.617 110.751 253.613C110.905 253.633 111.062 253.653 111.216 253.673C111.226 253.676 111.237 253.678 111.248 253.677C111.394 253.698 111.543 253.714 111.689 253.73C111.846 253.746 112.004 253.762 112.161 253.778C112.283 253.79 112.404 253.802 112.525 253.814C112.535 253.818 112.546 253.819 112.557 253.819C112.666 253.827 112.776 253.839 112.885 253.847H112.901C112.994 253.855 113.091 253.863 113.184 253.871C114.311 253.96 115.442 254 116.59 254C117.83 254 119.062 253.952 120.278 253.847H120.291C120.553 253.823 120.812 253.798 121.07 253.774C121.139 253.766 121.204 253.762 121.272 253.754C121.284 253.754 121.301 253.75 121.313 253.75C121.333 253.746 121.353 253.746 121.377 253.742C121.388 253.742 121.399 253.741 121.41 253.738C121.499 253.73 121.587 253.718 121.68 253.71L121.983 253.673C122.084 253.661 122.185 253.645 122.286 253.633C122.311 253.629 122.331 253.629 122.355 253.625C122.428 253.617 122.501 253.605 122.573 253.593C122.61 253.589 122.646 253.585 122.678 253.581C122.751 253.569 122.82 253.56 122.893 253.548H122.897C125.114 253.23 127.302 252.738 129.442 252.076C129.555 252.04 129.668 252.008 129.781 251.972C129.26 249.543 128.186 247.267 126.642 245.319C125.099 243.371 123.128 241.803 120.88 240.737C121.436 240.209 121.82 239.526 121.983 238.777C122.088 238.295 122.097 237.796 122.008 237.31C121.919 236.824 121.735 236.361 121.466 235.946C120.942 235.143 120.119 234.58 119.179 234.382L113.192 233.132C112.228 232.944 111.229 233.144 110.412 233.688C109.594 234.231 109.025 235.075 108.828 236.035C108.767 236.329 108.74 236.63 108.747 236.93C102.982 240.761 98.8324 244.733 96.2102 248.951Z" fill="#C24278"/>
<path d="M113.89 230.771C120.78 230.771 126.365 225.197 126.365 218.32C126.365 211.444 120.78 205.87 113.89 205.87C107.001 205.87 101.416 211.444 101.416 218.32C101.416 225.197 107.001 230.771 113.89 230.771Z" fill="#FFB8B8"/>
<path d="M106.115 229.055C104.784 228.148 103.426 226.405 102.519 225.099C101.317 223.382 100.49 221.432 100.092 219.376C99.6934 217.319 99.7323 215.203 100.206 213.162C100.357 212.346 100.728 211.587 101.28 210.966C101.867 210.386 102.827 210.111 103.544 210.521C103.348 209.998 103.262 209.441 103.291 208.883C103.319 208.326 103.462 207.78 103.71 207.279C104.214 206.28 104.945 205.412 105.843 204.744C107.562 203.423 109.607 202.591 111.761 202.336C113.916 202.082 116.099 202.414 118.079 203.298C118.858 203.658 117.578 200.875 118.394 201.143C119.204 201.457 120.105 201.441 120.904 201.099C121.671 200.714 124.213 203.004 123.919 202.199C124.501 202.462 125.007 202.869 125.389 203.38C125.772 203.892 126.018 204.491 126.106 205.124C126.193 205.756 126.119 206.4 125.89 206.995C125.661 207.591 125.285 208.119 124.797 208.531C124.153 209.073 123.349 209.386 122.644 209.846C121.409 210.714 120.535 212.002 120.186 213.469C119.838 214.935 120.04 216.478 120.754 217.807C120.012 217.331 119.198 216.978 118.344 216.761C117.915 216.657 117.467 216.656 117.038 216.759C116.609 216.862 116.211 217.066 115.877 217.354C115.598 217.673 115.387 218.045 115.257 218.448C115.127 218.852 115.082 219.277 115.123 219.699C115.151 220.544 115.352 221.376 115.375 222.221C115.441 224.701 116.772 229.415 114.845 230.733C113.325 231.773 107.931 230.293 106.115 229.055Z" fill="#2F2E41"/>
<path d="M122.468 156.001C122.205 156.001 121.945 155.948 121.702 155.847C121.341 155.702 121.031 155.451 120.815 155.128C120.598 154.804 120.485 154.423 120.489 154.034V152.063C120.488 151.65 120.324 151.254 120.031 150.961C119.738 150.669 119.341 150.505 118.927 150.504C118.405 150.504 117.906 150.297 117.537 149.929C117.168 149.561 116.961 149.062 116.96 148.542V121.542C116.961 121.022 117.168 120.523 117.537 120.155C117.906 119.787 118.405 119.58 118.927 119.579H208.552C209.073 119.58 209.573 119.787 209.941 120.155C210.31 120.523 210.517 121.021 210.518 121.542V148.542C210.517 149.062 210.31 149.561 209.941 149.929C209.573 150.297 209.073 150.504 208.552 150.504H129.42C129.214 150.504 129.011 150.544 128.822 150.622C128.632 150.701 128.46 150.816 128.315 150.961L123.846 155.422C123.666 155.605 123.451 155.75 123.215 155.849C122.978 155.949 122.724 156.001 122.468 156.001Z" fill="white"/>
<path d="M315.301 115.389C315.301 116.369 315.268 117.349 315.2 118.321C315.127 119.482 315.002 120.636 314.832 121.781C314.262 125.637 313.172 129.399 311.592 132.963C311.511 133.141 311.43 133.318 311.349 133.496L311.228 133.762C311.188 133.85 311.143 133.939 311.103 134.024C311.046 134.141 310.994 134.254 310.937 134.367C310.868 134.508 310.8 134.649 310.727 134.79C310.719 134.806 310.711 134.826 310.699 134.846C310.638 134.967 310.582 135.084 310.517 135.205C310.505 135.232 310.492 135.257 310.477 135.282C310.408 135.419 310.335 135.56 310.262 135.697C310.182 135.843 310.105 135.992 310.024 136.137C309.83 136.496 309.628 136.851 309.422 137.206C309.361 137.31 309.301 137.415 309.236 137.52C309.18 137.617 309.123 137.714 309.062 137.81C309.022 137.875 308.982 137.943 308.941 138.008C308.877 138.117 308.812 138.222 308.743 138.331C308.594 138.568 308.44 138.806 308.291 139.044H308.287C308.218 139.153 308.145 139.262 308.073 139.367V139.371C307.858 139.694 307.636 140.016 307.414 140.335C307.413 140.335 307.413 140.335 307.412 140.335C307.412 140.335 307.411 140.336 307.411 140.336C307.411 140.336 307.41 140.337 307.41 140.337C307.41 140.338 307.41 140.338 307.41 140.339C307.232 140.597 307.046 140.847 306.864 141.097V141.101C306.743 141.258 306.626 141.419 306.505 141.577C306.408 141.706 306.307 141.839 306.206 141.968C306.186 141.996 306.161 142.02 306.141 142.049V142.053C306.113 142.089 306.085 142.121 306.056 142.157C305.628 142.706 305.186 143.242 304.731 143.766L304.658 143.851C304.634 143.879 304.606 143.908 304.582 143.94C304.541 143.984 304.505 144.029 304.465 144.073C304.428 144.117 304.388 144.162 304.347 144.206C301.974 146.874 299.284 149.242 296.335 151.259C295.944 151.529 295.544 151.791 295.144 152.045C295.043 152.11 294.942 152.174 294.841 152.235C294.812 152.255 294.78 152.275 294.752 152.295C294.695 152.328 294.643 152.36 294.586 152.396C294.533 152.428 294.481 152.461 294.424 152.493C294.21 152.626 293.992 152.755 293.774 152.884C293.721 152.916 293.665 152.949 293.608 152.981C293.556 153.009 293.499 153.041 293.443 153.074C293.443 153.078 293.443 153.078 293.439 153.078H293.434V153.082H293.43C293.16 153.239 292.885 153.392 292.606 153.541C292.457 153.622 292.303 153.707 292.15 153.783C291.802 153.973 291.451 154.154 291.099 154.328C290.974 154.388 290.845 154.449 290.719 154.513C290.614 154.562 290.509 154.614 290.404 154.662C290.372 154.678 290.344 154.691 290.315 154.707C290.226 154.747 290.142 154.787 290.053 154.828C289.956 154.872 289.859 154.916 289.766 154.961C289.657 155.009 289.552 155.058 289.443 155.102C289.039 155.283 288.631 155.457 288.222 155.622C286.76 156.22 285.266 156.737 283.746 157.171C283.677 157.191 283.604 157.211 283.532 157.231C282.881 157.413 282.227 157.578 281.568 157.727C280.417 157.993 279.254 158.211 278.081 158.38H278.073C277.932 158.401 277.794 158.421 277.653 158.441C277.641 158.441 277.629 158.445 277.613 158.445C277.613 158.449 277.613 158.449 277.609 158.445C277.455 158.465 277.297 158.485 277.144 158.505C277.133 158.508 277.122 158.51 277.112 158.509C276.966 158.53 276.817 158.546 276.671 158.562C276.514 158.578 276.356 158.594 276.198 158.61C276.077 158.622 275.956 158.634 275.835 158.647C275.824 158.65 275.813 158.651 275.803 158.651C275.693 158.659 275.584 158.671 275.475 158.679H275.459C275.366 158.687 275.269 158.695 275.176 158.703C274.049 158.792 272.918 158.832 271.77 158.832C270.53 158.832 269.298 158.784 268.081 158.679H268.069C267.807 158.655 267.548 158.63 267.29 158.606C267.221 158.598 267.156 158.594 267.088 158.586C267.075 158.586 267.059 158.582 267.047 158.582C267.027 158.578 267.007 158.578 266.982 158.574C266.972 158.574 266.961 158.573 266.95 158.57C266.861 158.562 266.772 158.55 266.679 158.542L266.376 158.505C266.275 158.493 266.174 158.477 266.073 158.465C266.049 158.461 266.029 158.461 266.005 158.457C265.932 158.449 265.859 158.437 265.787 158.425C265.75 158.421 265.714 158.417 265.681 158.413C265.609 158.401 265.54 158.392 265.467 158.38H265.463C263.246 158.062 261.058 157.57 258.918 156.909C258.805 156.872 258.692 156.84 258.579 156.804C258.575 156.804 258.571 156.8 258.566 156.8C258.534 156.788 258.498 156.779 258.465 156.767C258.162 156.671 257.863 156.57 257.565 156.465C257.152 156.328 256.744 156.179 256.336 156.025C256.227 155.981 256.118 155.941 256.009 155.896C255.787 155.812 255.569 155.723 255.35 155.634C254.979 155.485 254.607 155.328 254.239 155.166C253.896 155.013 253.556 154.86 253.217 154.699C253.209 154.695 253.197 154.695 253.189 154.687C253.112 154.65 253.035 154.614 252.963 154.578H252.959C251.098 153.686 249.303 152.664 247.589 151.517C247.039 151.15 246.498 150.771 245.965 150.38C245.536 150.061 245.116 149.739 244.696 149.408C242.623 147.762 240.704 145.932 238.963 143.94V143.936C238.838 143.799 238.72 143.658 238.599 143.516C238.579 143.496 238.563 143.476 238.547 143.46C238.47 143.367 238.397 143.279 238.32 143.19V143.186C238.219 143.069 238.118 142.948 238.021 142.827C237.997 142.799 237.977 142.774 237.957 142.75V142.746C237.876 142.649 237.799 142.553 237.718 142.452C237.678 142.403 237.642 142.355 237.601 142.307V142.303C237.363 142.004 237.133 141.706 236.902 141.399C236.842 141.319 236.781 141.234 236.716 141.149C236.426 140.758 236.143 140.359 235.868 139.96V139.956C235.763 139.806 235.662 139.653 235.557 139.504C235.456 139.351 235.355 139.198 235.254 139.044C235.153 138.883 235.048 138.726 234.947 138.564L234.935 138.54C234.834 138.387 234.733 138.226 234.636 138.068C234.559 137.939 234.482 137.814 234.405 137.689C234.357 137.605 234.304 137.52 234.256 137.431C234.237 137.404 234.219 137.376 234.203 137.347C234.09 137.149 233.977 136.951 233.864 136.754C233.731 136.524 233.601 136.29 233.472 136.056C233.424 135.959 233.371 135.863 233.319 135.766C233.298 135.734 233.282 135.701 233.266 135.669C233.205 135.556 233.145 135.439 233.088 135.322C233.028 135.209 232.967 135.092 232.906 134.976C232.85 134.863 232.789 134.746 232.733 134.629C232.688 134.54 232.648 134.451 232.603 134.363C232.6 134.355 232.596 134.349 232.591 134.342C232.571 134.298 232.551 134.258 232.535 134.217C232.53 134.211 232.526 134.204 232.523 134.197C232.478 134.109 232.438 134.016 232.393 133.927C232.337 133.81 232.284 133.689 232.228 133.572C232.191 133.492 232.151 133.407 232.115 133.322C232.062 133.205 232.005 133.088 231.957 132.967C231.9 132.846 231.848 132.725 231.795 132.6C231.78 132.57 231.767 132.539 231.755 132.508C231.727 132.451 231.706 132.395 231.682 132.338C231.618 132.189 231.553 132.036 231.492 131.887C231.42 131.717 231.351 131.544 231.286 131.374C231.222 131.217 231.161 131.056 231.1 130.895L231.076 130.838C230.135 128.363 229.421 125.808 228.943 123.205V123.201C228.673 121.714 228.481 120.215 228.365 118.708C228.361 118.624 228.353 118.543 228.349 118.462C228.276 117.442 228.244 116.418 228.244 115.389C228.244 114.934 228.252 114.482 228.264 114.031C228.546 104.585 231.921 95.4914 237.872 88.1416C238.001 87.9803 238.131 87.819 238.264 87.6577C238.397 87.4964 238.535 87.3391 238.668 87.1818C243.097 82.0049 248.683 77.9391 254.975 75.3122C261.268 72.6853 268.09 71.5708 274.894 72.0586C281.697 72.5463 288.29 74.6227 294.141 78.1202C299.993 81.6178 304.939 86.4387 308.582 92.1943C308.78 92.5088 308.978 92.8274 309.167 93.146C309.361 93.4686 309.547 93.7912 309.733 94.1178C313.393 100.612 315.311 107.939 315.301 115.389Z" fill="#2F1A60"/>
<path d="M273.5 86.9736C266.343 88.8067 259.008 89.8634 251.623 90.1252C250.506 90.1859 249.387 90.1783 248.271 90.1024C245.819 89.8966 243.718 89.1274 241.379 88.707C240.255 88.5055 239.002 88.3582 237.87 88.1404C238.131 87.8165 238.398 87.4965 238.669 87.1806C241.11 87.3864 243.589 88.0603 246.06 88.3734C250.259 88.9064 254.965 88.3116 258.149 86.8447C259.693 86.1329 260.876 85.2446 262.416 84.5295C262.625 84.4223 262.852 84.3529 263.085 84.3248C263.529 84.3115 263.967 84.425 264.349 84.652C266.931 85.9531 270.68 87.0105 274.16 86.4287C274.42 86.6313 273.927 86.862 273.5 86.9736Z" fill="white"/>
<path d="M288.9 91.5525C288.932 91.5467 288.964 91.5422 288.995 91.5367C288.862 91.454 288.736 91.3594 288.619 91.2539L288.9 91.5525Z" fill="white"/>
<path d="M309.732 94.1196C308.279 94.2355 306.818 94.3218 305.349 94.3785C304.233 94.4387 303.113 94.4311 301.997 94.3557C299.545 94.1488 297.445 93.3807 295.106 92.9603C292.962 92.5757 290.357 92.3905 288.996 91.5368C292.514 90.929 296.159 92.1662 299.786 92.6267C302.721 92.9868 305.695 92.8402 308.58 92.1933C308.981 92.8238 309.366 93.4659 309.732 94.1196Z" fill="white"/>
<path d="M266.863 134.399C274.084 134.399 279.937 128.427 279.937 121.06C279.937 113.693 274.084 107.72 266.863 107.72C259.643 107.72 253.789 113.693 253.789 121.06C253.789 128.427 259.643 134.399 266.863 134.399Z" fill="#FFB6B6"/>
<path d="M292.15 153.783C291.802 153.973 291.451 154.154 291.099 154.328C290.974 154.388 290.845 154.449 290.719 154.513C290.614 154.562 290.509 154.614 290.404 154.662C290.372 154.679 290.344 154.691 290.315 154.707C290.226 154.747 290.142 154.787 290.053 154.828C289.956 154.872 289.859 154.916 289.766 154.961C289.657 155.009 289.552 155.058 289.443 155.102C289.039 155.283 288.631 155.457 288.222 155.622C286.76 156.22 285.266 156.737 283.746 157.171C283.677 157.191 283.604 157.211 283.532 157.231C282.881 157.413 282.227 157.578 281.568 157.727C280.417 157.993 279.254 158.211 278.081 158.38H278.073C277.932 158.401 277.794 158.421 277.653 158.441C277.641 158.441 277.629 158.445 277.613 158.445C277.613 158.449 277.613 158.449 277.609 158.445C277.455 158.465 277.297 158.485 277.144 158.505C277.133 158.508 277.122 158.51 277.112 158.509C276.966 158.53 276.817 158.546 276.671 158.562C276.514 158.578 276.356 158.594 276.198 158.61C276.077 158.622 275.956 158.634 275.835 158.647C275.824 158.65 275.813 158.651 275.802 158.651C275.693 158.659 275.584 158.671 275.475 158.679H275.459C275.366 158.687 275.269 158.695 275.176 158.703C274.049 158.792 272.918 158.832 271.77 158.832C270.53 158.832 269.298 158.784 268.081 158.679H268.069C267.807 158.655 267.548 158.63 267.29 158.606C267.221 158.598 267.156 158.594 267.088 158.586C267.075 158.586 267.059 158.582 267.047 158.582C267.027 158.578 267.007 158.578 266.982 158.574C266.972 158.574 266.961 158.573 266.95 158.57C266.861 158.562 266.772 158.55 266.679 158.542L266.376 158.505C266.275 158.493 266.174 158.477 266.073 158.465C266.049 158.461 266.029 158.461 266.005 158.457C265.932 158.449 265.859 158.437 265.787 158.425C265.75 158.421 265.714 158.417 265.682 158.413C265.609 158.401 265.54 158.392 265.467 158.38H265.463C263.246 158.062 261.058 157.57 258.918 156.909C258.805 156.872 258.692 156.84 258.579 156.804C259.1 154.375 260.174 152.099 261.718 150.151C263.261 148.203 265.232 146.636 267.479 145.569C266.924 145.041 266.539 144.358 266.376 143.609C266.272 143.127 266.263 142.628 266.352 142.142C266.441 141.656 266.625 141.193 266.894 140.778C267.418 139.975 268.24 139.412 269.18 139.214L275.168 137.964C276.132 137.776 277.131 137.976 277.948 138.52C278.765 139.063 279.334 139.907 279.532 140.867C279.593 141.161 279.62 141.462 279.613 141.762C285.378 145.593 289.527 149.565 292.15 153.783Z" fill="#C24278"/>
<path d="M301.847 115.275C299.625 112.688 298.569 109.256 296.792 106.319C295.016 103.382 291.924 100.753 288.658 101.437C286.407 101.908 284.667 103.891 283.786 106.101C282.905 108.312 282.74 110.75 282.586 113.138C282.64 108.23 279.4 103.472 274.937 101.906C270.475 100.34 265.134 102.087 262.33 106.03C261.106 104.898 259.508 104.253 257.84 104.218C256.172 104.183 254.549 104.76 253.279 105.84C250.77 108.078 250.215 112.337 252.06 115.191C253.905 118.045 257.9 119.108 260.831 117.525L261.868 118.477C261.284 120.513 262.416 122.919 264.317 123.685C265.859 124.307 268.037 124.204 268.614 125.819C269.017 126.947 268.263 128.152 267.461 129.019C266.66 129.887 265.708 130.782 265.612 131.982C265.466 133.793 267.341 135.062 269.045 135.444C273.155 136.365 277.715 134.465 280.083 130.846C280.129 130.776 280.179 130.706 280.232 130.636C281.561 128.94 282.53 126.991 283.078 124.909C283.627 122.826 283.745 120.654 283.424 118.525C283.291 117.688 283.425 117.066 284.003 116.868C286.501 116.011 293.5 117.809 295.618 119.433C297.736 121.058 299.432 123.208 301.472 124.937C303.512 126.666 306.112 128 308.703 127.529C310.778 127.152 312.543 125.649 313.73 123.835C314.917 122.022 315.6 119.908 316.212 117.808C311.624 120.453 305.345 119.346 301.847 115.275Z" fill="#2F2E41"/>
<path d="M33.4642 88.3714C33.4642 89.3513 33.4965 90.3312 33.5652 91.303C33.6379 92.4644 33.7631 93.6177 33.9328 94.763C34.5031 98.6191 35.5931 102.381 37.1732 105.945C37.254 106.123 37.3348 106.3 37.4156 106.477L37.5368 106.744C37.5772 106.832 37.6216 106.921 37.662 107.006C37.7186 107.123 37.7711 107.236 37.8277 107.349C37.8964 107.49 37.9651 107.631 38.0378 107.772C38.0459 107.788 38.054 107.808 38.0661 107.828C38.1267 107.949 38.1832 108.066 38.2479 108.187C38.2598 108.214 38.2733 108.239 38.2883 108.264C38.357 108.401 38.4297 108.542 38.5024 108.679C38.5832 108.824 38.66 108.974 38.7408 109.119C38.9347 109.478 39.1368 109.833 39.3428 110.187C39.4034 110.292 39.464 110.397 39.5287 110.502C39.5852 110.599 39.6418 110.696 39.7024 110.792C39.7428 110.857 39.7832 110.925 39.8236 110.99C39.8883 111.099 39.9529 111.204 40.0216 111.312C40.1711 111.55 40.3246 111.788 40.4741 112.026H40.4781C40.5468 112.135 40.6196 112.244 40.6923 112.349V112.353C40.9064 112.675 41.1286 112.998 41.3509 113.317C41.3514 113.317 41.3519 113.317 41.3524 113.317C41.3529 113.317 41.3534 113.317 41.3537 113.318C41.3541 113.318 41.3544 113.319 41.3546 113.319C41.3548 113.32 41.3549 113.32 41.3549 113.321C41.5327 113.579 41.7185 113.829 41.9003 114.079V114.083C42.0215 114.24 42.1387 114.401 42.2599 114.559C42.3569 114.688 42.4579 114.821 42.5589 114.95C42.5791 114.978 42.6034 115.002 42.6236 115.03V115.035C42.6518 115.071 42.6801 115.103 42.7084 115.139C43.1367 115.688 43.5784 116.224 44.0336 116.748L44.1064 116.833C44.1306 116.861 44.1589 116.889 44.1831 116.922C44.2235 116.966 44.2599 117.01 44.3003 117.055C44.3366 117.099 44.3771 117.144 44.4175 117.188C46.7904 119.856 49.481 122.224 52.4294 124.241C52.8213 124.511 53.2213 124.773 53.6213 125.027C53.7223 125.092 53.8233 125.156 53.9243 125.217C53.9526 125.237 53.9849 125.257 54.0132 125.277C54.0698 125.309 54.1223 125.342 54.1789 125.378C54.2314 125.41 54.2839 125.443 54.3405 125.475C54.5546 125.608 54.7728 125.737 54.991 125.866C55.0435 125.898 55.1001 125.93 55.1566 125.963C55.2092 125.991 55.2657 126.023 55.3223 126.055C55.3223 126.06 55.3223 126.06 55.3263 126.06H55.3304V126.064H55.3344C55.6051 126.221 55.8799 126.374 56.1586 126.523C56.3081 126.604 56.4617 126.689 56.6152 126.765C56.9627 126.955 57.3142 127.136 57.6657 127.31C57.7909 127.37 57.9202 127.431 58.0455 127.495C58.1505 127.543 58.2556 127.596 58.3606 127.644C58.3929 127.66 58.4212 127.673 58.4495 127.689C58.5384 127.729 58.6232 127.769 58.7121 127.81C58.8091 127.854 58.906 127.898 58.999 127.943C59.1081 127.991 59.2131 128.039 59.3222 128.084C59.7262 128.265 60.1343 128.439 60.5424 128.604C62.0048 129.202 63.4993 129.719 65.019 130.153C65.0877 130.173 65.1605 130.193 65.2332 130.213C65.8837 130.394 66.5382 130.56 67.1968 130.709C68.3483 130.975 69.5106 131.193 70.6836 131.362H70.6917C70.8331 131.382 70.9705 131.403 71.1119 131.423C71.124 131.423 71.1361 131.427 71.1523 131.427C71.1523 131.431 71.1523 131.431 71.1563 131.427C71.3098 131.447 71.4674 131.467 71.6209 131.487C71.6314 131.49 71.6424 131.492 71.6533 131.491C71.7987 131.511 71.9482 131.528 72.0937 131.544C72.2512 131.56 72.4088 131.576 72.5664 131.592C72.6876 131.604 72.8088 131.616 72.93 131.628C72.9404 131.632 72.9514 131.633 72.9623 131.632C73.0714 131.641 73.1805 131.653 73.2896 131.661H73.3058C73.3987 131.669 73.4957 131.677 73.5886 131.685C74.7158 131.774 75.8471 131.814 76.9946 131.814C78.235 131.814 79.4672 131.766 80.6834 131.661H80.6955C80.9581 131.636 81.2167 131.612 81.4753 131.588C81.544 131.58 81.6086 131.576 81.6773 131.568C81.6894 131.568 81.7056 131.564 81.7177 131.564C81.7379 131.56 81.7581 131.56 81.7824 131.556C81.7933 131.556 81.8042 131.555 81.8147 131.552C81.9036 131.544 81.9924 131.532 82.0854 131.524L82.3884 131.487C82.4894 131.475 82.5904 131.459 82.6914 131.447C82.7157 131.443 82.7359 131.443 82.7601 131.439C82.8328 131.431 82.9056 131.419 82.9783 131.407C83.0147 131.403 83.051 131.399 83.0833 131.395C83.1561 131.382 83.2247 131.374 83.2975 131.362H83.3015C85.5186 131.044 87.7071 130.552 89.8468 129.89C89.96 129.854 90.0731 129.822 90.1862 129.786C90.1903 129.786 90.1943 129.782 90.1983 129.782C90.2307 129.769 90.267 129.761 90.2994 129.749C90.6024 129.653 90.9014 129.552 91.2003 129.447C91.6124 129.31 92.0205 129.161 92.4286 129.007C92.5377 128.963 92.6468 128.923 92.7559 128.878C92.9781 128.794 93.1963 128.705 93.4144 128.616C93.7861 128.467 94.1579 128.31 94.5255 128.148C94.8689 127.995 95.2083 127.842 95.5477 127.681C95.5558 127.677 95.5679 127.677 95.576 127.668C95.6528 127.632 95.7295 127.596 95.8023 127.56H95.8063C97.667 126.668 99.4614 125.646 101.176 124.499C101.725 124.132 102.267 123.753 102.8 123.362C103.228 123.043 103.649 122.721 104.069 122.39C106.142 120.744 108.061 118.914 109.802 116.922V116.918C109.927 116.781 110.044 116.639 110.166 116.498C110.186 116.478 110.202 116.458 110.218 116.442C110.295 116.349 110.368 116.26 110.444 116.172V116.168C110.545 116.051 110.646 115.93 110.743 115.809C110.768 115.781 110.788 115.756 110.808 115.732V115.728C110.889 115.631 110.966 115.535 111.046 115.434C111.087 115.385 111.123 115.337 111.164 115.289V115.285C111.402 114.986 111.632 114.688 111.863 114.381C111.923 114.301 111.984 114.216 112.048 114.131C112.339 113.74 112.622 113.341 112.897 112.942V112.938C113.002 112.788 113.103 112.635 113.208 112.486C113.309 112.333 113.41 112.18 113.511 112.026C113.612 111.865 113.717 111.708 113.818 111.546L113.83 111.522C113.931 111.369 114.032 111.208 114.129 111.05C114.206 110.921 114.283 110.796 114.359 110.671C114.408 110.587 114.46 110.502 114.509 110.413C114.528 110.386 114.545 110.358 114.561 110.329C114.675 110.131 114.788 109.933 114.901 109.736C115.034 109.506 115.163 109.272 115.293 109.038C115.341 108.941 115.394 108.845 115.446 108.748C115.466 108.716 115.483 108.683 115.499 108.651C115.559 108.538 115.62 108.421 115.677 108.304C115.737 108.191 115.798 108.074 115.858 107.957C115.915 107.845 115.976 107.728 116.032 107.611C116.077 107.522 116.117 107.433 116.161 107.345C116.165 107.337 116.169 107.33 116.174 107.324C116.194 107.28 116.214 107.24 116.23 107.199C116.235 107.193 116.239 107.186 116.242 107.179C116.287 107.09 116.327 106.998 116.372 106.909C116.428 106.792 116.481 106.671 116.537 106.554C116.574 106.473 116.614 106.389 116.65 106.304C116.703 106.187 116.759 106.07 116.808 105.949C116.864 105.828 116.917 105.707 116.97 105.582C116.985 105.552 116.998 105.521 117.01 105.49C117.038 105.433 117.058 105.377 117.083 105.32C117.147 105.171 117.212 105.018 117.273 104.869C117.345 104.699 117.414 104.526 117.479 104.356C117.543 104.199 117.604 104.038 117.664 103.877L117.689 103.82C118.63 101.345 119.344 98.7903 119.822 96.1865V96.1824C120.091 94.6959 120.284 93.1965 120.4 91.6902C120.404 91.6055 120.412 91.5248 120.416 91.4442C120.489 90.424 120.521 89.3997 120.521 88.3714C120.521 87.9157 120.513 87.4641 120.501 87.0124C120.219 77.5667 116.844 68.4734 110.893 61.1235C110.764 60.9622 110.634 60.8009 110.501 60.6396C110.368 60.4783 110.23 60.321 110.097 60.1638C105.668 54.9868 100.082 50.9211 93.7895 48.2942C87.4971 45.6673 80.6744 44.5528 73.8713 45.0405C67.0681 45.5283 60.475 47.6046 54.6234 51.1022C48.7719 54.5997 43.8255 59.4206 40.1832 65.1762C39.9852 65.4907 39.7873 65.8093 39.5974 66.1279C39.4034 66.4505 39.2176 66.7731 39.0317 67.0997C35.3715 73.5934 33.4537 80.9206 33.4642 88.3714Z" fill="#2F1A60"/>
<path d="M75.2645 59.9556C82.4222 61.7887 89.7572 62.8453 97.1421 63.1071C98.2588 63.1678 99.3782 63.1602 100.494 63.0844C102.946 62.8785 105.046 62.1093 107.386 61.689C108.51 61.4875 109.763 61.3401 110.895 61.1224C110.633 60.7984 110.367 60.4785 110.096 60.1625C107.655 60.3683 105.176 61.0422 102.705 61.3553C98.5054 61.8883 93.7999 61.2935 90.6162 59.8266C89.0716 59.1149 87.8885 58.2265 86.3493 57.5115C86.1399 57.4042 85.9132 57.3349 85.6795 57.3067C85.2357 57.2934 84.7974 57.4069 84.416 57.6339C81.8337 58.935 78.0845 59.9924 74.6045 59.4106C74.3451 59.6132 74.8379 59.844 75.2645 59.9556Z" fill="white"/>
<path d="M59.865 64.5345C59.8332 64.5287 59.8013 64.5241 59.7695 64.5186C59.9032 64.4359 60.0291 64.3413 60.1456 64.2358L59.865 64.5345Z" fill="white"/>
<path d="M39.0325 67.1015C40.4859 67.2174 41.9469 67.3037 43.4156 67.3604C44.5323 67.4206 45.6517 67.413 46.7675 67.3377C49.2196 67.1308 51.32 66.3626 53.6592 65.9423C55.803 65.5577 58.4081 65.3724 59.7693 64.5187C56.2513 63.911 52.6063 65.1482 48.9786 65.6086C46.0443 65.9687 43.0697 65.8221 40.1852 65.1752C39.7836 65.8058 39.3994 66.4479 39.0325 67.1015Z" fill="white"/>
<path d="M56.6152 126.765C56.9627 126.955 57.3142 127.136 57.6657 127.31C57.791 127.37 57.9203 127.431 58.0455 127.495C58.1506 127.543 58.2556 127.596 58.3607 127.644C58.393 127.66 58.4213 127.673 58.4495 127.689C58.5384 127.729 58.6233 127.769 58.7122 127.81C58.8091 127.854 58.9061 127.898 58.999 127.943C59.1081 127.991 59.2132 128.039 59.3223 128.084C59.7263 128.265 60.1344 128.439 60.5424 128.604C62.0048 129.202 63.4994 129.719 65.0191 130.153C65.0878 130.173 65.1605 130.193 65.2332 130.213C65.8838 130.395 66.5383 130.56 67.1969 130.709C68.3483 130.975 69.5106 131.193 70.6837 131.362H70.6917C70.8331 131.382 70.9705 131.403 71.1119 131.423C71.1241 131.423 71.1362 131.427 71.1523 131.427C71.1523 131.431 71.1523 131.431 71.1564 131.427C71.3099 131.447 71.4675 131.467 71.621 131.487C71.6315 131.49 71.6424 131.492 71.6533 131.491C71.7988 131.512 71.9483 131.528 72.0937 131.544C72.2513 131.56 72.4089 131.576 72.5664 131.592C72.6877 131.604 72.8089 131.616 72.9301 131.628C72.9404 131.632 72.9515 131.633 72.9624 131.632C73.0715 131.641 73.1806 131.653 73.2897 131.661H73.3058C73.3987 131.669 73.4957 131.677 73.5886 131.685C74.7159 131.774 75.8472 131.814 76.9946 131.814C78.235 131.814 79.4673 131.766 80.6834 131.661H80.6956C80.9582 131.637 81.2168 131.612 81.4753 131.588C81.544 131.58 81.6087 131.576 81.6774 131.568C81.6895 131.568 81.7056 131.564 81.7178 131.564C81.738 131.56 81.7582 131.56 81.7824 131.556C81.7933 131.556 81.8043 131.555 81.8147 131.552C81.9036 131.544 81.9925 131.532 82.0854 131.524L82.3885 131.487C82.4895 131.475 82.5905 131.459 82.6915 131.447C82.7157 131.443 82.7359 131.443 82.7602 131.439C82.8329 131.431 82.9056 131.419 82.9783 131.407C83.0147 131.403 83.0511 131.399 83.0834 131.395C83.1561 131.382 83.2248 131.374 83.2975 131.362H83.3016C85.5186 131.044 87.7072 130.552 89.8469 129.89C89.96 129.854 90.0731 129.822 90.1863 129.786C89.6646 127.357 88.5906 125.081 87.0473 123.133C85.5039 121.185 83.5325 119.617 81.2855 118.551C81.8413 118.022 82.2255 117.34 82.3885 116.591C82.4934 116.109 82.5017 115.61 82.4129 115.124C82.3242 114.638 82.1401 114.175 81.8713 113.76C81.347 112.957 80.5244 112.394 79.5845 112.196L73.5967 110.946C72.6328 110.758 71.6337 110.958 70.8166 111.501C69.9995 112.045 69.4304 112.889 69.2332 113.849C69.1721 114.143 69.145 114.444 69.1524 114.744C63.3868 118.575 59.2374 122.547 56.6152 126.765Z" fill="#C24278"/>
<path d="M80.303 106.912C88.3524 106.912 94.8777 100.399 94.8777 92.3649C94.8777 84.331 88.3524 77.8182 80.303 77.8182C72.2536 77.8182 65.7283 84.331 65.7283 92.3649C65.7283 100.399 72.2536 106.912 80.303 106.912Z" fill="#9E616A"/>
<path d="M78.2318 106.134C74.583 107.118 70.5604 105.81 67.7129 103.329C64.8653 100.849 63.0841 97.3342 62.0578 93.7038C61.3061 91.0449 60.9497 88.0934 62.1359 85.5972C63.3221 83.101 66.5144 81.4169 68.9774 82.6778C67.458 80.911 68.2171 77.9889 69.9916 76.4775C71.766 74.9661 74.2027 74.5328 76.5234 74.2959C79.8914 73.9521 83.3703 73.9136 86.5752 75.0027C89.7801 76.0917 92.6921 78.4726 93.6951 81.6999C94.7196 82.176 95.8732 82.2995 96.9755 82.0511C98.0778 81.8027 99.0664 81.1965 99.7866 80.3273C99.9722 81.3255 99.8231 82.357 99.3623 83.2622C98.9014 84.1674 98.1546 84.8957 97.2372 85.3345L102.148 83.7456C102.992 85.5297 101.512 87.7378 99.6201 88.3091C97.7278 88.8805 95.6851 88.256 93.8894 87.4306C92.0937 86.6051 90.3535 85.5616 88.403 85.2397C86.4525 84.9178 84.1613 85.5433 83.2591 87.299C82.7865 88.2186 82.7619 89.2956 82.4875 90.2922C82.2132 91.2887 81.5182 92.322 80.4859 92.4035C79.8337 92.455 79.1952 92.1083 78.5449 92.1792C78.1458 92.2577 77.7782 92.4506 77.4873 92.7343C77.1963 93.018 76.9946 93.3803 76.9068 93.7767C76.7448 94.5722 76.7429 95.3919 76.9009 96.1881L78.1483 105.704L78.2318 106.134Z" fill="#2F2E41"/>
<path d="M142.913 139V135.64L140.363 131.55H141.693L143.733 134.86H143.263L145.293 131.55H146.623L144.083 135.64V139H142.913ZM148.314 139.12C147.948 139.12 147.624 139.057 147.344 138.93C147.071 138.797 146.858 138.617 146.704 138.39C146.551 138.157 146.474 137.883 146.474 137.57C146.474 137.277 146.538 137.013 146.664 136.78C146.798 136.547 147.001 136.35 147.274 136.19C147.548 136.03 147.891 135.917 148.304 135.85L150.184 135.54V136.43L148.524 136.72C148.224 136.773 148.004 136.87 147.864 137.01C147.724 137.143 147.654 137.317 147.654 137.53C147.654 137.737 147.731 137.907 147.884 138.04C148.044 138.167 148.248 138.23 148.494 138.23C148.801 138.23 149.068 138.163 149.294 138.03C149.528 137.897 149.708 137.72 149.834 137.5C149.961 137.273 150.024 137.023 150.024 136.75V135.36C150.024 135.093 149.924 134.877 149.724 134.71C149.531 134.537 149.271 134.45 148.944 134.45C148.644 134.45 148.381 134.53 148.154 134.69C147.934 134.843 147.771 135.043 147.664 135.29L146.724 134.82C146.824 134.553 146.988 134.32 147.214 134.12C147.441 133.913 147.704 133.753 148.004 133.64C148.311 133.527 148.634 133.47 148.974 133.47C149.401 133.47 149.778 133.55 150.104 133.71C150.438 133.87 150.694 134.093 150.874 134.38C151.061 134.66 151.154 134.987 151.154 135.36V139H150.074V138.02L150.304 138.05C150.178 138.27 150.014 138.46 149.814 138.62C149.621 138.78 149.398 138.903 149.144 138.99C148.898 139.077 148.621 139.12 148.314 139.12ZM152.955 141.21C152.822 141.21 152.689 141.197 152.555 141.17C152.429 141.15 152.312 141.117 152.205 141.07V140.1C152.285 140.12 152.382 140.137 152.495 140.15C152.609 140.17 152.719 140.18 152.825 140.18C153.139 140.18 153.369 140.11 153.515 139.97C153.669 139.837 153.805 139.627 153.925 139.34L154.285 138.52L154.265 139.47L151.925 133.59H153.135L154.865 138.1H154.455L156.175 133.59H157.395L155.005 139.59C154.879 139.91 154.719 140.19 154.525 140.43C154.339 140.677 154.115 140.867 153.855 141C153.602 141.14 153.302 141.21 152.955 141.21ZM159.593 139.12C159.227 139.12 158.903 139.057 158.623 138.93C158.35 138.797 158.137 138.617 157.983 138.39C157.83 138.157 157.753 137.883 157.753 137.57C157.753 137.277 157.817 137.013 157.943 136.78C158.077 136.547 158.28 136.35 158.553 136.19C158.827 136.03 159.17 135.917 159.583 135.85L161.463 135.54V136.43L159.803 136.72C159.503 136.773 159.283 136.87 159.143 137.01C159.003 137.143 158.933 137.317 158.933 137.53C158.933 137.737 159.01 137.907 159.163 138.04C159.323 138.167 159.527 138.23 159.773 138.23C160.08 138.23 160.347 138.163 160.573 138.03C160.807 137.897 160.987 137.72 161.113 137.5C161.24 137.273 161.303 137.023 161.303 136.75V135.36C161.303 135.093 161.203 134.877 161.003 134.71C160.81 134.537 160.55 134.45 160.223 134.45C159.923 134.45 159.66 134.53 159.433 134.69C159.213 134.843 159.05 135.043 158.943 135.29L158.003 134.82C158.103 134.553 158.267 134.32 158.493 134.12C158.72 133.913 158.983 133.753 159.283 133.64C159.59 133.527 159.913 133.47 160.253 133.47C160.68 133.47 161.057 133.55 161.383 133.71C161.717 133.87 161.973 134.093 162.153 134.38C162.34 134.66 162.433 134.987 162.433 135.36V139H161.353V138.02L161.583 138.05C161.457 138.27 161.293 138.46 161.093 138.62C160.9 138.78 160.677 138.903 160.423 138.99C160.177 139.077 159.9 139.12 159.593 139.12ZM167.123 139.12C166.756 139.12 166.433 139.057 166.153 138.93C165.879 138.797 165.666 138.617 165.513 138.39C165.359 138.157 165.283 137.883 165.283 137.57C165.283 137.277 165.346 137.013 165.473 136.78C165.606 136.547 165.809 136.35 166.083 136.19C166.356 136.03 166.699 135.917 167.113 135.85L168.993 135.54V136.43L167.333 136.72C167.033 136.773 166.813 136.87 166.673 137.01C166.533 137.143 166.463 137.317 166.463 137.53C166.463 137.737 166.539 137.907 166.693 138.04C166.853 138.167 167.056 138.23 167.303 138.23C167.609 138.23 167.876 138.163 168.103 138.03C168.336 137.897 168.516 137.72 168.643 137.5C168.769 137.273 168.833 137.023 168.833 136.75V135.36C168.833 135.093 168.733 134.877 168.533 134.71C168.339 134.537 168.079 134.45 167.753 134.45C167.453 134.45 167.189 134.53 166.963 134.69C166.743 134.843 166.579 135.043 166.473 135.29L165.533 134.82C165.633 134.553 165.796 134.32 166.023 134.12C166.249 133.913 166.513 133.753 166.813 133.64C167.119 133.527 167.443 133.47 167.783 133.47C168.209 133.47 168.586 133.55 168.913 133.71C169.246 133.87 169.503 134.093 169.683 134.38C169.869 134.66 169.963 134.987 169.963 135.36V139H168.883V138.02L169.113 138.05C168.986 138.27 168.823 138.46 168.623 138.62C168.429 138.78 168.206 138.903 167.953 138.99C167.706 139.077 167.429 139.12 167.123 139.12ZM171.284 139V133.59H172.414V139H171.284ZM171.284 132.85V131.55H172.414V132.85H171.284ZM173.735 139V131.43H174.865V136.5L174.425 136.39L177.135 133.59H178.545L176.505 135.76L178.635 139H177.335L175.435 136.13L176.105 136.04L174.505 137.74L174.865 136.99V139H173.735ZM179.409 139V133.59H180.539V139H179.409ZM179.409 132.85V131.55H180.539V132.85H179.409ZM183.16 136.78V136.61C183.16 136.317 183.207 136.057 183.3 135.83C183.4 135.603 183.524 135.4 183.67 135.22C183.824 135.033 183.98 134.863 184.14 134.71C184.367 134.497 184.567 134.29 184.74 134.09C184.92 133.89 185.01 133.657 185.01 133.39C185.01 133.223 184.97 133.073 184.89 132.94C184.81 132.8 184.69 132.69 184.53 132.61C184.377 132.523 184.187 132.48 183.96 132.48C183.647 132.48 183.377 132.577 183.15 132.77C182.93 132.957 182.79 133.21 182.73 133.53L181.68 133.28C181.74 132.913 181.874 132.593 182.08 132.32C182.294 132.04 182.56 131.823 182.88 131.67C183.207 131.51 183.574 131.43 183.98 131.43C184.44 131.43 184.834 131.523 185.16 131.71C185.494 131.89 185.747 132.127 185.92 132.42C186.094 132.713 186.18 133.03 186.18 133.37C186.18 133.643 186.124 133.89 186.01 134.11C185.904 134.323 185.764 134.52 185.59 134.7C185.424 134.88 185.25 135.057 185.07 135.23C184.857 135.437 184.667 135.653 184.5 135.88C184.34 136.1 184.26 136.36 184.26 136.66V136.78H183.16ZM183.16 139V137.7H184.31V139H183.16Z" fill="black"/>
</g>
<defs>
<clipPath id="clip0_1_383">
<rect width="327" height="254" fill="white"/>
</clipPath>
</defs>
</svg>
