<svg width="267" height="229" viewBox="0 0 267 229" fill="none" xmlns="http://www.w3.org/2000/svg">
<g clip-path="url(#clip0_1_443)">
<path d="M21.9717 54.6635H146.268V95.5038H141.559V106.185L130.888 95.5038H21.9717V54.6635Z" fill="white"/>
<path d="M142.815 58.6405H25.4243V91.3129H142.815V58.6405Z" fill="white"/>
<path d="M124.296 109.327H0V150.167H4.70821V160.849L15.38 150.167H124.296V109.327Z" fill="white"/>
<path d="M120.843 113.304H3.45264V145.976H120.843V113.304Z" fill="white"/>
<path d="M124.296 0H0V40.8404H4.70821V51.5219L15.38 40.8404H124.296V0Z" fill="white"/>
<path d="M120.843 3.97717H3.45264V36.6495H120.843V3.97717Z" fill="white"/>
<path d="M218.377 223.782L213.262 223.782L210.828 204.032L218.378 204.032L218.377 223.782Z" fill="#FFB8B8"/>
<path d="M219.682 228.745L203.187 228.745V228.536C203.187 226.832 203.863 225.197 205.067 223.992C206.271 222.787 207.904 222.11 209.607 222.11H209.607L219.682 222.11L219.682 228.745Z" fill="#2F2E41"/>
<path d="M211.184 208.933L206.424 210.808L196.933 193.322L203.959 190.555L211.184 208.933Z" fill="#FFB8B8"/>
<path d="M214.214 213.073L198.865 219.119L198.788 218.924C198.165 217.338 198.196 215.569 198.876 214.007C199.555 212.444 200.827 211.215 202.412 210.591L202.412 210.591L211.787 206.899L214.214 213.073Z" fill="#2F2E41"/>
<path d="M209.625 217.365L211.254 157.446L204.006 183.133L209.243 200.956L200.554 208.348L191.697 180.064L191.681 180.014L200.485 133.442L226.521 132.181L226.707 132.172L226.737 132.356C226.762 132.511 229.222 147.974 227.153 159.157C225.092 170.297 220.112 217.554 220.062 218.03L220.04 218.233L209.625 217.365Z" fill="#2F1A60"/>
<path d="M201.833 137.177L201.686 137.118L206.518 92.7539L206.659 92.7186C211.569 91.4897 218.185 91.5972 221.692 91.7703C222.224 91.7978 222.73 92.0077 223.125 92.3647C223.52 92.7217 223.78 93.204 223.861 93.7305L229.67 132.023L229.622 132.092C225.606 137.833 219.47 139.394 213.983 139.394C209.838 139.341 205.731 138.592 201.833 137.177Z" fill="#C24278"/>
<path d="M224.843 150.139L224.668 150.123L221.582 91.6556L230.959 93.7754C231.984 94.0103 232.884 94.6181 233.486 95.4806C234.087 96.343 234.347 97.3986 234.214 98.442L232.998 108.161L233.415 125.258C233.705 126.308 238.453 143.706 235.815 148.239C235.682 148.496 235.497 148.722 235.273 148.905C235.048 149.087 234.788 149.221 234.51 149.298C231.977 149.907 229.381 150.211 226.776 150.204C225.592 150.204 224.861 150.14 224.843 150.139Z" fill="#2F1A60"/>
<path d="M197.227 150.535C196.771 150.331 196.368 150.026 196.046 149.643C195.724 149.261 195.493 148.81 195.369 148.326C194.758 145.864 196.821 142.767 197.119 142.337L199.614 118.613L195.903 96.6974C195.839 96.3225 195.853 95.9386 195.943 95.5693C196.033 95.1999 196.197 94.8527 196.426 94.5491C196.654 94.2455 196.942 93.9918 197.272 93.8036C197.602 93.6154 197.967 93.4966 198.345 93.4544L208.916 92.2745L208.379 114.82C212.917 130.169 203.036 152.301 202.935 152.523L202.88 152.645H202.745C202.692 152.645 201.396 152.621 197.227 150.535Z" fill="#2F1A60"/>
<path d="M218.949 86.5149C223.916 83.7975 225.741 77.5647 223.026 72.5936C220.311 67.6226 214.084 65.7956 209.117 68.5131C204.151 71.2305 202.325 77.4633 205.04 82.4343C207.756 87.4054 213.983 89.2323 218.949 86.5149Z" fill="#FFB8B8"/>
<path d="M225.769 139.558C225.677 138.993 225.709 138.414 225.865 137.863C226.02 137.312 226.294 136.802 226.668 136.368C227.042 135.935 227.506 135.589 228.028 135.354C228.549 135.119 229.116 135.002 229.688 135.011L233.236 126.796L238.749 127.736L233.577 139.267C233.499 140.227 233.072 141.126 232.376 141.793C231.68 142.459 230.764 142.847 229.802 142.883C228.84 142.919 227.897 142.6 227.154 141.987C226.411 141.374 225.918 140.51 225.769 139.558Z" fill="#FFB8B8"/>
<path d="M230.764 132.03L233.693 114.438L228.689 106.09L229.964 94.1816L230.248 94.1107C231.197 93.8761 232.198 93.9752 233.082 94.3915C233.967 94.8077 234.681 95.5157 235.106 96.3967L243.28 113.471L243.313 113.539L237.376 136.883L230.764 132.03Z" fill="#2F1A60"/>
<path d="M220.751 85.7859C220.985 85.8538 221.968 84.7419 223.046 83.409C224.177 82.0197 224.993 80.401 225.439 78.6649C225.884 76.9288 225.947 75.1166 225.624 73.3537C225.609 73.2743 225.594 73.199 225.579 73.1282C225.222 71.4292 223.603 69.8642 221.906 70.2241C222.034 68.719 221.021 67.3014 219.738 66.5069C218.454 65.7124 216.933 65.4179 215.45 65.1378C213.758 64.8182 212.045 64.4972 210.326 64.6062C208.669 64.7083 207.064 65.2216 205.654 66.0999C203.943 67.2269 202.624 68.8595 201.882 70.7709C201.139 72.6823 201.01 74.7777 201.512 76.766C203.671 74.3117 206.23 71.6421 209.929 72.7058C210.766 72.9553 211.548 73.3644 212.23 73.9105C214.478 75.6776 215.608 78.2799 216.702 80.8228C217.248 79.4312 219.273 78.9077 220.424 79.8607C221.163 80.4724 221.467 81.4893 221.439 82.4486C221.362 83.4067 221.141 84.3476 220.783 85.2395" fill="#2F2E41"/>
<path d="M219.429 124.109H218.947V122.21C218.946 121.647 218.723 121.107 218.325 120.709C217.927 120.311 217.388 120.087 216.826 120.087H210.781C210.219 120.087 209.68 120.311 209.282 120.709C208.884 121.107 208.661 121.647 208.66 122.21V135.338C208.661 135.901 208.884 136.441 209.282 136.839C209.68 137.237 210.219 137.461 210.781 137.461H216.826C217.388 137.461 217.927 137.237 218.325 136.839C218.723 136.441 218.946 135.901 218.947 135.338V126.361H219.429V124.109Z" fill="#2F2E41"/>
<path d="M213.964 127.648C214.675 127.648 215.25 127.072 215.25 126.361C215.25 125.65 214.675 125.074 213.964 125.074C213.254 125.074 212.678 125.65 212.678 126.361C212.678 127.072 213.254 127.648 213.964 127.648Z" fill="white"/>
<path d="M215.014 131.489C214.769 130.972 214.414 130.514 213.974 130.149C213.533 129.783 213.018 129.519 212.465 129.374C211.911 129.23 211.333 129.208 210.77 129.312C210.207 129.415 209.674 129.641 209.208 129.973L201.628 125.225L197.623 129.132L208.421 135.686C209.03 136.432 209.891 136.93 210.842 137.083C211.793 137.237 212.767 137.036 213.579 136.518C214.392 136.001 214.987 135.203 215.251 134.277C215.516 133.35 215.431 132.358 215.014 131.489Z" fill="#FFB8B8"/>
<path d="M187.904 122.445L194.839 96.2205C195.022 95.5429 195.451 94.9583 196.043 94.5819C196.635 94.2055 197.346 94.0647 198.036 94.1871L200.421 94.6209L202.962 108.608L197.794 120.398L207.142 126.016L205.828 136.541L187.904 122.445Z" fill="#2F1A60"/>
<path d="M266.678 229H144.199C144.114 229 144.032 228.966 143.972 228.906C143.912 228.845 143.878 228.764 143.878 228.678C143.878 228.593 143.912 228.511 143.972 228.451C144.032 228.39 144.114 228.356 144.199 228.356H266.678C266.764 228.356 266.845 228.39 266.906 228.451C266.966 228.511 267 228.593 267 228.678C267 228.764 266.966 228.845 266.906 228.906C266.845 228.966 266.764 229 266.678 229Z" fill="#3F3D56"/>
<path d="M31.11 72L33.73 64.55H35.19L37.81 72H36.55L35.98 70.33H32.95L32.37 72H31.11ZM33.29 69.28H35.62L34.3 65.38H34.63L33.29 69.28ZM40.8885 72.12C40.3685 72.12 39.9018 71.9967 39.4885 71.75C39.0818 71.4967 38.7585 71.1567 38.5185 70.73C38.2852 70.3033 38.1685 69.8233 38.1685 69.29C38.1685 68.7567 38.2885 68.2767 38.5285 67.85C38.7685 67.4233 39.0918 67.0867 39.4985 66.84C39.9052 66.5933 40.3652 66.47 40.8785 66.47C41.3118 66.47 41.6952 66.5567 42.0285 66.73C42.3618 66.9033 42.6252 67.1433 42.8185 67.45L42.6485 67.71V64.43H43.7685V72H42.6985V70.9L42.8285 71.11C42.6418 71.4367 42.3752 71.6867 42.0285 71.86C41.6818 72.0333 41.3018 72.12 40.8885 72.12ZM40.9985 71.07C41.3118 71.07 41.5918 70.9933 41.8385 70.84C42.0918 70.6867 42.2885 70.4767 42.4285 70.21C42.5752 69.9367 42.6485 69.63 42.6485 69.29C42.6485 68.95 42.5752 68.6467 42.4285 68.38C42.2885 68.1133 42.0918 67.9033 41.8385 67.75C41.5918 67.5967 41.3118 67.52 40.9985 67.52C40.6852 67.52 40.4018 67.5967 40.1485 67.75C39.8952 67.9033 39.6985 68.1133 39.5585 68.38C39.4185 68.6467 39.3485 68.95 39.3485 69.29C39.3485 69.63 39.4185 69.9367 39.5585 70.21C39.6985 70.4767 39.8918 70.6867 40.1385 70.84C40.3918 70.9933 40.6785 71.07 40.9985 71.07ZM45.0877 72V66.59H46.2177V72H45.0877ZM45.0877 65.85V64.55H46.2177V65.85H45.0877ZM45.0277 74.15V72.9H46.2777V74.15H45.0277ZM49.287 72V66.59H50.367V67.76L50.227 67.58C50.3403 67.2133 50.547 66.9367 50.847 66.75C51.147 66.5633 51.4903 66.47 51.877 66.47C52.3103 66.47 52.6936 66.5867 53.027 66.82C53.367 67.0467 53.5936 67.35 53.707 67.73L53.387 67.76C53.547 67.3267 53.7903 67.0033 54.117 66.79C54.4503 66.5767 54.8303 66.47 55.257 66.47C55.6303 66.47 55.967 66.5567 56.267 66.73C56.5736 66.9033 56.817 67.1433 56.997 67.45C57.177 67.7567 57.267 68.1067 57.267 68.5V72H56.137V68.81C56.137 68.5367 56.087 68.3067 55.987 68.12C55.8936 67.9267 55.7603 67.78 55.587 67.68C55.4203 67.5733 55.2236 67.52 54.997 67.52C54.7703 67.52 54.5703 67.5733 54.397 67.68C54.2236 67.78 54.087 67.9267 53.987 68.12C53.887 68.3133 53.837 68.5433 53.837 68.81V72H52.717V68.81C52.717 68.5367 52.667 68.3067 52.567 68.12C52.4736 67.9267 52.3403 67.78 52.167 67.68C52.0003 67.5733 51.8003 67.52 51.567 67.52C51.3403 67.52 51.1403 67.5733 50.967 67.68C50.7936 67.78 50.657 67.9267 50.557 68.12C50.4636 68.3133 50.417 68.5433 50.417 68.81V72H49.287ZM58.4764 72V66.59H59.5564V67.76L59.4164 67.58C59.5297 67.2133 59.7364 66.9367 60.0364 66.75C60.3364 66.5633 60.6797 66.47 61.0664 66.47C61.4997 66.47 61.8831 66.5867 62.2164 66.82C62.5564 67.0467 62.7831 67.35 62.8964 67.73L62.5764 67.76C62.7364 67.3267 62.9797 67.0033 63.3064 66.79C63.6397 66.5767 64.0197 66.47 64.4464 66.47C64.8197 66.47 65.1564 66.5567 65.4564 66.73C65.7631 66.9033 66.0064 67.1433 66.1864 67.45C66.3664 67.7567 66.4564 68.1067 66.4564 68.5V72H65.3264V68.81C65.3264 68.5367 65.2764 68.3067 65.1764 68.12C65.0831 67.9267 64.9497 67.78 64.7764 67.68C64.6097 67.5733 64.4131 67.52 64.1864 67.52C63.9597 67.52 63.7597 67.5733 63.5864 67.68C63.4131 67.78 63.2764 67.9267 63.1764 68.12C63.0764 68.3133 63.0264 68.5433 63.0264 68.81V72H61.9064V68.81C61.9064 68.5367 61.8564 68.3067 61.7564 68.12C61.6631 67.9267 61.5297 67.78 61.3564 67.68C61.1897 67.5733 60.9897 67.52 60.7564 67.52C60.5297 67.52 60.3297 67.5733 60.1564 67.68C59.9831 67.78 59.8464 67.9267 59.7464 68.12C59.6531 68.3133 59.6064 68.5433 59.6064 68.81V72H58.4764ZM69.2859 72.12C68.9192 72.12 68.5959 72.0567 68.3159 71.93C68.0425 71.7967 67.8292 71.6167 67.6759 71.39C67.5225 71.1567 67.4459 70.8833 67.4459 70.57C67.4459 70.2767 67.5092 70.0133 67.6359 69.78C67.7692 69.5467 67.9725 69.35 68.2459 69.19C68.5192 69.03 68.8625 68.9167 69.2759 68.85L71.1559 68.54V69.43L69.4959 69.72C69.1959 69.7733 68.9759 69.87 68.8359 70.01C68.6959 70.1433 68.6259 70.3167 68.6259 70.53C68.6259 70.7367 68.7025 70.9067 68.8559 71.04C69.0159 71.1667 69.2192 71.23 69.4659 71.23C69.7725 71.23 70.0392 71.1633 70.2659 71.03C70.4992 70.8967 70.6792 70.72 70.8059 70.5C70.9325 70.2733 70.9959 70.0233 70.9959 69.75V68.36C70.9959 68.0933 70.8959 67.8767 70.6959 67.71C70.5025 67.5367 70.2425 67.45 69.9159 67.45C69.6159 67.45 69.3525 67.53 69.1259 67.69C68.9059 67.8433 68.7425 68.0433 68.6359 68.29L67.6959 67.82C67.7959 67.5533 67.9592 67.32 68.1859 67.12C68.4125 66.9133 68.6759 66.7533 68.9759 66.64C69.2825 66.5267 69.6059 66.47 69.9459 66.47C70.3725 66.47 70.7492 66.55 71.0759 66.71C71.4092 66.87 71.6659 67.0933 71.8459 67.38C72.0325 67.66 72.1259 67.9867 72.1259 68.36V72H71.0459V71.02L71.2759 71.05C71.1492 71.27 70.9859 71.46 70.7859 71.62C70.5925 71.78 70.3692 71.9033 70.1159 71.99C69.8692 72.0767 69.5925 72.12 69.2859 72.12ZM73.7371 73.47V72.92C73.9571 72.8667 74.1271 72.7633 74.2471 72.61C74.3671 72.4633 74.4404 72.26 74.4671 72H73.9371V70.7H75.0871V71.55C75.0871 72.0833 74.9738 72.5133 74.7471 72.84C74.5204 73.1667 74.1838 73.3767 73.7371 73.47ZM80.9764 72.12C80.4564 72.12 79.9897 71.9967 79.5764 71.75C79.1697 71.4967 78.8464 71.1567 78.6064 70.73C78.3731 70.3033 78.2564 69.8233 78.2564 69.29C78.2564 68.7567 78.3764 68.2767 78.6164 67.85C78.8564 67.4233 79.1797 67.0867 79.5864 66.84C79.9931 66.5933 80.4531 66.47 80.9664 66.47C81.3997 66.47 81.7831 66.5567 82.1164 66.73C82.4497 66.9033 82.7131 67.1433 82.9064 67.45L82.7364 67.71V64.43H83.8564V72H82.7864V70.9L82.9164 71.11C82.7297 71.4367 82.4631 71.6867 82.1164 71.86C81.7697 72.0333 81.3897 72.12 80.9764 72.12ZM81.0864 71.07C81.3997 71.07 81.6797 70.9933 81.9264 70.84C82.1797 70.6867 82.3764 70.4767 82.5164 70.21C82.6631 69.9367 82.7364 69.63 82.7364 69.29C82.7364 68.95 82.6631 68.6467 82.5164 68.38C82.3764 68.1133 82.1797 67.9033 81.9264 67.75C81.6797 67.5967 81.3997 67.52 81.0864 67.52C80.7731 67.52 80.4897 67.5967 80.2364 67.75C79.9831 67.9033 79.7864 68.1133 79.6464 68.38C79.5064 68.6467 79.4364 68.95 79.4364 69.29C79.4364 69.63 79.5064 69.9367 79.6464 70.21C79.7864 70.4767 79.9797 70.6867 80.2264 70.84C80.4797 70.9933 80.7664 71.07 81.0864 71.07ZM86.7956 72.12C86.429 72.12 86.1056 72.0567 85.8256 71.93C85.5523 71.7967 85.339 71.6167 85.1856 71.39C85.0323 71.1567 84.9556 70.8833 84.9556 70.57C84.9556 70.2767 85.019 70.0133 85.1456 69.78C85.279 69.5467 85.4823 69.35 85.7556 69.19C86.029 69.03 86.3723 68.9167 86.7856 68.85L88.6656 68.54V69.43L87.0056 69.72C86.7056 69.7733 86.4856 69.87 86.3456 70.01C86.2056 70.1433 86.1356 70.3167 86.1356 70.53C86.1356 70.7367 86.2123 70.9067 86.3656 71.04C86.5256 71.1667 86.729 71.23 86.9756 71.23C87.2823 71.23 87.549 71.1633 87.7756 71.03C88.009 70.8967 88.189 70.72 88.3156 70.5C88.4423 70.2733 88.5056 70.0233 88.5056 69.75V68.36C88.5056 68.0933 88.4056 67.8767 88.2056 67.71C88.0123 67.5367 87.7523 67.45 87.4256 67.45C87.1256 67.45 86.8623 67.53 86.6356 67.69C86.4156 67.8433 86.2523 68.0433 86.1456 68.29L85.2056 67.82C85.3056 67.5533 85.469 67.32 85.6956 67.12C85.9223 66.9133 86.1856 66.7533 86.4856 66.64C86.7923 66.5267 87.1156 66.47 87.4556 66.47C87.8823 66.47 88.259 66.55 88.5856 66.71C88.919 66.87 89.1756 67.0933 89.3556 67.38C89.5423 67.66 89.6356 67.9867 89.6356 68.36V72H88.5556V71.02L88.7856 71.05C88.659 71.27 88.4956 71.46 88.2956 71.62C88.1023 71.78 87.879 71.9033 87.6256 71.99C87.379 72.0767 87.1023 72.12 86.7956 72.12ZM92.5769 72.12C92.2102 72.12 91.8869 72.0567 91.6069 71.93C91.3335 71.7967 91.1202 71.6167 90.9669 71.39C90.8135 71.1567 90.7369 70.8833 90.7369 70.57C90.7369 70.2767 90.8002 70.0133 90.9269 69.78C91.0602 69.5467 91.2635 69.35 91.5369 69.19C91.8102 69.03 92.1535 68.9167 92.5669 68.85L94.4469 68.54V69.43L92.7869 69.72C92.4869 69.7733 92.2669 69.87 92.1269 70.01C91.9869 70.1433 91.9169 70.3167 91.9169 70.53C91.9169 70.7367 91.9935 70.9067 92.1469 71.04C92.3069 71.1667 92.5102 71.23 92.7569 71.23C93.0635 71.23 93.3302 71.1633 93.5569 71.03C93.7902 70.8967 93.9702 70.72 94.0969 70.5C94.2235 70.2733 94.2869 70.0233 94.2869 69.75V68.36C94.2869 68.0933 94.1869 67.8767 93.9869 67.71C93.7935 67.5367 93.5335 67.45 93.2069 67.45C92.9069 67.45 92.6435 67.53 92.4169 67.69C92.1969 67.8433 92.0335 68.0433 91.9269 68.29L90.9869 67.82C91.0869 67.5533 91.2502 67.32 91.4769 67.12C91.7035 66.9133 91.9669 66.7533 92.2669 66.64C92.5735 66.5267 92.8969 66.47 93.2369 66.47C93.6635 66.47 94.0402 66.55 94.3669 66.71C94.7002 66.87 94.9569 67.0933 95.1369 67.38C95.3235 67.66 95.4169 67.9867 95.4169 68.36V72H94.3369V71.02L94.5669 71.05C94.4402 71.27 94.2769 71.46 94.0769 71.62C93.8835 71.78 93.6602 71.9033 93.4069 71.99C93.1602 72.0767 92.8835 72.12 92.5769 72.12ZM96.7381 72V64.43H97.8681V72H96.7381ZM101.119 72.12C100.713 72.12 100.356 72.03 100.049 71.85C99.7426 71.6633 99.5026 71.4067 99.3293 71.08C99.1626 70.7467 99.0793 70.3633 99.0793 69.93V66.59H100.209V69.83C100.209 70.0767 100.259 70.2933 100.359 70.48C100.459 70.6667 100.599 70.8133 100.779 70.92C100.959 71.02 101.166 71.07 101.399 71.07C101.639 71.07 101.849 71.0167 102.029 70.91C102.209 70.8033 102.349 70.6533 102.449 70.46C102.556 70.2667 102.609 70.04 102.609 69.78V66.59H103.729V72H102.659V70.94L102.779 71.08C102.653 71.4133 102.443 71.67 102.149 71.85C101.856 72.03 101.513 72.12 101.119 72.12ZM100.839 74.15V72.9H102.089V74.15H100.839ZM105.549 72V70.7H106.699V72H105.549ZM113.864 72.12C113.337 72.12 112.847 72.0233 112.394 71.83C111.947 71.6367 111.554 71.37 111.214 71.03C110.88 70.6833 110.62 70.2767 110.434 69.81C110.247 69.3433 110.154 68.83 110.154 68.27C110.154 67.7167 110.244 67.2067 110.424 66.74C110.61 66.2667 110.87 65.86 111.204 65.52C111.537 65.1733 111.927 64.9067 112.374 64.72C112.82 64.5267 113.31 64.43 113.844 64.43C114.37 64.43 114.84 64.52 115.254 64.7C115.674 64.88 116.027 65.1167 116.314 65.41C116.6 65.6967 116.807 66.01 116.934 66.35L115.884 66.86C115.73 66.4533 115.477 66.1267 115.124 65.88C114.77 65.6267 114.344 65.5 113.844 65.5C113.35 65.5 112.914 65.6167 112.534 65.85C112.154 66.0833 111.857 66.4067 111.644 66.82C111.437 67.2333 111.334 67.7167 111.334 68.27C111.334 68.8233 111.44 69.31 111.654 69.73C111.874 70.1433 112.174 70.4667 112.554 70.7C112.934 70.9267 113.37 71.04 113.864 71.04C114.277 71.04 114.654 70.9567 114.994 70.79C115.34 70.6167 115.617 70.3767 115.824 70.07C116.03 69.7567 116.134 69.3933 116.134 68.98V68.47L116.664 68.95H113.844V67.95H117.304V68.65C117.304 69.1967 117.21 69.6867 117.024 70.12C116.837 70.5467 116.584 70.91 116.264 71.21C115.944 71.51 115.577 71.7367 115.164 71.89C114.75 72.0433 114.317 72.12 113.864 72.12ZM118.398 72V66.59H119.528V72H118.398ZM118.398 65.85V64.55H119.528V65.85H118.398ZM118.338 74.15V72.9H119.588V74.15H118.338ZM120.849 72V66.59H121.929V67.65L121.799 67.51C121.933 67.17 122.146 66.9133 122.439 66.74C122.733 66.56 123.073 66.47 123.459 66.47C123.859 66.47 124.213 66.5567 124.519 66.73C124.826 66.9033 125.066 67.1433 125.239 67.45C125.413 67.7567 125.499 68.11 125.499 68.51V72H124.379V68.81C124.379 68.5367 124.329 68.3067 124.229 68.12C124.129 67.9267 123.986 67.78 123.799 67.68C123.619 67.5733 123.413 67.52 123.179 67.52C122.946 67.52 122.736 67.5733 122.549 67.68C122.369 67.78 122.229 67.9267 122.129 68.12C122.029 68.3133 121.979 68.5433 121.979 68.81V72H120.849ZM126.709 72V66.59H127.839V72H126.709ZM126.709 65.85V64.55H127.839V65.85H126.709ZM126.649 74.15V72.9H127.899V74.15H126.649ZM31.66 87V79.43H32.79V84.5L32.35 84.39L35.06 81.59H36.47L34.43 83.76L36.56 87H35.26L33.36 84.13L34.03 84.04L32.43 85.74L32.79 84.99V87H31.66ZM38.9538 87.12C38.5872 87.12 38.2638 87.0567 37.9838 86.93C37.7105 86.7967 37.4972 86.6167 37.3438 86.39C37.1905 86.1567 37.1138 85.8833 37.1138 85.57C37.1138 85.2767 37.1772 85.0133 37.3038 84.78C37.4372 84.5467 37.6405 84.35 37.9138 84.19C38.1872 84.03 38.5305 83.9167 38.9438 83.85L40.8238 83.54V84.43L39.1638 84.72C38.8638 84.7733 38.6438 84.87 38.5038 85.01C38.3638 85.1433 38.2938 85.3167 38.2938 85.53C38.2938 85.7367 38.3705 85.9067 38.5238 86.04C38.6838 86.1667 38.8872 86.23 39.1338 86.23C39.4405 86.23 39.7072 86.1633 39.9338 86.03C40.1672 85.8967 40.3472 85.72 40.4738 85.5C40.6005 85.2733 40.6638 85.0233 40.6638 84.75V83.36C40.6638 83.0933 40.5638 82.8767 40.3638 82.71C40.1705 82.5367 39.9105 82.45 39.5838 82.45C39.2838 82.45 39.0205 82.53 38.7938 82.69C38.5738 82.8433 38.4105 83.0433 38.3038 83.29L37.3638 82.82C37.4638 82.5533 37.6272 82.32 37.8538 82.12C38.0805 81.9133 38.3438 81.7533 38.6438 81.64C38.9505 81.5267 39.2738 81.47 39.6138 81.47C40.0405 81.47 40.4172 81.55 40.7438 81.71C41.0772 81.87 41.3338 82.0933 41.5138 82.38C41.7005 82.66 41.7938 82.9867 41.7938 83.36V87H40.7138V86.02L40.9438 86.05C40.8172 86.27 40.6538 86.46 40.4538 86.62C40.2605 86.78 40.0372 86.9033 39.7838 86.99C39.5372 87.0767 39.2605 87.12 38.9538 87.12ZM44.8631 87V81.59H45.9931V87H44.8631ZM44.8631 80.85V79.55H45.9931V80.85H44.8631ZM44.8031 89.15V87.9H46.0531V89.15H44.8031ZM49.0623 87V81.59H50.1423V82.76L50.0023 82.58C50.1157 82.2133 50.3223 81.9367 50.6223 81.75C50.9223 81.5633 51.2657 81.47 51.6523 81.47C52.0857 81.47 52.469 81.5867 52.8023 81.82C53.1423 82.0467 53.369 82.35 53.4823 82.73L53.1623 82.76C53.3223 82.3267 53.5657 82.0033 53.8923 81.79C54.2257 81.5767 54.6057 81.47 55.0323 81.47C55.4057 81.47 55.7423 81.5567 56.0423 81.73C56.349 81.9033 56.5923 82.1433 56.7723 82.45C56.9523 82.7567 57.0423 83.1067 57.0423 83.5V87H55.9123V83.81C55.9123 83.5367 55.8623 83.3067 55.7623 83.12C55.669 82.9267 55.5357 82.78 55.3623 82.68C55.1957 82.5733 54.999 82.52 54.7723 82.52C54.5457 82.52 54.3457 82.5733 54.1723 82.68C53.999 82.78 53.8623 82.9267 53.7623 83.12C53.6623 83.3133 53.6123 83.5433 53.6123 83.81V87H52.4923V83.81C52.4923 83.5367 52.4423 83.3067 52.3423 83.12C52.249 82.9267 52.1157 82.78 51.9423 82.68C51.7757 82.5733 51.5757 82.52 51.3423 82.52C51.1157 82.52 50.9157 82.5733 50.7423 82.68C50.569 82.78 50.4323 82.9267 50.3323 83.12C50.239 83.3133 50.1923 83.5433 50.1923 83.81V87H49.0623ZM60.7918 87.12C60.2518 87.12 59.7718 86.9967 59.3518 86.75C58.9385 86.4967 58.6151 86.1567 58.3818 85.73C58.1485 85.2967 58.0318 84.8133 58.0318 84.28C58.0318 83.7333 58.1485 83.25 58.3818 82.83C58.6218 82.41 58.9418 82.08 59.3418 81.84C59.7418 81.5933 60.1951 81.47 60.7018 81.47C61.1085 81.47 61.4718 81.54 61.7918 81.68C62.1118 81.82 62.3818 82.0133 62.6018 82.26C62.8218 82.5 62.9885 82.7767 63.1018 83.09C63.2218 83.4033 63.2818 83.7367 63.2818 84.09C63.2818 84.1767 63.2785 84.2667 63.2718 84.36C63.2651 84.4533 63.2518 84.54 63.2318 84.62H58.9218V83.72H62.5918L62.0518 84.13C62.1185 83.8033 62.0951 83.5133 61.9818 83.26C61.8751 83 61.7085 82.7967 61.4818 82.65C61.2618 82.4967 61.0018 82.42 60.7018 82.42C60.4018 82.42 60.1351 82.4967 59.9018 82.65C59.6685 82.7967 59.4885 83.01 59.3618 83.29C59.2351 83.5633 59.1851 83.8967 59.2118 84.29C59.1785 84.6567 59.2285 84.9767 59.3618 85.25C59.5018 85.5233 59.6951 85.7367 59.9418 85.89C60.1951 86.0433 60.4818 86.12 60.8018 86.12C61.1285 86.12 61.4051 86.0467 61.6318 85.9C61.8651 85.7533 62.0485 85.5633 62.1818 85.33L63.1018 85.78C62.9951 86.0333 62.8285 86.2633 62.6018 86.47C62.3818 86.67 62.1151 86.83 61.8018 86.95C61.4951 87.0633 61.1585 87.12 60.7918 87.12ZM64.3846 87V81.59H65.4646V82.68L65.3646 82.52C65.4846 82.1667 65.6779 81.9133 65.9446 81.76C66.2113 81.6 66.5313 81.52 66.9046 81.52H67.2346V82.55H66.7646C66.3913 82.55 66.0879 82.6667 65.8546 82.9C65.6279 83.1267 65.5146 83.4533 65.5146 83.88V87H64.3846ZM70.5477 87.12C70.0077 87.12 69.5277 86.9967 69.1077 86.75C68.6943 86.4967 68.371 86.1567 68.1377 85.73C67.9043 85.2967 67.7877 84.8133 67.7877 84.28C67.7877 83.7333 67.9043 83.25 68.1377 82.83C68.3777 82.41 68.6977 82.08 69.0977 81.84C69.4977 81.5933 69.951 81.47 70.4577 81.47C70.8643 81.47 71.2277 81.54 71.5477 81.68C71.8677 81.82 72.1377 82.0133 72.3577 82.26C72.5777 82.5 72.7443 82.7767 72.8577 83.09C72.9777 83.4033 73.0377 83.7367 73.0377 84.09C73.0377 84.1767 73.0343 84.2667 73.0277 84.36C73.021 84.4533 73.0077 84.54 72.9877 84.62H68.6777V83.72H72.3477L71.8077 84.13C71.8743 83.8033 71.851 83.5133 71.7377 83.26C71.631 83 71.4643 82.7967 71.2377 82.65C71.0177 82.4967 70.7577 82.42 70.4577 82.42C70.1577 82.42 69.891 82.4967 69.6577 82.65C69.4243 82.7967 69.2443 83.01 69.1177 83.29C68.991 83.5633 68.941 83.8967 68.9677 84.29C68.9343 84.6567 68.9843 84.9767 69.1177 85.25C69.2577 85.5233 69.451 85.7367 69.6977 85.89C69.951 86.0433 70.2377 86.12 70.5577 86.12C70.8843 86.12 71.161 86.0467 71.3877 85.9C71.621 85.7533 71.8043 85.5633 71.9377 85.33L72.8577 85.78C72.751 86.0333 72.5843 86.2633 72.3577 86.47C72.1377 86.67 71.871 86.83 71.5577 86.95C71.251 87.0633 70.9143 87.12 70.5477 87.12ZM75.4405 84.78V84.61C75.4405 84.3167 75.4871 84.0567 75.5805 83.83C75.6805 83.6033 75.8038 83.4 75.9505 83.22C76.1038 83.0333 76.2605 82.8633 76.4205 82.71C76.6471 82.4967 76.8471 82.29 77.0205 82.09C77.2005 81.89 77.2905 81.6567 77.2905 81.39C77.2905 81.2233 77.2505 81.0733 77.1705 80.94C77.0905 80.8 76.9705 80.69 76.8105 80.61C76.6571 80.5233 76.4671 80.48 76.2405 80.48C75.9271 80.48 75.6571 80.5767 75.4305 80.77C75.2105 80.9567 75.0705 81.21 75.0105 81.53L73.9605 81.28C74.0205 80.9133 74.1538 80.5933 74.3605 80.32C74.5738 80.04 74.8405 79.8233 75.1605 79.67C75.4871 79.51 75.8538 79.43 76.2605 79.43C76.7205 79.43 77.1138 79.5233 77.4405 79.71C77.7738 79.89 78.0271 80.1267 78.2005 80.42C78.3738 80.7133 78.4605 81.03 78.4605 81.37C78.4605 81.6433 78.4038 81.89 78.2905 82.11C78.1838 82.3233 78.0438 82.52 77.8705 82.7C77.7038 82.88 77.5305 83.0567 77.3505 83.23C77.1371 83.4367 76.9471 83.6533 76.7805 83.88C76.6205 84.1 76.5405 84.36 76.5405 84.66V84.78H75.4405ZM75.4405 87V85.7H76.5905V87H75.4405Z" fill="black"/>
<path d="M46.894 24V16.55H48.074V20.59L47.764 20.47L51.134 16.55H52.604L49.624 20.04L49.684 19.2L52.724 24H51.334L49.154 20.59L48.074 21.85V24H46.894ZM55.8377 24.12C55.2977 24.12 54.8177 23.9967 54.3977 23.75C53.9844 23.4967 53.661 23.1567 53.4277 22.73C53.1944 22.2967 53.0777 21.8133 53.0777 21.28C53.0777 20.7333 53.1944 20.25 53.4277 19.83C53.6677 19.41 53.9877 19.08 54.3877 18.84C54.7877 18.5933 55.241 18.47 55.7477 18.47C56.1544 18.47 56.5177 18.54 56.8377 18.68C57.1577 18.82 57.4277 19.0133 57.6477 19.26C57.8677 19.5 58.0344 19.7767 58.1477 20.09C58.2677 20.4033 58.3277 20.7367 58.3277 21.09C58.3277 21.1767 58.3244 21.2667 58.3177 21.36C58.311 21.4533 58.2977 21.54 58.2777 21.62H53.9677V20.72H57.6377L57.0977 21.13C57.1644 20.8033 57.141 20.5133 57.0277 20.26C56.921 20 56.7544 19.7967 56.5277 19.65C56.3077 19.4967 56.0477 19.42 55.7477 19.42C55.4477 19.42 55.181 19.4967 54.9477 19.65C54.7144 19.7967 54.5344 20.01 54.4077 20.29C54.281 20.5633 54.231 20.8967 54.2577 21.29C54.2244 21.6567 54.2744 21.9767 54.4077 22.25C54.5477 22.5233 54.741 22.7367 54.9877 22.89C55.241 23.0433 55.5277 23.12 55.8477 23.12C56.1744 23.12 56.451 23.0467 56.6777 22.9C56.911 22.7533 57.0944 22.5633 57.2277 22.33L58.1477 22.78C58.041 23.0333 57.8744 23.2633 57.6477 23.47C57.4277 23.67 57.161 23.83 56.8477 23.95C56.541 24.0633 56.2044 24.12 55.8377 24.12ZM61.9305 24.12C61.4105 24.12 60.9438 23.9967 60.5305 23.75C60.1238 23.4967 59.8005 23.1567 59.5605 22.73C59.3272 22.3033 59.2105 21.8233 59.2105 21.29C59.2105 20.7567 59.3305 20.2767 59.5705 19.85C59.8105 19.4233 60.1338 19.0867 60.5405 18.84C60.9472 18.5933 61.4072 18.47 61.9205 18.47C62.3538 18.47 62.7372 18.5567 63.0705 18.73C63.4038 18.9033 63.6672 19.1433 63.8605 19.45L63.6905 19.71V16.43H64.8105V24H63.7405V22.9L63.8705 23.11C63.6838 23.4367 63.4172 23.6867 63.0705 23.86C62.7238 24.0333 62.3438 24.12 61.9305 24.12ZM62.0405 23.07C62.3538 23.07 62.6338 22.9933 62.8805 22.84C63.1338 22.6867 63.3305 22.4767 63.4705 22.21C63.6172 21.9367 63.6905 21.63 63.6905 21.29C63.6905 20.95 63.6172 20.6467 63.4705 20.38C63.3305 20.1133 63.1338 19.9033 62.8805 19.75C62.6338 19.5967 62.3538 19.52 62.0405 19.52C61.7272 19.52 61.4438 19.5967 61.1905 19.75C60.9372 19.9033 60.7405 20.1133 60.6005 20.38C60.4605 20.6467 60.3905 20.95 60.3905 21.29C60.3905 21.63 60.4605 21.9367 60.6005 22.21C60.7405 22.4767 60.9338 22.6867 61.1805 22.84C61.4338 22.9933 61.7205 23.07 62.0405 23.07ZM68.0597 24.12C67.6531 24.12 67.2964 24.03 66.9897 23.85C66.6831 23.6633 66.4431 23.4067 66.2697 23.08C66.1031 22.7467 66.0197 22.3633 66.0197 21.93V18.59H67.1497V21.83C67.1497 22.0767 67.1997 22.2933 67.2997 22.48C67.3997 22.6667 67.5397 22.8133 67.7197 22.92C67.8997 23.02 68.1064 23.07 68.3397 23.07C68.5797 23.07 68.7897 23.0167 68.9697 22.91C69.1497 22.8033 69.2897 22.6533 69.3897 22.46C69.4964 22.2667 69.5497 22.04 69.5497 21.78V18.59H70.6697V24H69.5997V22.94L69.7197 23.08C69.5931 23.4133 69.3831 23.67 69.0897 23.85C68.7964 24.03 68.4531 24.12 68.0597 24.12ZM73.2891 21.78V21.61C73.2891 21.3167 73.3358 21.0567 73.4291 20.83C73.5291 20.6033 73.6524 20.4 73.7991 20.22C73.9524 20.0333 74.1091 19.8633 74.2691 19.71C74.4958 19.4967 74.6958 19.29 74.8691 19.09C75.0491 18.89 75.1391 18.6567 75.1391 18.39C75.1391 18.2233 75.0991 18.0733 75.0191 17.94C74.9391 17.8 74.8191 17.69 74.6591 17.61C74.5058 17.5233 74.3158 17.48 74.0891 17.48C73.7758 17.48 73.5058 17.5767 73.2791 17.77C73.0591 17.9567 72.9191 18.21 72.8591 18.53L71.8091 18.28C71.8691 17.9133 72.0024 17.5933 72.2091 17.32C72.4224 17.04 72.6891 16.8233 73.0091 16.67C73.3358 16.51 73.7024 16.43 74.1091 16.43C74.5691 16.43 74.9624 16.5233 75.2891 16.71C75.6224 16.89 75.8758 17.1267 76.0491 17.42C76.2224 17.7133 76.3091 18.03 76.3091 18.37C76.3091 18.6433 76.2524 18.89 76.1391 19.11C76.0324 19.3233 75.8924 19.52 75.7191 19.7C75.5524 19.88 75.3791 20.0567 75.1991 20.23C74.9858 20.4367 74.7958 20.6533 74.6291 20.88C74.4691 21.1 74.3891 21.36 74.3891 21.66V21.78H73.2891ZM73.2891 24V22.7H74.4391V24H73.2891Z" fill="black"/>
<path d="M31.77 133V125.55H32.95V129.59L32.64 129.47L36.01 125.55H37.48L34.5 129.04L34.56 128.2L37.6 133H36.21L34.03 129.59L32.95 130.85V133H31.77ZM40.7137 133.12C40.1737 133.12 39.6937 132.997 39.2737 132.75C38.8603 132.497 38.537 132.157 38.3037 131.73C38.0703 131.297 37.9537 130.813 37.9537 130.28C37.9537 129.733 38.0703 129.25 38.3037 128.83C38.5437 128.41 38.8637 128.08 39.2637 127.84C39.6637 127.593 40.117 127.47 40.6237 127.47C41.0303 127.47 41.3937 127.54 41.7137 127.68C42.0337 127.82 42.3037 128.013 42.5237 128.26C42.7437 128.5 42.9103 128.777 43.0237 129.09C43.1437 129.403 43.2037 129.737 43.2037 130.09C43.2037 130.177 43.2003 130.267 43.1937 130.36C43.187 130.453 43.1737 130.54 43.1537 130.62H38.8437V129.72H42.5137L41.9737 130.13C42.0403 129.803 42.017 129.513 41.9037 129.26C41.797 129 41.6303 128.797 41.4037 128.65C41.1837 128.497 40.9237 128.42 40.6237 128.42C40.3237 128.42 40.057 128.497 39.8237 128.65C39.5903 128.797 39.4103 129.01 39.2837 129.29C39.157 129.563 39.107 129.897 39.1337 130.29C39.1003 130.657 39.1503 130.977 39.2837 131.25C39.4237 131.523 39.617 131.737 39.8637 131.89C40.117 132.043 40.4037 132.12 40.7237 132.12C41.0503 132.12 41.327 132.047 41.5537 131.9C41.787 131.753 41.9703 131.563 42.1037 131.33L43.0237 131.78C42.917 132.033 42.7503 132.263 42.5237 132.47C42.3037 132.67 42.037 132.83 41.7237 132.95C41.417 133.063 41.0803 133.12 40.7137 133.12ZM46.8065 133.12C46.2865 133.12 45.8198 132.997 45.4065 132.75C44.9998 132.497 44.6765 132.157 44.4365 131.73C44.2032 131.303 44.0865 130.823 44.0865 130.29C44.0865 129.757 44.2065 129.277 44.4465 128.85C44.6865 128.423 45.0098 128.087 45.4165 127.84C45.8232 127.593 46.2832 127.47 46.7965 127.47C47.2298 127.47 47.6132 127.557 47.9465 127.73C48.2798 127.903 48.5432 128.143 48.7365 128.45L48.5665 128.71V125.43H49.6865V133H48.6165V131.9L48.7465 132.11C48.5598 132.437 48.2932 132.687 47.9465 132.86C47.5998 133.033 47.2198 133.12 46.8065 133.12ZM46.9165 132.07C47.2298 132.07 47.5098 131.993 47.7565 131.84C48.0098 131.687 48.2065 131.477 48.3465 131.21C48.4932 130.937 48.5665 130.63 48.5665 130.29C48.5665 129.95 48.4932 129.647 48.3465 129.38C48.2065 129.113 48.0098 128.903 47.7565 128.75C47.5098 128.597 47.2298 128.52 46.9165 128.52C46.6032 128.52 46.3198 128.597 46.0665 128.75C45.8132 128.903 45.6165 129.113 45.4765 129.38C45.3365 129.647 45.2665 129.95 45.2665 130.29C45.2665 130.63 45.3365 130.937 45.4765 131.21C45.6165 131.477 45.8098 131.687 46.0565 131.84C46.3098 131.993 46.5965 132.07 46.9165 132.07ZM52.9357 133.12C52.529 133.12 52.1724 133.03 51.8657 132.85C51.559 132.663 51.319 132.407 51.1457 132.08C50.979 131.747 50.8957 131.363 50.8957 130.93V127.59H52.0257V130.83C52.0257 131.077 52.0757 131.293 52.1757 131.48C52.2757 131.667 52.4157 131.813 52.5957 131.92C52.7757 132.02 52.9824 132.07 53.2157 132.07C53.4557 132.07 53.6657 132.017 53.8457 131.91C54.0257 131.803 54.1657 131.653 54.2657 131.46C54.3724 131.267 54.4257 131.04 54.4257 130.78V127.59H55.5457V133H54.4757V131.94L54.5957 132.08C54.469 132.413 54.259 132.67 53.9657 132.85C53.6724 133.03 53.329 133.12 52.9357 133.12ZM60.2331 133.12C59.8665 133.12 59.5431 133.057 59.2631 132.93C58.9898 132.797 58.7765 132.617 58.6231 132.39C58.4698 132.157 58.3931 131.883 58.3931 131.57C58.3931 131.277 58.4565 131.013 58.5831 130.78C58.7165 130.547 58.9198 130.35 59.1931 130.19C59.4665 130.03 59.8098 129.917 60.2231 129.85L62.1031 129.54V130.43L60.4431 130.72C60.1431 130.773 59.9231 130.87 59.7831 131.01C59.6431 131.143 59.5731 131.317 59.5731 131.53C59.5731 131.737 59.6498 131.907 59.8031 132.04C59.9631 132.167 60.1665 132.23 60.4131 132.23C60.7198 132.23 60.9865 132.163 61.2131 132.03C61.4465 131.897 61.6265 131.72 61.7531 131.5C61.8798 131.273 61.9431 131.023 61.9431 130.75V129.36C61.9431 129.093 61.8431 128.877 61.6431 128.71C61.4498 128.537 61.1898 128.45 60.8631 128.45C60.5631 128.45 60.2998 128.53 60.0731 128.69C59.8531 128.843 59.6898 129.043 59.5831 129.29L58.6431 128.82C58.7431 128.553 58.9065 128.32 59.1331 128.12C59.3598 127.913 59.6231 127.753 59.9231 127.64C60.2298 127.527 60.5531 127.47 60.8931 127.47C61.3198 127.47 61.6965 127.55 62.0231 127.71C62.3565 127.87 62.6131 128.093 62.7931 128.38C62.9798 128.66 63.0731 128.987 63.0731 129.36V133H61.9931V132.02L62.2231 132.05C62.0965 132.27 61.9331 132.46 61.7331 132.62C61.5398 132.78 61.3165 132.903 61.0631 132.99C60.8165 133.077 60.5398 133.12 60.2331 133.12ZM67.0044 135.2C66.611 135.2 66.2477 135.137 65.9144 135.01C65.581 134.883 65.2944 134.707 65.0544 134.48C64.8144 134.26 64.6344 134 64.5144 133.7L65.5544 133.27C65.6477 133.523 65.8177 133.733 66.0644 133.9C66.3177 134.067 66.6277 134.15 66.9944 134.15C67.281 134.15 67.5377 134.093 67.7644 133.98C67.991 133.873 68.171 133.713 68.3044 133.5C68.4377 133.293 68.5044 133.043 68.5044 132.75V131.53L68.7044 131.76C68.5177 132.107 68.2577 132.37 67.9244 132.55C67.5977 132.73 67.2277 132.82 66.8144 132.82C66.3144 132.82 65.8644 132.703 65.4644 132.47C65.0644 132.237 64.7477 131.917 64.5144 131.51C64.2877 131.103 64.1744 130.647 64.1744 130.14C64.1744 129.627 64.2877 129.17 64.5144 128.77C64.7477 128.37 65.061 128.053 65.4544 127.82C65.8477 127.587 66.2977 127.47 66.8044 127.47C67.2177 127.47 67.5844 127.56 67.9044 127.74C68.231 127.913 68.4977 128.167 68.7044 128.5L68.5544 128.78V127.59H69.6244V132.75C69.6244 133.217 69.511 133.633 69.2844 134C69.0644 134.373 68.7577 134.667 68.3644 134.88C67.971 135.093 67.5177 135.2 67.0044 135.2ZM66.9444 131.77C67.2444 131.77 67.511 131.7 67.7444 131.56C67.9777 131.413 68.161 131.22 68.2944 130.98C68.4344 130.733 68.5044 130.457 68.5044 130.15C68.5044 129.843 68.4344 129.567 68.2944 129.32C68.1544 129.073 67.9677 128.88 67.7344 128.74C67.501 128.593 67.2377 128.52 66.9444 128.52C66.6377 128.52 66.3644 128.593 66.1244 128.74C65.8844 128.88 65.6944 129.073 65.5544 129.32C65.421 129.56 65.3544 129.837 65.3544 130.15C65.3544 130.45 65.421 130.723 65.5544 130.97C65.6944 131.217 65.8844 131.413 66.1244 131.56C66.3644 131.7 66.6377 131.77 66.9444 131.77ZM70.9471 133V125.43H72.0771V128.65L71.8971 128.51C72.0304 128.17 72.2438 127.913 72.5371 127.74C72.8304 127.56 73.1704 127.47 73.5571 127.47C73.9571 127.47 74.3104 127.557 74.6171 127.73C74.9238 127.903 75.1638 128.143 75.3371 128.45C75.5104 128.757 75.5971 129.107 75.5971 129.5V133H74.4771V129.81C74.4771 129.537 74.4238 129.307 74.3171 129.12C74.2171 128.927 74.0771 128.78 73.8971 128.68C73.7171 128.573 73.5104 128.52 73.2771 128.52C73.0504 128.52 72.8438 128.573 72.6571 128.68C72.4771 128.78 72.3338 128.927 72.2271 129.12C72.1271 129.313 72.0771 129.543 72.0771 129.81V133H70.9471ZM79.4165 133.12C78.8965 133.12 78.4198 132.997 77.9865 132.75C77.5598 132.503 77.2198 132.167 76.9665 131.74C76.7132 131.313 76.5865 130.83 76.5865 130.29C76.5865 129.743 76.7132 129.26 76.9665 128.84C77.2198 128.413 77.5598 128.08 77.9865 127.84C78.4132 127.593 78.8898 127.47 79.4165 127.47C79.9498 127.47 80.4265 127.593 80.8465 127.84C81.2732 128.08 81.6098 128.413 81.8565 128.84C82.1098 129.26 82.2365 129.743 82.2365 130.29C82.2365 130.837 82.1098 131.323 81.8565 131.75C81.6032 132.177 81.2632 132.513 80.8365 132.76C80.4098 133 79.9365 133.12 79.4165 133.12ZM79.4165 132.07C79.7365 132.07 80.0198 131.993 80.2665 131.84C80.5132 131.687 80.7065 131.477 80.8465 131.21C80.9932 130.937 81.0665 130.63 81.0665 130.29C81.0665 129.95 80.9932 129.647 80.8465 129.38C80.7065 129.113 80.5132 128.903 80.2665 128.75C80.0198 128.597 79.7365 128.52 79.4165 128.52C79.1032 128.52 78.8198 128.597 78.5665 128.75C78.3198 128.903 78.1232 129.113 77.9765 129.38C77.8365 129.647 77.7665 129.95 77.7665 130.29C77.7665 130.63 77.8365 130.937 77.9765 131.21C78.1232 131.477 78.3198 131.687 78.5665 131.84C78.8198 131.993 79.1032 132.07 79.4165 132.07ZM78.7965 135.15V133.9H80.0465V135.15H78.7965ZM85.582 133.06C85.0154 133.06 84.5754 132.9 84.262 132.58C83.9487 132.26 83.792 131.81 83.792 131.23V128.61H82.842V127.59H82.992C83.2454 127.59 83.442 127.517 83.582 127.37C83.722 127.223 83.792 127.023 83.792 126.77V126.35H84.922V127.59H86.152V128.61H84.922V131.18C84.922 131.367 84.952 131.527 85.012 131.66C85.072 131.787 85.1687 131.887 85.302 131.96C85.4354 132.027 85.6087 132.06 85.822 132.06C85.8754 132.06 85.9354 132.057 86.002 132.05C86.0687 132.043 86.132 132.037 86.192 132.03V133C86.0987 133.013 85.9954 133.027 85.882 133.04C85.7687 133.053 85.6687 133.06 85.582 133.06ZM88.8659 133.12C88.4993 133.12 88.1759 133.057 87.8959 132.93C87.6226 132.797 87.4093 132.617 87.2559 132.39C87.1026 132.157 87.0259 131.883 87.0259 131.57C87.0259 131.277 87.0893 131.013 87.2159 130.78C87.3493 130.547 87.5526 130.35 87.8259 130.19C88.0993 130.03 88.4426 129.917 88.8559 129.85L90.7359 129.54V130.43L89.0759 130.72C88.7759 130.773 88.5559 130.87 88.4159 131.01C88.2759 131.143 88.2059 131.317 88.2059 131.53C88.2059 131.737 88.2826 131.907 88.4359 132.04C88.5959 132.167 88.7993 132.23 89.0459 132.23C89.3526 132.23 89.6193 132.163 89.8459 132.03C90.0793 131.897 90.2593 131.72 90.3859 131.5C90.5126 131.273 90.5759 131.023 90.5759 130.75V129.36C90.5759 129.093 90.4759 128.877 90.2759 128.71C90.0826 128.537 89.8226 128.45 89.4959 128.45C89.1959 128.45 88.9326 128.53 88.7059 128.69C88.4859 128.843 88.3226 129.043 88.2159 129.29L87.2759 128.82C87.3759 128.553 87.5393 128.32 87.7659 128.12C87.9926 127.913 88.2559 127.753 88.5559 127.64C88.8626 127.527 89.1859 127.47 89.5259 127.47C89.9526 127.47 90.3293 127.55 90.6559 127.71C90.9893 127.87 91.2459 128.093 91.4259 128.38C91.6126 128.66 91.7059 128.987 91.7059 129.36V133H90.6259V132.02L90.8559 132.05C90.7293 132.27 90.5659 132.46 90.3659 132.62C90.1726 132.78 89.9493 132.903 89.6959 132.99C89.4493 133.077 89.1726 133.12 88.8659 133.12Z" fill="black"/>
</g>
<defs>
<clipPath id="clip0_1_443">
<rect width="267" height="229" fill="white"/>
</clipPath>
</defs>
</svg>
