<svg width="263" height="220" viewBox="0 0 263 220" fill="none" xmlns="http://www.w3.org/2000/svg">
<g clip-path="url(#clip0_1_353)">
<path d="M123.532 220C180.896 220 227.399 217.621 227.399 214.686C227.399 211.751 180.896 209.372 123.532 209.372C66.1677 209.372 19.6649 211.751 19.6649 214.686C19.6649 217.621 66.1677 220 123.532 220Z" fill="#F2F2F2"/>
<path d="M184.215 51.0583H183.035V18.7178C183.035 13.7536 181.064 8.99261 177.556 5.48233C174.047 1.97206 169.289 5.48093e-06 164.327 0H95.8437C90.8819 -9.39581e-06 86.1234 1.97203 82.6148 5.48229C79.1063 8.99255 77.1353 13.7535 77.1353 18.7178V196.14C77.1353 201.105 79.1063 205.866 82.6148 209.376C86.1233 212.886 90.8818 214.858 95.8436 214.858H164.327C169.289 214.858 174.047 212.886 177.556 209.376C181.064 205.866 183.035 201.105 183.035 196.141V74.0789H184.215L184.215 51.0583Z" fill="#3F3D56"/>
<path d="M179.053 18.8484V196.01C179.053 199.717 177.581 203.273 174.961 205.895C172.341 208.516 168.787 209.989 165.081 209.989H96.2697C92.5642 209.989 89.0104 208.516 86.3902 205.895C83.77 203.273 82.2979 199.717 82.2979 196.01V18.8484C82.2979 15.141 83.77 11.5854 86.3902 8.96391C89.0104 6.34237 92.5642 4.86958 96.2697 4.86951H104.617C104.207 5.87799 104.051 6.97186 104.163 8.05492C104.274 9.13798 104.65 10.177 105.257 11.0806C105.864 11.9843 106.684 12.7248 107.644 13.2371C108.604 13.7494 109.676 14.0177 110.764 14.0185H149.997C151.085 14.0177 152.157 13.7494 153.117 13.2371C154.077 12.7248 154.897 11.9843 155.504 11.0806C156.111 10.177 156.487 9.13796 156.598 8.05491C156.71 6.97186 156.554 5.87799 156.144 4.86951H165.081C168.787 4.86958 172.341 6.34237 174.961 8.96391C177.581 11.5854 179.053 15.141 179.053 18.8484Z" fill="#2F1A60"/>
<path d="M156.886 95.2397C156.428 95.4788 155.963 95.7052 155.49 95.9187C155.059 96.1136 154.621 96.2966 154.177 96.4678C154.014 96.5298 153.849 96.5918 153.684 96.6538C152.377 97.1279 151.036 97.4981 149.671 97.7609C148.995 97.8938 148.311 97.9981 147.617 98.0739C147.045 98.1388 146.466 98.1851 145.882 98.2126C145.466 98.2333 145.05 98.2421 144.631 98.2421C142.972 98.2428 141.316 98.0877 139.685 97.7786C139.26 97.7019 138.845 97.6104 138.428 97.51C136.416 97.0274 134.468 96.308 132.624 95.3667C132.459 95.284 132.294 95.1954 132.128 95.1098C131.884 94.9799 131.645 94.8441 131.406 94.7024C131.521 94.543 131.645 94.3865 131.771 94.233C133.152 92.521 134.878 91.1193 136.836 90.1194C138.795 89.1194 140.942 88.5435 143.138 88.4293C145.333 88.3151 147.529 88.6651 149.58 89.4566C151.632 90.248 153.493 91.4631 155.044 93.0226C155.582 93.5629 156.081 94.1411 156.537 94.7526C156.658 94.912 156.773 95.0744 156.886 95.2397Z" fill="#C24278"/>
<path d="M145.22 82.2713C152.376 82.2713 158.176 76.4674 158.176 69.308C158.176 62.1486 152.376 56.3448 145.22 56.3448C138.064 56.3448 132.263 62.1486 132.263 69.308C132.263 76.4674 138.064 82.2713 145.22 82.2713Z" fill="#2F2E41"/>
<path d="M148.666 82.2896C153.339 79.7337 155.057 73.8714 152.502 69.1959C149.947 64.5203 144.088 62.802 139.415 65.3579C134.742 67.9138 133.024 73.776 135.579 78.4516C138.133 83.1271 143.993 84.8455 148.666 82.2896Z" fill="#A0616A"/>
<path d="M154.173 67.755C151.97 69.2746 149.354 70.0833 146.678 70.0726C147.633 70.7349 148.719 71.1823 149.863 71.3839C146.305 72.1476 142.627 72.1682 139.061 71.4446C138.268 71.3174 137.503 71.0545 136.799 70.6675C136.449 70.4716 136.143 70.204 135.903 69.8822C135.662 69.5605 135.492 69.1916 135.403 68.7997C135.166 67.4451 136.221 66.2143 137.318 65.3849C138.997 64.1343 140.932 63.2727 142.984 62.8624C145.037 62.452 147.155 62.5033 149.185 63.0123C150.51 63.3552 151.838 63.9344 152.699 64.9995C153.56 66.0646 153.816 67.7066 152.995 68.8034L154.173 67.755Z" fill="#2F2E41"/>
<path d="M144.631 45.1017C138.839 45.1008 133.206 46.9946 128.59 50.4944C123.974 53.9941 120.628 58.9079 119.062 64.4868C117.497 70.0657 117.797 76.0038 119.918 81.396C122.039 86.7882 125.864 91.3387 130.81 94.3541L130.981 94.4545C131.122 94.5401 131.264 94.6227 131.406 94.7024C131.645 94.8441 131.883 94.9799 132.128 95.1099C132.294 95.1955 132.459 95.284 132.624 95.3667C134.467 96.308 136.416 97.0275 138.428 97.51C138.844 97.6104 139.26 97.7019 139.685 97.7787C141.316 98.0877 142.972 98.2429 144.631 98.2422C145.05 98.2422 145.466 98.2333 145.882 98.2127C146.466 98.1861 147.045 98.1398 147.617 98.0739C148.311 97.9971 148.995 97.8928 149.671 97.761C151.035 97.4981 152.377 97.1279 153.684 96.6539C153.849 96.5919 154.014 96.5299 154.177 96.4679C154.622 96.2966 155.06 96.1136 155.49 95.9188C155.962 95.7062 156.427 95.4799 156.885 95.2397C161.479 92.8328 165.276 89.1439 167.815 84.6205C167.827 84.5969 167.842 84.5733 167.853 84.5496C169.208 82.1174 170.169 79.4858 170.701 76.7528C171.447 72.9052 171.334 68.9401 170.37 65.1414C169.405 61.3427 167.613 57.8044 165.122 54.7797C162.631 51.7551 159.502 49.319 155.959 47.6458C152.417 45.9727 148.548 45.1039 144.631 45.1017ZM167.369 84.2042C167.346 84.2456 167.325 84.2869 167.302 84.3253C164.813 88.7819 161.07 92.4081 156.537 94.7526C156.086 94.9888 155.626 95.2102 155.159 95.4169C154.773 95.5911 154.377 95.7564 153.979 95.9099C153.811 95.9749 153.64 96.0398 153.468 96.0988C152.34 96.5113 151.183 96.8428 150.007 97.0908C149.135 97.2766 148.253 97.4156 147.366 97.5071C146.82 97.5661 146.266 97.6075 145.708 97.6281C145.351 97.6429 144.991 97.6517 144.631 97.6517C143.025 97.6536 141.423 97.5044 139.845 97.2059C138.885 97.0288 137.936 96.7962 137.003 96.5092C135.582 96.0699 134.201 95.5099 132.875 94.8353C132.722 94.7556 132.568 94.6759 132.418 94.5932C132.202 94.4781 131.984 94.36 131.771 94.233C131.612 94.1445 131.453 94.05 131.296 93.9555C131.205 93.9024 131.113 93.8463 131.022 93.7902C126.686 91.1259 123.227 87.2464 121.074 82.6332C118.921 78.0199 118.17 72.8758 118.913 67.8391C119.655 62.8024 121.86 58.0948 125.253 54.3001C128.645 50.5055 133.077 47.791 137.997 46.4933C142.918 45.1956 148.111 45.3718 152.932 47.0001C157.754 48.6284 161.991 51.6372 165.119 55.653C168.247 59.6689 170.128 64.5152 170.528 69.5907C170.928 74.6662 169.83 79.7475 167.369 84.2042Z" fill="#3F3D56"/>
<path d="M138.658 56.5237C138.519 55.0571 136.723 54.1541 135.319 54.5971C133.914 55.0402 132.992 56.455 132.714 57.9016C132.58 58.5109 132.567 59.1406 132.677 59.7547C132.786 60.3689 133.016 60.9553 133.353 61.4804C134.062 62.5026 135.367 63.1405 136.584 62.881C137.973 62.5848 138.935 61.2279 139.21 59.834C139.486 58.4401 139.212 57.003 138.939 55.6086L138.658 56.5237Z" fill="#2F2E41"/>
<path d="M158.423 58.6189C158.284 57.1523 156.488 56.2493 155.084 56.6924C153.679 57.1354 152.757 58.5502 152.479 59.9968C152.344 60.6061 152.332 61.2358 152.441 61.85C152.551 62.4641 152.781 63.0505 153.117 63.5757C153.827 64.5978 155.132 65.2357 156.349 64.9762C157.738 64.68 158.7 63.3231 158.975 61.9292C159.25 60.5353 158.977 59.0982 158.704 57.7038L158.423 58.6189Z" fill="#2F2E41"/>
<path d="M98.7278 82.2907C98.544 82.2905 98.3623 82.252 98.1943 82.1776C98.0263 82.1031 97.8757 81.9944 97.7521 81.8584L83.1098 65.8769C82.9436 65.6959 82.7417 65.5514 82.5169 65.4525C82.2921 65.3535 82.0493 65.3023 81.8037 65.302H4.42888C3.25467 65.3007 2.12894 64.8334 1.29864 64.0027C0.468353 63.172 0.00131834 62.0457 0 60.8709V32.9537C0.00131756 31.7789 0.468353 30.6526 1.29864 29.8219C2.12894 28.9912 3.25467 28.5239 4.42888 28.5226H104.674C105.848 28.5239 106.974 28.9912 107.804 29.8219C108.634 30.6526 109.101 31.7789 109.103 32.9537V60.8709C109.101 62.0457 108.634 63.172 107.804 64.0027C106.974 64.8334 105.848 65.3007 104.674 65.302H101.832C101.362 65.3026 100.912 65.4895 100.579 65.8219C100.247 66.1542 100.06 66.6048 100.06 67.0748V80.9602C100.061 81.2283 99.9807 81.4903 99.8294 81.7116C99.6781 81.9328 99.4632 82.1028 99.213 82.1989C99.0584 82.2594 98.8938 82.2906 98.7278 82.2907Z" fill="white"/>
<path d="M163.787 176.966C163.537 176.87 163.322 176.7 163.171 176.479C163.019 176.258 162.939 175.995 162.94 175.727V161.842C162.939 161.372 162.753 160.921 162.42 160.589C162.088 160.257 161.638 160.07 161.168 160.069H158.326C157.152 160.068 156.026 159.601 155.196 158.77C154.366 157.939 153.899 156.813 153.897 155.638V127.721C153.899 126.546 154.366 125.42 155.196 124.589C156.026 123.758 157.152 123.291 158.326 123.29H258.571C259.745 123.291 260.871 123.758 261.701 124.589C262.532 125.42 262.999 126.546 263 127.721V155.638C262.999 156.813 262.532 157.939 261.701 158.77C260.871 159.601 259.745 160.068 258.571 160.069H181.196C180.951 160.07 180.708 160.121 180.483 160.22C180.258 160.319 180.056 160.463 179.89 160.644L165.248 176.626C165.124 176.762 164.974 176.87 164.806 176.945C164.638 177.019 164.456 177.058 164.272 177.058C164.106 177.058 163.942 177.027 163.787 176.966Z" fill="white"/>
<path d="M132.542 185.611C128.431 188.245 123.668 189.681 118.787 189.759C113.906 189.836 109.1 188.552 104.908 186.051C105.645 184.677 106.58 183.419 107.682 182.316C109.382 180.607 111.45 179.311 113.729 178.527C116.008 177.743 118.436 177.492 120.827 177.793C123.218 178.094 125.508 178.94 127.522 180.265C129.535 181.59 131.218 183.359 132.441 185.437C132.474 185.493 132.509 185.552 132.542 185.611Z" fill="#C24278"/>
<path d="M117.571 171.493C124.774 171.493 130.614 165.651 130.614 158.444C130.614 151.237 124.774 145.394 117.571 145.394C110.368 145.394 104.528 151.237 104.528 158.444C104.528 165.651 110.368 171.493 117.571 171.493Z" fill="#2F2E41"/>
<path d="M127.276 167.648C129.848 162.941 128.119 157.04 123.414 154.467C118.71 151.894 112.812 153.624 110.24 158.331C107.669 163.038 109.398 168.939 114.102 171.512C118.806 174.085 124.704 172.355 127.276 167.648Z" fill="#FFB8B8"/>
<path d="M108.558 156.88C110.776 158.41 113.409 159.224 116.103 159.213C115.142 159.88 114.048 160.331 112.897 160.533C116.479 161.302 120.181 161.323 123.771 160.595C124.569 160.467 125.339 160.202 126.048 159.812C126.401 159.615 126.708 159.346 126.95 159.022C127.192 158.698 127.363 158.327 127.453 157.932C127.691 156.568 126.629 155.33 125.526 154.495C123.836 153.236 121.887 152.368 119.821 151.955C117.755 151.542 115.623 151.594 113.58 152.106C112.245 152.451 110.908 153.034 110.042 154.107C109.175 155.179 108.918 156.832 109.744 157.936L108.558 156.88Z" fill="#2F2E41"/>
<path d="M118.369 190.057C111.981 190.055 105.809 187.749 100.983 183.562C96.1572 179.374 93.0023 173.587 92.0968 167.261C91.1913 160.934 92.5959 154.493 96.0531 149.119C99.5102 143.745 104.788 139.799 110.918 138.003C117.049 136.207 123.621 136.684 129.429 139.344C135.237 142.004 139.891 146.67 142.539 152.487C145.186 158.303 145.648 164.879 143.842 171.009C142.035 177.139 138.079 182.411 132.701 185.859C128.424 188.603 123.45 190.06 118.369 190.057ZM118.369 137.507C113.233 137.507 108.211 139.03 103.94 141.885C99.6694 144.74 96.3405 148.797 94.3747 153.545C92.4088 158.293 91.8943 163.517 92.8963 168.558C93.8982 173.598 96.3716 178.228 100.004 181.862C103.636 185.495 108.263 187.97 113.301 188.972C118.339 189.975 123.56 189.46 128.306 187.493C133.051 185.526 137.107 182.196 139.96 177.923C142.814 173.65 144.336 168.626 144.336 163.487C144.328 156.599 141.59 149.995 136.722 145.125C131.854 140.255 125.253 137.515 118.369 137.507Z" fill="#3F3D56"/>
<path d="M163.662 179.609C167.655 179.609 170.893 179.25 170.893 178.806C170.893 178.363 167.655 178.003 163.662 178.003C159.669 178.003 156.432 178.363 156.432 178.806C156.432 179.25 159.669 179.609 163.662 179.609Z" fill="#F2F2F2"/>
<path d="M99.0405 85.1372C103.034 85.1372 106.271 84.7777 106.271 84.3343C106.271 83.8908 103.034 83.5314 99.0405 83.5314C95.0472 83.5314 91.8099 83.8908 91.8099 84.3343C91.8099 84.7777 95.0472 85.1372 99.0405 85.1372Z" fill="#F2F2F2"/>
<path d="M34.9936 51V43.55H38.1336C38.6003 43.55 39.0036 43.6333 39.3436 43.8C39.6836 43.96 39.9436 44.1933 40.1236 44.5C40.3036 44.8 40.3936 45.1567 40.3936 45.57C40.3936 45.93 40.3003 46.26 40.1136 46.56C39.9336 46.8533 39.6503 47.0867 39.2636 47.26V46.76C39.6036 46.8933 39.8803 47.0633 40.0936 47.27C40.307 47.47 40.4603 47.6967 40.5536 47.95C40.6536 48.2033 40.7036 48.47 40.7036 48.75C40.7036 49.45 40.4736 50 40.0136 50.4C39.5603 50.8 38.937 51 38.1436 51H34.9936ZM36.1736 49.95H38.2336C38.627 49.95 38.9403 49.8433 39.1736 49.63C39.407 49.41 39.5236 49.12 39.5236 48.76C39.5236 48.3933 39.407 48.1033 39.1736 47.89C38.9403 47.67 38.627 47.56 38.2336 47.56H36.1736V49.95ZM36.1736 46.52H38.1636C38.4836 46.52 38.7403 46.43 38.9336 46.25C39.127 46.0633 39.2236 45.82 39.2236 45.52C39.2236 45.22 39.127 44.9867 38.9336 44.82C38.7403 44.6533 38.4836 44.57 38.1636 44.57H36.1736V46.52ZM43.4275 51.12C43.0608 51.12 42.7375 51.0567 42.4575 50.93C42.1841 50.7967 41.9708 50.6167 41.8175 50.39C41.6641 50.1567 41.5875 49.8833 41.5875 49.57C41.5875 49.2767 41.6508 49.0133 41.7775 48.78C41.9108 48.5467 42.1141 48.35 42.3875 48.19C42.6608 48.03 43.0041 47.9167 43.4175 47.85L45.2975 47.54V48.43L43.6375 48.72C43.3375 48.7733 43.1175 48.87 42.9775 49.01C42.8375 49.1433 42.7675 49.3167 42.7675 49.53C42.7675 49.7367 42.8441 49.9067 42.9975 50.04C43.1575 50.1667 43.3608 50.23 43.6075 50.23C43.9141 50.23 44.1808 50.1633 44.4075 50.03C44.6408 49.8967 44.8208 49.72 44.9475 49.5C45.0741 49.2733 45.1375 49.0233 45.1375 48.75V47.36C45.1375 47.0933 45.0375 46.8767 44.8375 46.71C44.6441 46.5367 44.3841 46.45 44.0575 46.45C43.7575 46.45 43.4941 46.53 43.2675 46.69C43.0475 46.8433 42.8841 47.0433 42.7775 47.29L41.8375 46.82C41.9375 46.5533 42.1008 46.32 42.3275 46.12C42.5541 45.9133 42.8175 45.7533 43.1175 45.64C43.4241 45.5267 43.7475 45.47 44.0875 45.47C44.5141 45.47 44.8908 45.55 45.2175 45.71C45.5508 45.87 45.8075 46.0933 45.9875 46.38C46.1741 46.66 46.2675 46.9867 46.2675 47.36V51H45.1875V50.02L45.4175 50.05C45.2908 50.27 45.1275 50.46 44.9275 50.62C44.7341 50.78 44.5108 50.9033 44.2575 50.99C44.0108 51.0767 43.7341 51.12 43.4275 51.12ZM48.8987 51L47.0387 45.59H48.2387L49.6587 49.9H49.2387L50.6887 45.59H51.7187L53.1587 49.9H52.7387L54.1687 45.59H55.3687L53.4987 51H52.4787L51.0187 46.59H51.3887L49.9287 51H48.8987ZM58.6557 51.12C58.1357 51.12 57.6591 50.9967 57.2257 50.75C56.7991 50.5033 56.4591 50.1667 56.2057 49.74C55.9524 49.3133 55.8257 48.83 55.8257 48.29C55.8257 47.7433 55.9524 47.26 56.2057 46.84C56.4591 46.4133 56.7991 46.08 57.2257 45.84C57.6524 45.5933 58.1291 45.47 58.6557 45.47C59.1891 45.47 59.6657 45.5933 60.0857 45.84C60.5124 46.08 60.8491 46.4133 61.0957 46.84C61.3491 47.26 61.4757 47.7433 61.4757 48.29C61.4757 48.8367 61.3491 49.3233 61.0957 49.75C60.8424 50.1767 60.5024 50.5133 60.0757 50.76C59.6491 51 59.1757 51.12 58.6557 51.12ZM58.6557 50.07C58.9757 50.07 59.2591 49.9933 59.5057 49.84C59.7524 49.6867 59.9457 49.4767 60.0857 49.21C60.2324 48.9367 60.3057 48.63 60.3057 48.29C60.3057 47.95 60.2324 47.6467 60.0857 47.38C59.9457 47.1133 59.7524 46.9033 59.5057 46.75C59.2591 46.5967 58.9757 46.52 58.6557 46.52C58.3424 46.52 58.0591 46.5967 57.8057 46.75C57.5591 46.9033 57.3624 47.1133 57.2157 47.38C57.0757 47.6467 57.0057 47.95 57.0057 48.29C57.0057 48.63 57.0757 48.9367 57.2157 49.21C57.3624 49.4767 57.5591 49.6867 57.8057 49.84C58.0591 49.9933 58.3424 50.07 58.6557 50.07ZM64.327 51V45.59H65.407V46.65L65.277 46.51C65.4103 46.17 65.6237 45.9133 65.917 45.74C66.2103 45.56 66.5503 45.47 66.937 45.47C67.337 45.47 67.6903 45.5567 67.997 45.73C68.3037 45.9033 68.5437 46.1433 68.717 46.45C68.8903 46.7567 68.977 47.11 68.977 47.51V51H67.857V47.81C67.857 47.5367 67.807 47.3067 67.707 47.12C67.607 46.9267 67.4637 46.78 67.277 46.68C67.097 46.5733 66.8903 46.52 66.657 46.52C66.4237 46.52 66.2137 46.5733 66.027 46.68C65.847 46.78 65.707 46.9267 65.607 47.12C65.507 47.3133 65.457 47.5433 65.457 47.81V51H64.327ZM70.1864 51V45.59H71.3164V51H70.1864ZM70.1864 44.85V43.55H71.3164V44.85H70.1864ZM73.9375 48.78V48.61C73.9375 48.3167 73.9842 48.0567 74.0775 47.83C74.1775 47.6033 74.3009 47.4 74.4475 47.22C74.6009 47.0333 74.7575 46.8633 74.9175 46.71C75.1442 46.4967 75.3442 46.29 75.5175 46.09C75.6975 45.89 75.7875 45.6567 75.7875 45.39C75.7875 45.2233 75.7475 45.0733 75.6675 44.94C75.5875 44.8 75.4675 44.69 75.3075 44.61C75.1542 44.5233 74.9642 44.48 74.7375 44.48C74.4242 44.48 74.1542 44.5767 73.9275 44.77C73.7075 44.9567 73.5675 45.21 73.5075 45.53L72.4575 45.28C72.5175 44.9133 72.6509 44.5933 72.8575 44.32C73.0709 44.04 73.3375 43.8233 73.6575 43.67C73.9842 43.51 74.3509 43.43 74.7575 43.43C75.2175 43.43 75.6109 43.5233 75.9375 43.71C76.2709 43.89 76.5242 44.1267 76.6975 44.42C76.8709 44.7133 76.9575 45.03 76.9575 45.37C76.9575 45.6433 76.9009 45.89 76.7875 46.11C76.6809 46.3233 76.5409 46.52 76.3675 46.7C76.2009 46.88 76.0275 47.0567 75.8475 47.23C75.6342 47.4367 75.4442 47.6533 75.2775 47.88C75.1175 48.1 75.0375 48.36 75.0375 48.66V48.78H73.9375ZM73.9375 51V49.7H75.0875V51H73.9375Z" fill="black"/>
<path d="M159.77 138V130.55H160.87L163.67 134.43H163.12L165.87 130.55H166.97V138H165.8V131.94L166.24 132.06L163.43 135.9H163.31L160.56 132.06L160.95 131.94V138H159.77ZM171.01 138.12C170.49 138.12 170.014 137.997 169.58 137.75C169.154 137.503 168.814 137.167 168.56 136.74C168.307 136.313 168.18 135.83 168.18 135.29C168.18 134.743 168.307 134.26 168.56 133.84C168.814 133.413 169.154 133.08 169.58 132.84C170.007 132.593 170.484 132.47 171.01 132.47C171.544 132.47 172.02 132.593 172.44 132.84C172.867 133.08 173.204 133.413 173.45 133.84C173.704 134.26 173.83 134.743 173.83 135.29C173.83 135.837 173.704 136.323 173.45 136.75C173.197 137.177 172.857 137.513 172.43 137.76C172.004 138 171.53 138.12 171.01 138.12ZM171.01 137.07C171.33 137.07 171.614 136.993 171.86 136.84C172.107 136.687 172.3 136.477 172.44 136.21C172.587 135.937 172.66 135.63 172.66 135.29C172.66 134.95 172.587 134.647 172.44 134.38C172.3 134.113 172.107 133.903 171.86 133.75C171.614 133.597 171.33 133.52 171.01 133.52C170.697 133.52 170.414 133.597 170.16 133.75C169.914 133.903 169.717 134.113 169.57 134.38C169.43 134.647 169.36 134.95 169.36 135.29C169.36 135.63 169.43 135.937 169.57 136.21C169.717 136.477 169.914 136.687 170.16 136.84C170.414 136.993 170.697 137.07 171.01 137.07ZM177.991 138L176.131 132.59H177.331L178.751 136.9H178.331L179.781 132.59H180.811L182.251 136.9H181.831L183.261 132.59H184.461L182.591 138H181.571L180.111 133.59H180.481L179.021 138H177.991ZM186.661 138.12C186.294 138.12 185.971 138.057 185.691 137.93C185.418 137.797 185.204 137.617 185.051 137.39C184.898 137.157 184.821 136.883 184.821 136.57C184.821 136.277 184.884 136.013 185.011 135.78C185.144 135.547 185.348 135.35 185.621 135.19C185.894 135.03 186.238 134.917 186.651 134.85L188.531 134.54V135.43L186.871 135.72C186.571 135.773 186.351 135.87 186.211 136.01C186.071 136.143 186.001 136.317 186.001 136.53C186.001 136.737 186.078 136.907 186.231 137.04C186.391 137.167 186.594 137.23 186.841 137.23C187.148 137.23 187.414 137.163 187.641 137.03C187.874 136.897 188.054 136.72 188.181 136.5C188.308 136.273 188.371 136.023 188.371 135.75V134.36C188.371 134.093 188.271 133.877 188.071 133.71C187.878 133.537 187.618 133.45 187.291 133.45C186.991 133.45 186.728 133.53 186.501 133.69C186.281 133.843 186.118 134.043 186.011 134.29L185.071 133.82C185.171 133.553 185.334 133.32 185.561 133.12C185.788 132.913 186.051 132.753 186.351 132.64C186.658 132.527 186.981 132.47 187.321 132.47C187.748 132.47 188.124 132.55 188.451 132.71C188.784 132.87 189.041 133.093 189.221 133.38C189.408 133.66 189.501 133.987 189.501 134.36V138H188.421V137.02L188.651 137.05C188.524 137.27 188.361 137.46 188.161 137.62C187.968 137.78 187.744 137.903 187.491 137.99C187.244 138.077 186.968 138.12 186.661 138.12ZM195.07 138.12C194.55 138.12 194.083 137.997 193.67 137.75C193.263 137.497 192.94 137.157 192.7 136.73C192.467 136.303 192.35 135.823 192.35 135.29C192.35 134.757 192.47 134.277 192.71 133.85C192.95 133.423 193.273 133.087 193.68 132.84C194.087 132.593 194.547 132.47 195.06 132.47C195.493 132.47 195.877 132.557 196.21 132.73C196.543 132.903 196.807 133.143 197 133.45L196.83 133.71V130.43H197.95V138H196.88V136.9L197.01 137.11C196.823 137.437 196.557 137.687 196.21 137.86C195.863 138.033 195.483 138.12 195.07 138.12ZM195.18 137.07C195.493 137.07 195.773 136.993 196.02 136.84C196.273 136.687 196.47 136.477 196.61 136.21C196.757 135.937 196.83 135.63 196.83 135.29C196.83 134.95 196.757 134.647 196.61 134.38C196.47 134.113 196.273 133.903 196.02 133.75C195.773 133.597 195.493 133.52 195.18 133.52C194.867 133.52 194.583 133.597 194.33 133.75C194.077 133.903 193.88 134.113 193.74 134.38C193.6 134.647 193.53 134.95 193.53 135.29C193.53 135.63 193.6 135.937 193.74 136.21C193.88 136.477 194.073 136.687 194.32 136.84C194.573 136.993 194.86 137.07 195.18 137.07ZM200.889 138.12C200.523 138.12 200.199 138.057 199.919 137.93C199.646 137.797 199.433 137.617 199.279 137.39C199.126 137.157 199.049 136.883 199.049 136.57C199.049 136.277 199.113 136.013 199.239 135.78C199.373 135.547 199.576 135.35 199.849 135.19C200.123 135.03 200.466 134.917 200.879 134.85L202.759 134.54V135.43L201.099 135.72C200.799 135.773 200.579 135.87 200.439 136.01C200.299 136.143 200.229 136.317 200.229 136.53C200.229 136.737 200.306 136.907 200.459 137.04C200.619 137.167 200.823 137.23 201.069 137.23C201.376 137.23 201.643 137.163 201.869 137.03C202.103 136.897 202.283 136.72 202.409 136.5C202.536 136.273 202.599 136.023 202.599 135.75V134.36C202.599 134.093 202.499 133.877 202.299 133.71C202.106 133.537 201.846 133.45 201.519 133.45C201.219 133.45 200.956 133.53 200.729 133.69C200.509 133.843 200.346 134.043 200.239 134.29L199.299 133.82C199.399 133.553 199.563 133.32 199.789 133.12C200.016 132.913 200.279 132.753 200.579 132.64C200.886 132.527 201.209 132.47 201.549 132.47C201.976 132.47 202.353 132.55 202.679 132.71C203.013 132.87 203.269 133.093 203.449 133.38C203.636 133.66 203.729 133.987 203.729 134.36V138H202.649V137.02L202.879 137.05C202.753 137.27 202.589 137.46 202.389 137.62C202.196 137.78 201.973 137.903 201.719 137.99C201.473 138.077 201.196 138.12 200.889 138.12ZM207.551 138.12C207.031 138.12 206.564 137.997 206.151 137.75C205.744 137.497 205.421 137.157 205.181 136.73C204.947 136.303 204.831 135.823 204.831 135.29C204.831 134.757 204.951 134.277 205.191 133.85C205.431 133.423 205.754 133.087 206.161 132.84C206.567 132.593 207.027 132.47 207.541 132.47C207.974 132.47 208.357 132.557 208.691 132.73C209.024 132.903 209.287 133.143 209.481 133.45L209.311 133.71V130.43H210.431V138H209.361V136.9L209.491 137.11C209.304 137.437 209.037 137.687 208.691 137.86C208.344 138.033 207.964 138.12 207.551 138.12ZM207.661 137.07C207.974 137.07 208.254 136.993 208.501 136.84C208.754 136.687 208.951 136.477 209.091 136.21C209.237 135.937 209.311 135.63 209.311 135.29C209.311 134.95 209.237 134.647 209.091 134.38C208.951 134.113 208.754 133.903 208.501 133.75C208.254 133.597 207.974 133.52 207.661 133.52C207.347 133.52 207.064 133.597 206.811 133.75C206.557 133.903 206.361 134.113 206.221 134.38C206.081 134.647 206.011 134.95 206.011 135.29C206.011 135.63 206.081 135.937 206.221 136.21C206.361 136.477 206.554 136.687 206.801 136.84C207.054 136.993 207.341 137.07 207.661 137.07ZM213.37 138.12C213.003 138.12 212.68 138.057 212.4 137.93C212.127 137.797 211.913 137.617 211.76 137.39C211.607 137.157 211.53 136.883 211.53 136.57C211.53 136.277 211.593 136.013 211.72 135.78C211.853 135.547 212.057 135.35 212.33 135.19C212.603 135.03 212.947 134.917 213.36 134.85L215.24 134.54V135.43L213.58 135.72C213.28 135.773 213.06 135.87 212.92 136.01C212.78 136.143 212.71 136.317 212.71 136.53C212.71 136.737 212.787 136.907 212.94 137.04C213.1 137.167 213.303 137.23 213.55 137.23C213.857 137.23 214.123 137.163 214.35 137.03C214.583 136.897 214.763 136.72 214.89 136.5C215.017 136.273 215.08 136.023 215.08 135.75V134.36C215.08 134.093 214.98 133.877 214.78 133.71C214.587 133.537 214.327 133.45 214 133.45C213.7 133.45 213.437 133.53 213.21 133.69C212.99 133.843 212.827 134.043 212.72 134.29L211.78 133.82C211.88 133.553 212.043 133.32 212.27 133.12C212.497 132.913 212.76 132.753 213.06 132.64C213.367 132.527 213.69 132.47 214.03 132.47C214.457 132.47 214.833 132.55 215.16 132.71C215.493 132.87 215.75 133.093 215.93 133.38C216.117 133.66 216.21 133.987 216.21 134.36V138H215.13V137.02L215.36 137.05C215.233 137.27 215.07 137.46 214.87 137.62C214.677 137.78 214.453 137.903 214.2 137.99C213.953 138.077 213.677 138.12 213.37 138.12ZM217.821 139.47V138.92C218.041 138.867 218.211 138.763 218.331 138.61C218.451 138.463 218.524 138.26 218.551 138H218.021V136.7H219.171V137.55C219.171 138.083 219.058 138.513 218.831 138.84C218.604 139.167 218.268 139.377 217.821 139.47ZM225.1 138.12C224.56 138.12 224.08 137.997 223.66 137.75C223.247 137.497 222.924 137.157 222.69 136.73C222.457 136.297 222.34 135.813 222.34 135.28C222.34 134.733 222.457 134.25 222.69 133.83C222.93 133.41 223.25 133.08 223.65 132.84C224.05 132.593 224.504 132.47 225.01 132.47C225.417 132.47 225.78 132.54 226.1 132.68C226.42 132.82 226.69 133.013 226.91 133.26C227.13 133.5 227.297 133.777 227.41 134.09C227.53 134.403 227.59 134.737 227.59 135.09C227.59 135.177 227.587 135.267 227.58 135.36C227.574 135.453 227.56 135.54 227.54 135.62H223.23V134.72H226.9L226.36 135.13C226.427 134.803 226.404 134.513 226.29 134.26C226.184 134 226.017 133.797 225.79 133.65C225.57 133.497 225.31 133.42 225.01 133.42C224.71 133.42 224.444 133.497 224.21 133.65C223.977 133.797 223.797 134.01 223.67 134.29C223.544 134.563 223.494 134.897 223.52 135.29C223.487 135.657 223.537 135.977 223.67 136.25C223.81 136.523 224.004 136.737 224.25 136.89C224.504 137.043 224.79 137.12 225.11 137.12C225.437 137.12 225.714 137.047 225.94 136.9C226.174 136.753 226.357 136.563 226.49 136.33L227.41 136.78C227.304 137.033 227.137 137.263 226.91 137.47C226.69 137.67 226.424 137.83 226.11 137.95C225.804 138.063 225.467 138.12 225.1 138.12ZM232.441 138.12C231.888 138.12 231.401 137.983 230.981 137.71C230.568 137.437 230.278 137.07 230.111 136.61L230.981 136.2C231.128 136.507 231.328 136.75 231.581 136.93C231.841 137.11 232.128 137.2 232.441 137.2C232.708 137.2 232.925 137.14 233.091 137.02C233.258 136.9 233.341 136.737 233.341 136.53C233.341 136.397 233.305 136.29 233.231 136.21C233.158 136.123 233.065 136.053 232.951 136C232.845 135.947 232.735 135.907 232.621 135.88L231.771 135.64C231.305 135.507 230.955 135.307 230.721 135.04C230.495 134.767 230.381 134.45 230.381 134.09C230.381 133.763 230.465 133.48 230.631 133.24C230.798 132.993 231.028 132.803 231.321 132.67C231.615 132.537 231.945 132.47 232.311 132.47C232.805 132.47 233.245 132.593 233.631 132.84C234.018 133.08 234.291 133.417 234.451 133.85L233.581 134.26C233.475 134 233.305 133.793 233.071 133.64C232.845 133.487 232.588 133.41 232.301 133.41C232.055 133.41 231.858 133.47 231.711 133.59C231.565 133.703 231.491 133.853 231.491 134.04C231.491 134.167 231.525 134.273 231.591 134.36C231.658 134.44 231.745 134.507 231.851 134.56C231.958 134.607 232.068 134.647 232.181 134.68L233.061 134.94C233.508 135.067 233.851 135.267 234.091 135.54C234.331 135.807 234.451 136.127 234.451 136.5C234.451 136.82 234.365 137.103 234.191 137.35C234.025 137.59 233.791 137.78 233.491 137.92C233.191 138.053 232.841 138.12 232.441 138.12ZM238.098 138.12C237.558 138.12 237.078 137.997 236.658 137.75C236.245 137.497 235.922 137.157 235.688 136.73C235.455 136.297 235.338 135.813 235.338 135.28C235.338 134.733 235.455 134.25 235.688 133.83C235.928 133.41 236.248 133.08 236.648 132.84C237.048 132.593 237.502 132.47 238.008 132.47C238.415 132.47 238.778 132.54 239.098 132.68C239.418 132.82 239.688 133.013 239.908 133.26C240.128 133.5 240.295 133.777 240.408 134.09C240.528 134.403 240.588 134.737 240.588 135.09C240.588 135.177 240.585 135.267 240.578 135.36C240.572 135.453 240.558 135.54 240.538 135.62H236.228V134.72H239.898L239.358 135.13C239.425 134.803 239.402 134.513 239.288 134.26C239.182 134 239.015 133.797 238.788 133.65C238.568 133.497 238.308 133.42 238.008 133.42C237.708 133.42 237.442 133.497 237.208 133.65C236.975 133.797 236.795 134.01 236.668 134.29C236.542 134.563 236.492 134.897 236.518 135.29C236.485 135.657 236.535 135.977 236.668 136.25C236.808 136.523 237.002 136.737 237.248 136.89C237.502 137.043 237.788 137.12 238.108 137.12C238.435 137.12 238.712 137.047 238.938 136.9C239.172 136.753 239.355 136.563 239.488 136.33L240.408 136.78C240.302 137.033 240.135 137.263 239.908 137.47C239.688 137.67 239.422 137.83 239.108 137.95C238.802 138.063 238.465 138.12 238.098 138.12ZM242.191 138V136.7H243.341V138H242.191ZM159.77 153V145.55H162.91C163.377 145.55 163.78 145.633 164.12 145.8C164.46 145.96 164.72 146.193 164.9 146.5C165.08 146.8 165.17 147.157 165.17 147.57C165.17 147.93 165.077 148.26 164.89 148.56C164.71 148.853 164.427 149.087 164.04 149.26V148.76C164.38 148.893 164.657 149.063 164.87 149.27C165.083 149.47 165.237 149.697 165.33 149.95C165.43 150.203 165.48 150.47 165.48 150.75C165.48 151.45 165.25 152 164.79 152.4C164.337 152.8 163.713 153 162.92 153H159.77ZM160.95 151.95H163.01C163.403 151.95 163.717 151.843 163.95 151.63C164.183 151.41 164.3 151.12 164.3 150.76C164.3 150.393 164.183 150.103 163.95 149.89C163.717 149.67 163.403 149.56 163.01 149.56H160.95V151.95ZM160.95 148.52H162.94C163.26 148.52 163.517 148.43 163.71 148.25C163.903 148.063 164 147.82 164 147.52C164 147.22 163.903 146.987 163.71 146.82C163.517 146.653 163.26 146.57 162.94 146.57H160.95V148.52ZM168.204 153.12C167.837 153.12 167.514 153.057 167.234 152.93C166.96 152.797 166.747 152.617 166.594 152.39C166.44 152.157 166.364 151.883 166.364 151.57C166.364 151.277 166.427 151.013 166.554 150.78C166.687 150.547 166.89 150.35 167.164 150.19C167.437 150.03 167.78 149.917 168.194 149.85L170.074 149.54V150.43L168.414 150.72C168.114 150.773 167.894 150.87 167.754 151.01C167.614 151.143 167.544 151.317 167.544 151.53C167.544 151.737 167.62 151.907 167.774 152.04C167.934 152.167 168.137 152.23 168.384 152.23C168.69 152.23 168.957 152.163 169.184 152.03C169.417 151.897 169.597 151.72 169.724 151.5C169.85 151.273 169.914 151.023 169.914 150.75V149.36C169.914 149.093 169.814 148.877 169.614 148.71C169.42 148.537 169.16 148.45 168.834 148.45C168.534 148.45 168.27 148.53 168.044 148.69C167.824 148.843 167.66 149.043 167.554 149.29L166.614 148.82C166.714 148.553 166.877 148.32 167.104 148.12C167.33 147.913 167.594 147.753 167.894 147.64C168.2 147.527 168.524 147.47 168.864 147.47C169.29 147.47 169.667 147.55 169.994 147.71C170.327 147.87 170.584 148.093 170.764 148.38C170.95 148.66 171.044 148.987 171.044 149.36V153H169.964V152.02L170.194 152.05C170.067 152.27 169.904 152.46 169.704 152.62C169.51 152.78 169.287 152.903 169.034 152.99C168.787 153.077 168.51 153.12 168.204 153.12ZM173.675 153L171.815 147.59H173.015L174.435 151.9H174.015L175.465 147.59H176.495L177.935 151.9H177.515L178.945 147.59H180.145L178.275 153H177.255L175.795 148.59H176.165L174.705 153H173.675ZM183.432 153.12C182.912 153.12 182.435 152.997 182.002 152.75C181.575 152.503 181.235 152.167 180.982 151.74C180.729 151.313 180.602 150.83 180.602 150.29C180.602 149.743 180.729 149.26 180.982 148.84C181.235 148.413 181.575 148.08 182.002 147.84C182.429 147.593 182.905 147.47 183.432 147.47C183.965 147.47 184.442 147.593 184.862 147.84C185.289 148.08 185.625 148.413 185.872 148.84C186.125 149.26 186.252 149.743 186.252 150.29C186.252 150.837 186.125 151.323 185.872 151.75C185.619 152.177 185.279 152.513 184.852 152.76C184.425 153 183.952 153.12 183.432 153.12ZM183.432 152.07C183.752 152.07 184.035 151.993 184.282 151.84C184.529 151.687 184.722 151.477 184.862 151.21C185.009 150.937 185.082 150.63 185.082 150.29C185.082 149.95 185.009 149.647 184.862 149.38C184.722 149.113 184.529 148.903 184.282 148.75C184.035 148.597 183.752 148.52 183.432 148.52C183.119 148.52 182.835 148.597 182.582 148.75C182.335 148.903 182.139 149.113 181.992 149.38C181.852 149.647 181.782 149.95 181.782 150.29C181.782 150.63 181.852 150.937 181.992 151.21C182.139 151.477 182.335 151.687 182.582 151.84C182.835 151.993 183.119 152.07 183.432 152.07ZM189.103 153V147.59H190.183V148.65L190.053 148.51C190.187 148.17 190.4 147.913 190.693 147.74C190.987 147.56 191.327 147.47 191.713 147.47C192.113 147.47 192.467 147.557 192.773 147.73C193.08 147.903 193.32 148.143 193.493 148.45C193.667 148.757 193.753 149.11 193.753 149.51V153H192.633V149.81C192.633 149.537 192.583 149.307 192.483 149.12C192.383 148.927 192.24 148.78 192.053 148.68C191.873 148.573 191.667 148.52 191.433 148.52C191.2 148.52 190.99 148.573 190.803 148.68C190.623 148.78 190.483 148.927 190.383 149.12C190.283 149.313 190.233 149.543 190.233 149.81V153H189.103ZM194.963 153V147.59H196.093V153H194.963ZM194.963 146.85V145.55H196.093V146.85H194.963ZM201.772 153.12C201.252 153.12 200.775 152.997 200.342 152.75C199.915 152.503 199.575 152.167 199.322 151.74C199.069 151.313 198.942 150.83 198.942 150.29C198.942 149.743 199.069 149.26 199.322 148.84C199.575 148.413 199.915 148.08 200.342 147.84C200.769 147.593 201.245 147.47 201.772 147.47C202.305 147.47 202.782 147.593 203.202 147.84C203.629 148.08 203.965 148.413 204.212 148.84C204.465 149.26 204.592 149.743 204.592 150.29C204.592 150.837 204.465 151.323 204.212 151.75C203.959 152.177 203.619 152.513 203.192 152.76C202.765 153 202.292 153.12 201.772 153.12ZM201.772 152.07C202.092 152.07 202.375 151.993 202.622 151.84C202.869 151.687 203.062 151.477 203.202 151.21C203.349 150.937 203.422 150.63 203.422 150.29C203.422 149.95 203.349 149.647 203.202 149.38C203.062 149.113 202.869 148.903 202.622 148.75C202.375 148.597 202.092 148.52 201.772 148.52C201.459 148.52 201.175 148.597 200.922 148.75C200.675 148.903 200.479 149.113 200.332 149.38C200.192 149.647 200.122 149.95 200.122 150.29C200.122 150.63 200.192 150.937 200.332 151.21C200.479 151.477 200.675 151.687 200.922 151.84C201.175 151.993 201.459 152.07 201.772 152.07ZM206.995 150.78V150.61C206.995 150.317 207.042 150.057 207.135 149.83C207.235 149.603 207.358 149.4 207.505 149.22C207.658 149.033 207.815 148.863 207.975 148.71C208.202 148.497 208.402 148.29 208.575 148.09C208.755 147.89 208.845 147.657 208.845 147.39C208.845 147.223 208.805 147.073 208.725 146.94C208.645 146.8 208.525 146.69 208.365 146.61C208.212 146.523 208.022 146.48 207.795 146.48C207.482 146.48 207.212 146.577 206.985 146.77C206.765 146.957 206.625 147.21 206.565 147.53L205.515 147.28C205.575 146.913 205.708 146.593 205.915 146.32C206.128 146.04 206.395 145.823 206.715 145.67C207.042 145.51 207.408 145.43 207.815 145.43C208.275 145.43 208.668 145.523 208.995 145.71C209.328 145.89 209.582 146.127 209.755 146.42C209.928 146.713 210.015 147.03 210.015 147.37C210.015 147.643 209.958 147.89 209.845 148.11C209.738 148.323 209.598 148.52 209.425 148.7C209.258 148.88 209.085 149.057 208.905 149.23C208.692 149.437 208.502 149.653 208.335 149.88C208.175 150.1 208.095 150.36 208.095 150.66V150.78H206.995ZM206.995 153V151.7H208.145V153H206.995Z" fill="black"/>
</g>
<defs>
<clipPath id="clip0_1_353">
<rect width="263" height="220" fill="white"/>
</clipPath>
</defs>
</svg>
