<svg width="138" height="526" viewBox="0 0 138 526" fill="none" xmlns="http://www.w3.org/2000/svg">
<path d="M89.7 276C87.745 276 86.1051 275.386 84.7803 274.157C83.4555 272.928 82.7954 271.409 82.8 269.6V262.72C80.155 262.293 77.6526 261.679 75.2928 260.877C72.933 260.075 70.7204 258.982 68.655 257.6L61.755 264C60.375 265.173 58.7374 265.788 56.8422 265.843C54.947 265.899 53.3071 265.284 51.9225 264C50.5425 262.72 49.8525 261.199 49.8525 259.437C49.8525 257.675 50.5425 256.156 51.9225 254.88L58.995 248.32C58.65 247.787 58.305 247.228 57.96 246.643C57.615 246.059 57.27 245.498 56.925 244.96L52.2675 236.48L43.815 244.32C42.435 245.493 40.825 246.108 38.985 246.163C37.145 246.219 35.535 245.604 34.155 244.32C32.775 243.04 32.085 241.547 32.085 239.84C32.085 238.133 32.775 236.64 34.155 235.36L42.6075 227.36L33.465 223.2C32.89 222.987 32.3725 222.748 31.9125 222.483C31.4525 222.219 30.935 221.924 30.36 221.6L24.15 227.36C22.77 228.533 21.1324 229.148 19.2372 229.203C17.342 229.259 15.7021 228.644 14.3175 227.36C12.9375 226.08 12.2475 224.587 12.2475 222.88C12.2475 221.173 12.9375 219.68 14.3175 218.4L20.355 212.8C18.745 210.773 17.4501 208.614 16.4703 206.323C15.4905 204.032 14.7729 201.658 14.3175 199.2H6.90002C4.94502 199.2 3.30512 198.586 1.98032 197.357C0.655523 196.128 -0.00457612 194.609 2.38754e-05 192.8C2.38754e-05 190.987 0.662424 189.466 1.98722 188.237C3.31202 187.008 4.94962 186.396 6.90002 186.4H14.6625C15.2375 184.373 15.9275 182.453 16.7325 180.64C17.5375 178.827 18.5725 177.067 19.8375 175.36L13.8 169.76C12.42 168.48 11.73 166.987 11.73 165.28C11.73 163.573 12.42 162.08 13.8 160.8C15.18 159.52 16.79 158.88 18.63 158.88C20.47 158.88 22.08 159.52 23.46 160.8L29.4975 166.4C31.3375 165.227 33.235 164.267 35.19 163.52C37.145 162.773 39.215 162.133 41.4 161.6V154.4C41.4 152.587 42.0624 151.066 43.3872 149.837C44.712 148.608 46.3496 147.996 48.3 148C50.255 148 51.8949 148.614 53.2197 149.843C54.5445 151.072 55.2046 152.591 55.2 154.4V161.28C57.96 161.707 60.5751 162.4 63.0453 163.36C65.5155 164.32 67.8454 165.547 70.035 167.04L76.0725 161.44C77.4525 160.16 79.0901 159.52 80.9853 159.52C82.8805 159.52 84.5204 160.16 85.905 161.44C87.285 162.72 87.975 164.213 87.975 165.92C87.975 167.627 87.285 169.12 85.905 170.4L79.5225 176.32C79.7525 176.747 80.0101 177.173 80.2953 177.6C80.5805 178.027 80.8404 178.507 81.075 179.04L85.3875 187.04L93.3225 179.68C94.7025 178.4 96.3424 177.76 98.2422 177.76C100.142 177.76 101.78 178.4 103.155 179.68C104.535 180.96 105.225 182.481 105.225 184.243C105.225 186.005 104.535 187.524 103.155 188.8L94.875 196.32L104.535 200.8C105.225 201.12 105.945 201.468 106.695 201.843C107.444 202.219 108.105 202.618 108.675 203.04L115.575 196.64C116.955 195.36 118.565 194.72 120.405 194.72C122.245 194.72 123.855 195.36 125.235 196.64C126.615 197.92 127.305 199.441 127.305 201.203C127.305 202.965 126.615 204.484 125.235 205.76L118.335 212C119.715 213.92 120.837 215.947 121.702 218.08C122.567 220.213 123.227 222.453 123.682 224.8H131.1C133.055 224.8 134.695 225.414 136.02 226.643C137.344 227.872 138.005 229.391 138 231.2C138 233.013 137.338 234.534 136.013 235.763C134.688 236.992 133.05 237.604 131.1 237.6H123.337C122.762 239.627 122.072 241.521 121.267 243.283C120.462 245.045 119.427 246.778 118.162 248.48L124.027 253.92C125.407 255.2 126.097 256.721 126.097 258.483C126.097 260.245 125.407 261.764 124.027 263.04C122.647 264.213 121.008 264.828 119.108 264.883C117.208 264.939 115.57 264.324 114.195 263.04L108.502 257.6C106.662 258.773 104.765 259.733 102.81 260.48C100.855 261.227 98.785 261.867 96.6 262.4V269.6C96.6 271.413 95.9399 272.934 94.6197 274.163C93.2995 275.392 91.6596 276.004 89.7 276ZM51.75 202.4C54.625 202.4 57.0699 201.466 59.0847 199.597C61.0995 197.728 62.1046 195.462 62.1 192.8C62.1 190.133 61.0926 187.866 59.0778 185.997C57.063 184.128 54.6204 183.196 51.75 183.2C48.875 183.2 46.4301 184.134 44.4153 186.003C42.4005 187.872 41.3954 190.138 41.4 192.8C41.4 195.467 42.4074 197.734 44.4222 199.603C46.437 201.472 48.8796 202.404 51.75 202.4ZM86.25 242.4C88.665 242.4 90.7074 241.626 92.3772 240.077C94.047 238.528 94.8796 236.636 94.875 234.4C94.875 232.16 94.0401 230.266 92.3703 228.717C90.7005 227.168 88.6604 226.396 86.25 226.4C83.835 226.4 81.7926 227.174 80.1228 228.723C78.453 230.272 77.6204 232.164 77.625 234.4C77.625 236.64 78.4599 238.534 80.1297 240.083C81.7995 241.632 83.8396 242.404 86.25 242.4Z" fill="#DFCEFF"/>
<rect width="138" height="526" rx="30" fill="#957EBE" fill-opacity="0.39"/>
</svg>
