<svg width="146" height="526" viewBox="0 0 146 526" fill="none" xmlns="http://www.w3.org/2000/svg">
<path d="M57.6667 172.667L73 157M42.3333 258.833L103.667 196.167M73 298L88.3333 282.333M107.5 282.333C112.583 282.333 117.458 280.27 121.053 276.598C124.647 272.925 126.667 267.944 126.667 262.75C126.667 257.556 124.647 252.575 121.053 248.902C117.458 245.23 112.583 243.167 107.5 243.167C102.417 243.167 97.5416 245.23 93.9471 248.902C90.3527 252.575 88.3333 257.556 88.3333 262.75C88.3333 267.944 90.3527 272.925 93.9471 276.598C97.5416 280.27 102.417 282.333 107.5 282.333ZM38.5 211.833C43.5833 211.833 48.4584 209.77 52.0529 206.098C55.6473 202.425 57.6667 197.444 57.6667 192.25C57.6667 187.056 55.6473 182.075 52.0529 178.402C48.4584 174.73 43.5833 172.667 38.5 172.667C33.4167 172.667 28.5416 174.73 24.9471 178.402C21.3527 182.075 19.3333 187.056 19.3333 192.25C19.3333 197.444 21.3527 202.425 24.9471 206.098C28.5416 209.77 33.4167 211.833 38.5 211.833ZM23.1667 298C28.25 298 33.1251 295.937 36.7195 292.264C40.314 288.592 42.3333 283.61 42.3333 278.417C42.3333 273.223 40.314 268.242 36.7195 264.569C33.1251 260.897 28.25 258.833 23.1667 258.833C18.0834 258.833 13.2082 260.897 9.61379 264.569C6.01934 268.242 4 273.223 4 278.417C4 283.61 6.01934 288.592 9.61379 292.264C13.2082 295.937 18.0834 298 23.1667 298ZM122.833 196.167C127.917 196.167 132.792 194.103 136.386 190.431C139.981 186.758 142 181.777 142 176.583C142 171.39 139.981 166.408 136.386 162.736C132.792 159.063 127.917 157 122.833 157C117.75 157 112.875 159.063 109.28 162.736C105.686 166.408 103.667 171.39 103.667 176.583C103.667 181.777 105.686 186.758 109.28 190.431C112.875 194.103 117.75 196.167 122.833 196.167Z" stroke="#DFCEFF" stroke-width="8" stroke-linecap="round" stroke-linejoin="round"/>
<rect x="4" width="138" height="526" rx="30" fill="#957EBE" fill-opacity="0.39"/>
</svg>
