<svg width="138" height="526" viewBox="0 0 138 526" fill="none" xmlns="http://www.w3.org/2000/svg">
<path d="M24.15 332C22.195 332 20.5551 331.3 19.2303 329.899C17.9055 328.498 17.2454 326.767 17.25 324.705C17.25 322.638 17.9124 320.904 19.2372 319.503C20.562 318.103 22.1996 317.405 24.15 317.41H55.2V310.115H13.8C11.845 310.115 10.2051 309.414 8.88032 308.014C7.55552 306.613 6.89542 304.881 6.90002 302.819C6.90002 300.752 7.56242 299.019 8.88722 297.618C10.212 296.217 11.8496 295.519 13.8 295.524H55.2V288.229H6.90002C4.94502 288.229 3.30512 287.529 1.98032 286.128C0.655523 284.727 -0.00457612 282.996 2.38754e-05 280.934C2.38754e-05 278.867 0.662424 277.133 1.98722 275.732C3.31202 274.332 4.94962 273.634 6.90002 273.639H55.2V266.344H17.25C15.295 266.344 13.6551 265.646 12.3303 264.25C11.0055 262.854 10.3454 261.12 10.35 259.048C10.35 256.981 11.0124 255.25 12.3372 253.854C13.662 252.458 15.2996 251.758 17.25 251.753H72.45L65.895 238.257C64.63 235.461 64.4276 232.664 65.2878 229.868C66.148 227.071 67.9029 225.004 70.5525 223.667L72.45 222.573L111.953 262.514C113.678 264.216 115 266.222 115.92 268.532C116.84 270.842 117.3 273.213 117.3 275.645V313.762C117.3 318.869 115.632 323.185 112.298 326.711C108.963 330.237 104.88 332 100.05 332H24.15ZM56.235 217.648L37.605 196.857C36.34 195.398 35.7351 193.635 35.7903 191.568C35.8455 189.501 36.5654 187.799 37.95 186.462C39.33 185.124 40.9699 184.485 42.8697 184.543C44.7695 184.601 46.3496 185.362 47.61 186.826L67.4475 208.894C64.4575 210.475 62.2426 211.812 60.8028 212.906C59.363 214.001 57.8404 215.581 56.235 217.648ZM45.3675 237.163L29.67 219.837C28.405 218.378 27.8001 216.615 27.8553 214.548C27.9105 212.481 28.6304 210.779 30.015 209.441C31.395 208.104 33.0326 207.467 34.9278 207.53C36.823 207.593 38.4054 208.352 39.675 209.806L52.785 224.214C51.98 226.281 51.4625 228.44 51.2325 230.692C51.0025 232.944 51.06 235.101 51.405 237.163H45.3675ZM126.443 258.501C125.753 257.285 125.005 256.13 124.2 255.036C123.395 253.942 122.475 252.908 121.44 251.936L74.6925 204.699L73.83 205.247L47.955 176.248C46.69 174.789 46.0575 173.058 46.0575 171.054C46.0575 169.05 46.7475 167.377 48.1275 166.035C49.5075 164.698 51.175 164.058 53.13 164.116C55.085 164.175 56.695 164.936 57.96 166.4L91.08 203.423L96.255 198.316L70.035 169.318C68.77 167.859 68.1651 166.096 68.2203 164.029C68.2755 161.962 68.9954 160.26 70.38 158.922C71.76 157.585 73.3999 156.945 75.2997 157.004C77.1995 157.062 78.7796 157.823 80.04 159.287L117.99 201.599L122.82 187.191C123.74 184.395 125.523 182.357 128.168 181.078C130.812 179.799 133.458 179.648 136.103 180.625L138 181.355V239.169C138 241.722 137.51 244.154 136.53 246.464C135.551 248.774 134.2 250.781 132.48 252.483L126.443 258.501Z" fill="#DFCEFF"/>
<rect width="138" height="526" rx="30" fill="#957EBE" fill-opacity="0.39"/>
</svg>
