<svg width="138" height="526" viewBox="0 0 138 526" fill="none" xmlns="http://www.w3.org/2000/svg">
<path d="M98.5868 204.485C91.9849 197.509 84.8836 191.08 77.346 185.255C82.5011 181.963 87.9122 179.14 93.5206 176.817C95.008 176.228 96.4023 175.787 97.7967 175.345C98.9281 176.79 100.385 177.911 102.035 178.607C103.684 179.302 105.472 179.548 107.235 179.324C108.998 179.099 110.679 178.41 112.124 177.321C113.57 176.231 114.732 174.776 115.505 173.089C118.824 173.406 121.956 174.852 124.429 177.209C129.96 183.047 130.099 194.821 124.894 209.489C127.171 212.678 129.263 215.916 131.168 219.301C131.959 217.338 132.795 215.425 133.446 213.512C140.278 194.625 139.395 179.172 130.983 170.44C126.774 166.233 121.292 163.731 115.505 163.375C114.54 161.251 112.966 159.501 111.006 158.372C109.046 157.244 106.8 156.794 104.585 157.087C102.37 157.38 100.299 158.401 98.6633 160.004C97.028 161.608 95.9118 163.714 95.4727 166.024C93.753 166.564 92.0333 167.104 90.2206 167.84C82.7944 170.926 75.6788 174.788 68.9798 179.368C62.2672 174.729 55.1368 170.802 47.6925 167.643C29.7981 160.481 15.1573 161.364 6.93055 170.243C-0.784932 178.436 -2.03986 192.025 3.07281 208.802C1.9059 210.386 1.16406 212.272 0.925047 214.262C0.686033 216.253 0.958638 218.274 1.71429 220.115C2.46995 221.956 3.68084 223.549 5.22006 224.726C6.75928 225.903 8.57017 226.622 10.4629 226.806C11.9503 229.799 13.577 232.791 15.3897 235.735C11.0734 242.821 7.44517 250.348 4.56013 258.203C-2.27226 277.041 -1.38916 292.543 7.02351 301.226C9.58305 303.751 12.5969 305.708 15.8863 306.98C19.1757 308.252 22.6736 308.815 26.1728 308.634C33.5973 308.378 40.9178 306.717 47.7855 303.728C55.2224 300.632 62.3526 296.77 69.0728 292.2C75.7308 296.875 82.8153 300.836 90.2206 304.022C95.6645 306.283 101.37 307.768 107.185 308.437C108.206 310.729 109.928 312.591 112.072 313.725C114.217 314.858 116.661 315.198 119.011 314.688C121.361 314.179 123.48 312.85 125.027 310.915C126.575 308.98 127.461 306.553 127.543 304.022C128.777 303.217 129.93 302.28 130.983 301.226C139.395 292.347 140.278 277.041 133.446 258.203C125.43 237.969 113.565 219.686 98.5868 204.485ZM44.3925 294.652C30.4488 300.294 19.0615 300.196 13.4841 294.26C7.90661 288.324 7.76717 276.501 13.1587 261.686C15.3433 255.767 18.0022 250.056 21.1066 244.614C26.642 252.54 32.7323 260.018 39.3263 266.984C41.3249 269.094 43.37 271.154 45.415 273.116C48.2038 271.612 51.039 269.895 53.9207 267.965C51.2249 265.414 48.5291 263.06 45.9263 260.067C35.4653 249.218 26.4862 236.884 19.2474 223.421C20.7011 221.831 21.6782 219.824 22.0563 217.65C22.4345 215.477 22.1969 213.234 21.3734 211.202C20.5499 209.171 19.177 207.44 17.4264 206.228C15.6759 205.016 13.6256 204.376 11.532 204.387C8.04605 192.123 8.65027 182.36 13.5305 177.209C15.2494 175.611 17.2522 174.388 19.4225 173.613C21.5928 172.839 23.8873 172.527 26.1728 172.696C32.4447 172.917 38.6295 174.313 44.439 176.817C50.0474 179.14 55.4585 181.963 60.6136 185.255C53.076 191.08 45.9747 197.509 39.3728 204.485C37.3277 206.644 35.3291 208.9 33.377 211.157C34.7765 214.265 36.3279 217.294 38.0249 220.233C40.5348 217.24 43.0911 214.297 45.8333 211.402C52.9841 203.863 60.7618 197.017 69.0728 190.945C77.2949 197.04 84.9936 203.885 92.0798 211.402C99.2241 218.949 105.711 227.158 111.461 235.931C105.696 244.692 99.2107 252.9 92.0798 260.46C78.5555 275.165 62.3281 286.8 44.3925 294.652ZM124.429 294.211L123.685 294.849C122.465 293.757 121.025 292.972 119.475 292.554C117.924 292.136 116.304 292.095 114.737 292.436C113.17 292.776 111.696 293.488 110.428 294.518C109.16 295.548 108.131 296.869 107.418 298.381C102.64 297.733 97.9567 296.464 93.4742 294.603C87.8576 292.299 82.445 289.476 77.2995 286.165C84.8371 280.34 91.9384 273.911 98.5403 266.935C105.16 259.994 111.252 252.515 116.76 244.565C119.878 250.006 122.553 255.717 124.754 261.637C130.053 276.501 130.053 288.373 124.429 294.211Z" fill="#DFCEFF"/>
<path d="M72.0528 251.637C80.4143 250.204 86.0923 241.889 84.7351 233.063C83.3778 224.238 75.4992 218.245 67.1377 219.677C58.7761 221.11 53.0981 229.426 54.4553 238.251C55.8126 247.076 63.6912 253.069 72.0528 251.637Z" fill="#DFCEFF"/>
<rect width="138" height="526" rx="30" fill="#957EBE" fill-opacity="0.39"/>
</svg>
