<svg width="138" height="526" viewBox="0 0 138 526" fill="none" xmlns="http://www.w3.org/2000/svg">
<path d="M69 303C59.57 303 50.6575 301.083 42.2625 297.248C33.8675 293.413 26.5351 288.181 20.2653 281.553C14.0001 274.924 9.05511 267.169 5.43031 258.287C1.80551 249.406 -0.00459125 239.977 8.74525e-06 230C8.74525e-06 219.902 1.81241 210.441 5.43721 201.618C9.06201 192.794 14.007 185.071 20.2722 178.447C26.5374 171.814 33.8652 166.582 42.2556 162.752C50.646 158.922 59.5608 157.005 69 157C78.545 157 87.4874 158.917 95.8272 162.752C104.167 166.587 111.467 171.819 117.728 178.447C123.998 185.076 128.943 192.802 132.563 201.625C136.183 210.448 137.995 219.907 138 230C138 239.977 136.188 249.406 132.563 258.287C128.938 267.169 123.993 274.927 117.728 281.56C111.463 288.188 104.16 293.42 95.8203 297.255C87.4805 301.09 78.5404 303.005 69 303ZM69 288.035C71.99 283.655 74.5775 279.092 76.7625 274.347C78.9475 269.602 80.73 264.553 82.11 259.2H55.89C57.27 264.553 59.0525 269.602 61.2375 274.347C63.4225 279.092 66.01 283.655 69 288.035ZM51.06 285.115C48.99 281.1 47.1776 276.932 45.6228 272.61C44.068 268.288 42.7754 263.818 41.745 259.2H21.39C24.725 265.283 28.8949 270.576 33.8997 275.077C38.9045 279.579 44.6246 282.925 51.06 285.115ZM86.94 285.115C93.38 282.925 99.1024 279.579 104.107 275.077C109.112 270.576 113.28 265.283 116.61 259.2H96.255C95.22 263.823 93.9274 268.296 92.3772 272.617C90.827 276.939 89.0146 281.105 86.94 285.115ZM15.525 244.6H38.985C38.64 242.167 38.3801 239.763 38.2053 237.388C38.0305 235.013 37.9454 232.55 37.95 230C37.95 227.445 38.0374 224.982 38.2122 222.612C38.387 220.242 38.6446 217.838 38.985 215.4H15.525C14.95 217.833 14.5176 220.237 14.2278 222.612C13.938 224.987 13.7954 227.45 13.8 230C13.8 232.555 13.9449 235.018 14.2347 237.388C14.5245 239.758 14.9546 242.162 15.525 244.6ZM52.785 244.6H85.215C85.56 242.167 85.8199 239.763 85.9947 237.388C86.1695 235.013 86.2546 232.55 86.25 230C86.25 227.445 86.1626 224.982 85.9878 222.612C85.813 220.242 85.5554 217.838 85.215 215.4H52.785C52.44 217.833 52.1801 220.237 52.0053 222.612C51.8305 224.987 51.7454 227.45 51.75 230C51.75 232.555 51.8374 235.018 52.0122 237.388C52.187 239.758 52.4446 242.162 52.785 244.6ZM99.015 244.6H122.475C123.05 242.167 123.482 239.763 123.772 237.388C124.062 235.013 124.205 232.55 124.2 230C124.2 227.445 124.055 224.982 123.765 222.612C123.476 220.242 123.045 217.838 122.475 215.4H99.015C99.36 217.833 99.6199 220.237 99.7947 222.612C99.9695 224.987 100.055 227.45 100.05 230C100.05 232.555 99.9626 235.018 99.7878 237.388C99.613 239.758 99.3554 242.162 99.015 244.6ZM96.255 200.8H116.61C113.275 194.717 109.107 189.424 104.107 184.922C99.107 180.421 93.3846 177.075 86.94 174.885C89.01 178.9 90.8224 183.068 92.3772 187.39C93.932 191.711 95.2246 196.182 96.255 200.8ZM55.89 200.8H82.11C80.73 195.447 78.9475 190.397 76.7625 185.652C74.5775 180.907 71.99 176.345 69 171.965C66.01 176.345 63.4225 180.907 61.2375 185.652C59.0525 190.397 57.27 195.447 55.89 200.8ZM21.39 200.8H41.745C42.78 196.177 44.0749 191.704 45.6297 187.383C47.1845 183.061 48.9946 178.895 51.06 174.885C44.62 177.075 38.8976 180.421 33.8928 184.922C28.888 189.424 24.7204 194.717 21.39 200.8Z" fill="#DFCEFF"/>
<rect width="138" height="526" rx="30" fill="#957EBE" fill-opacity="0.39"/>
</svg>
